# Split generated for Godot wheel animation
mtllib car_03.mtl
g car_03_body
v 0.000000 2.103997 -1.121122
v -0.714963 2.030407 -1.883935
v -0.732972 2.087884 -1.121123
v 0.000000 2.098640 0.482974
v -0.769172 2.082528 0.442242
v -0.000000 1.428232 1.215787
v -1.098140 1.428232 1.096903
v -0.000000 1.199030 2.758511
v -1.030681 1.198968 2.743597
v -0.933421 0.348509 -2.476084
v -0.948121 0.814943 -2.684811
v 0.000001 0.814826 -2.711489
v -0.897047 0.348521 -2.477114
v -0.000000 0.595555 2.724329
v -0.978180 0.596025 2.703964
v -1.098140 1.436175 0.600570
v -0.921364 1.270900 -2.684985
v -1.005054 1.336017 -2.248573
v -1.131742 0.942225 1.586245
v -1.107288 0.756036 2.154011
v -1.049310 1.426553 -1.291062
v -1.041767 0.315037 1.166065
v -0.000000 0.387536 2.566629
v -1.112608 0.785525 1.357588
v -1.077411 0.509209 1.249081
v -1.124290 0.927051 1.937523
v -1.062795 0.312510 0.586841
v -1.053534 0.330530 -0.946414
v -0.948263 0.386186 2.519348
v -1.114759 0.909822 -1.638625
v -1.100997 0.713225 -1.405762
v -0.993390 0.385803 2.264896
v -1.127800 0.953124 1.801325
v -1.065437 0.724478 -2.265341
v -1.097482 0.913897 -2.018018
v -1.052626 0.335085 -1.333898
v -1.054746 0.587300 2.236998
v 0.000001 2.046520 -1.883935
v -1.049691 0.315369 1.241982
v -1.008325 0.347208 -2.365387
v -1.015510 0.346921 -2.340995
v 0.000001 1.270788 -2.711660
v 0.000001 0.348521 -2.477114
v -0.640986 1.035536 1.570392
v -0.621852 0.878836 1.341734
v -0.586654 0.602520 1.233227
v -0.563990 0.680611 2.221144
v -0.558934 0.408680 1.226128
v -0.502634 0.479114 2.249043
v -0.616532 0.849347 2.138157
v -0.633534 1.020362 1.921670
v -0.637044 1.046435 1.785471
v -0.619337 0.972551 -1.618095
v -0.602060 0.976626 -1.997488
v -0.570014 0.787206 -2.244811
v -0.557203 0.397813 -1.313368
v -0.520087 0.409650 -2.320464
v -0.605574 0.775954 -1.385232
v 1.041767 0.315037 1.166065
v 1.049691 0.315369 1.241982
v 0.558934 0.408680 1.226129
v 0.557204 0.397813 -1.313368
v 0.993390 0.385803 2.264896
v 0.948263 0.386186 2.519348
v 0.502634 0.479114 2.249043
v 0.897048 0.348521 -2.477114
v 0.933422 0.348509 -2.476084
v 0.520088 0.409650 -2.320464
v 1.008326 0.347208 -2.365387
v 1.015511 0.346921 -2.340994
v 1.052626 0.335085 -1.333898
v 1.053535 0.330530 -0.946414
v 1.062795 0.312510 0.586841
v -1.107380 1.572023 0.453590
v -1.107380 1.572977 0.380706
v -1.324033 1.545417 0.328745
v -1.324033 1.544463 0.401629
v -1.086276 1.414293 0.378629
v -1.113529 1.410827 0.372093
v -1.302930 1.386733 0.326668
v -1.302930 1.385779 0.399552
v -1.116242 1.409527 0.444326
v -1.086276 1.413339 0.451513
v -1.089449 1.369681 0.374800
v -1.090806 1.368554 0.447358
v -0.000000 0.586466 2.803296
v -0.958357 0.589149 2.598348
v -0.000000 0.588298 2.663364
v -0.964484 0.586801 2.777677
v -0.000000 0.791905 2.692805
v -0.964483 0.790409 2.807118
v -0.000000 0.790073 2.832737
v -0.969276 0.792240 2.667186
v -1.061442 0.588660 2.635686
v -1.052686 0.790951 2.765662
v -1.035181 0.587344 2.736221
v -0.995997 0.592869 2.314192
v -1.105667 0.797327 2.278607
v -1.078947 0.792267 2.665127
v -1.088163 0.592896 2.312133
v -0.995997 0.797300 2.280666
v 0.000001 0.554284 -2.753247
v 0.000001 0.552300 -2.601692
v -0.886045 0.551601 -2.548299
v -0.892171 0.553949 -2.727628
v 0.000001 0.756732 -2.638726
v 0.000001 0.758564 -2.778658
v -0.892171 0.758228 -2.753039
v -0.896964 0.756396 -2.613107
v -0.989130 0.552090 -2.585636
v -0.980374 0.757685 -2.711583
v -0.962869 0.553406 -2.686171
v -0.923685 0.550544 -2.467528
v -1.006634 0.756369 -2.611048
v -1.033354 0.753972 -2.427913
v -1.015851 0.550517 -2.465469
v -0.923685 0.753999 -2.429972
v 0.732972 2.087884 -1.121122
v 0.714964 2.030407 -1.883935
v 0.769172 2.082528 0.442242
v 1.098140 1.428232 1.096903
v 1.030681 1.198968 2.743598
v 0.948122 0.814943 -2.684811
v 0.978179 0.596025 2.703964
v 1.098141 1.436175 0.600570
v 0.921366 1.270900 -2.684984
v 1.005055 1.336017 -2.248573
v 1.131742 0.942225 1.586245
v 1.107288 0.756036 2.154011
v 1.049311 1.426553 -1.291062
v 1.112608 0.785525 1.357588
v 1.077411 0.509209 1.249081
v 1.124290 0.927051 1.937523
v 1.100998 0.713225 -1.405762
v 1.114760 0.909822 -1.638625
v 1.127800 0.953124 1.801325
v 1.097483 0.913897 -2.018018
v 1.065438 0.724478 -2.265340
v 1.054746 0.587300 2.236998
v 0.640985 1.035536 1.570392
v 0.637043 1.046435 1.785472
v 0.633534 1.020362 1.921670
v 0.563990 0.680611 2.221145
v 0.616531 0.849347 2.138157
v 0.586654 0.602520 1.233227
v 0.621852 0.878836 1.341735
v 0.619338 0.972551 -1.618094
v 0.605575 0.775954 -1.385231
v 0.570015 0.787206 -2.244810
v 0.602061 0.976626 -1.997488
v 1.107381 1.572023 0.453590
v 1.324034 1.544463 0.401629
v 1.324034 1.545417 0.328745
v 1.107381 1.572977 0.380707
v 1.302930 1.386733 0.326668
v 1.113529 1.410827 0.372093
v 1.086277 1.414293 0.378629
v 1.086277 1.413339 0.451513
v 1.116242 1.409527 0.444326
v 1.302930 1.385779 0.399552
v 1.089449 1.369681 0.374800
v 1.090806 1.368554 0.447358
v 0.958357 0.589149 2.598348
v 0.964483 0.586801 2.777677
v 0.964483 0.790409 2.807119
v 0.969276 0.792240 2.667187
v 1.061442 0.588660 2.635686
v 1.052685 0.790951 2.765662
v 1.035181 0.587344 2.736221
v 0.995996 0.592869 2.314192
v 1.078946 0.792267 2.665127
v 1.105666 0.797327 2.278607
v 1.088163 0.592896 2.312133
v 0.995996 0.797300 2.280667
v 0.886046 0.551601 -2.548299
v 0.892173 0.553949 -2.727628
v 0.892172 0.758228 -2.753038
v 0.896965 0.756396 -2.613107
v 0.989131 0.552090 -2.585636
v 0.980375 0.757685 -2.711582
v 0.962870 0.553406 -2.686171
v 0.923686 0.550544 -2.467527
v 1.033356 0.753972 -2.427912
v 1.006636 0.756369 -2.611047
v 1.015852 0.550517 -2.465468
v 0.923686 0.753999 -2.429972
vt 0.932570 0.650000 1.000000
vt 0.932570 0.600000 1.000000
vt 0.895141 0.600000 1.000000
vt 0.895141 0.650000 1.000000
vt 0.970000 0.650000 1.000000
vt 0.970000 0.600000 1.000000
vt 0.707993 0.650000 1.000000
vt 0.707993 0.600000 1.000000
vt 0.670563 0.600000 1.000000
vt 0.670563 0.650000 1.000000
vt 0.745422 0.650000 1.000000
vt 0.745422 0.600000 1.000000
vt 0.782852 0.650000 1.000000
vt 0.782852 0.600000 1.000000
vt 0.820281 0.650000 1.000000
vt 0.820281 0.600000 1.000000
vt 0.857711 0.650000 1.000000
vt 0.857711 0.600000 1.000000
vt 0.820281 0.680281 -0.250000
vt 0.926148 0.724133 -0.250000
vt 0.970000 0.830000 -0.250000
vt 0.820281 0.979719 -0.250000
vt 0.926148 0.935867 -0.250000
vt 0.714415 0.935867 -0.250000
vt 0.670563 0.830000 -0.250000
vt 0.714415 0.724133 -0.250000
vt 0.714415 0.724133 0.250000
vt 0.670563 0.830000 0.250000
vt 0.714415 0.935867 0.250000
vt 0.926148 0.935867 0.250000
vt 0.820281 0.979719 0.250000
vt 0.970000 0.830000 0.250000
vt 0.926148 0.724133 0.250000
vt 0.820281 0.680281 0.250000
vt 0.705458 0.544069 0.000000
vt 0.842015 0.415941 0.000000
vt 0.705458 0.412713 0.000000
vt 0.410723 0.543647 0.000000
vt 0.418001 0.406226 0.000000
vt 0.251183 0.543466 0.000000
vt 0.272423 0.347272 0.000000
vt 0.008127 0.543647 0.000000
vt 0.010791 0.359504 0.000000
vt 0.010761 0.582209 0.000000
vt 0.008127 0.665302 0.000000
vt 0.178040 0.665218 0.000000
vt 0.017280 0.582209 0.000000
vt 0.398664 0.730998 0.000000
vt 0.213956 0.622825 0.000000
vt 0.213956 0.731044 0.000000
vt 0.389255 0.622861 0.000000
vt 0.392702 0.213797 0.000000
vt 0.305327 0.213983 0.000000
vt 0.421955 0.332231 0.000000
vt 0.702786 0.329428 0.000000
vt 0.981067 0.176474 0.000000
vt 0.903017 0.189166 0.000000
vt 0.839343 0.317339 0.000000
vt 0.214916 0.127596 0.000000
vt 0.008127 0.176318 0.000000
vt 0.013815 0.068181 0.000000
vt 0.112739 0.095564 0.000000
vt 0.731649 0.207636 0.000000
vt 0.288738 0.014222 0.000000
vt 0.979966 0.094769 0.000000
vt 0.213956 0.585179 0.000000
vt 0.255522 0.098980 0.000000
vt 0.274318 0.049211 0.000000
vt 0.151933 0.125701 0.000000
vt 0.392526 0.012411 0.000000
vt 0.667319 0.012043 0.000000
vt 0.383894 0.584826 0.000000
vt 0.792718 0.114225 0.000000
vt 0.750529 0.079542 0.000000
vt 0.092000 0.029481 0.000000
vt 0.046405 0.030146 0.000000
vt 0.176400 0.130054 0.000000
vt 0.904587 0.079542 0.000000
vt 0.860713 0.114065 0.000000
vt 0.736765 0.011950 0.000000
vt 0.097472 0.065522 0.000000
vt 0.842015 0.544069 0.000000
vt 0.275135 0.014460 0.000000
vt 0.921630 0.011703 0.000000
vt 0.917259 0.011709 0.000000
vt 0.012922 0.747006 0.000000
vt 0.178040 0.746924 0.000000
vt 0.988519 0.544069 0.000000
vt 0.983739 0.378951 0.000000
vt 0.178040 0.582209 0.000000
vt 0.941469 0.011676 0.000000
vt 0.835118 0.080003 0.000000
vt 0.846846 0.071738 0.000000
vt 0.852274 0.057364 0.000000
vt 0.801198 0.062075 0.000000
vt 0.852510 0.047327 0.000000
vt 0.799617 0.051665 0.000000
vt 0.805607 0.070752 0.000000
vt 0.816927 0.079456 0.000000
vt 0.823994 0.080713 0.000000
vt 0.816442 0.081329 0.000000
vt 0.836600 0.081282 0.000000
vt 0.849608 0.071047 0.000000
vt 0.799854 0.051008 0.000000
vt 0.853364 0.050937 0.000000
vt 0.803934 0.071047 0.000000
vt 0.833698 0.066537 0.000000
vt 0.846419 0.070678 0.000000
vt 0.851301 0.057751 0.000000
vt 0.835108 0.062804 0.000000
vt 0.830651 0.068684 0.000000
vt 0.835872 0.078111 0.000000
vt 0.827762 0.068868 0.000000
vt 0.825868 0.078749 0.000000
vt 0.825927 0.068542 0.000000
vt 0.819513 0.077619 0.000000
vt 0.822986 0.066281 0.000000
vt 0.809332 0.069791 0.000000
vt 0.821841 0.064027 0.000000
vt 0.805367 0.061988 0.000000
vt 0.821431 0.061324 0.000000
vt 0.803946 0.052627 0.000000
vt 0.851513 0.048725 0.000000
vt 0.835169 0.060197 0.000000
vt 0.822552 0.066358 0.000000
vt 0.808680 0.068564 0.000000
vt 0.819639 0.077573 0.000000
vt 0.825801 0.069029 0.000000
vt 0.821492 0.061153 0.000000
vt 0.805105 0.051008 0.000000
vt 0.834415 0.066358 0.000000
vt 0.848695 0.068564 0.000000
vt 0.851987 0.050945 0.000000
vt 0.835391 0.061134 0.000000
vt 0.831036 0.069016 0.000000
vt 0.837299 0.077531 0.000000
vt 0.393922 0.881402 0.000000
vt 0.389854 0.880982 0.000000
vt 0.390769 0.907018 0.000000
vt 0.526842 0.907110 0.000000
vt 0.335090 0.883968 0.000000
vt 0.321456 0.886362 0.000000
vt 0.318923 0.936672 0.000000
vt 0.336005 0.910005 0.000000
vt 0.390769 0.966326 0.000000
vt 0.321456 0.986981 0.000000
vt 0.335090 0.989375 0.000000
vt 0.336005 0.963338 0.000000
vt 0.389854 0.992362 0.000000
vt 0.393922 0.991942 0.000000
vt 0.507131 0.992567 0.000000
vt 0.424958 0.993058 0.000000
vt 0.527897 0.992518 0.000000
vt 0.526841 0.966234 0.000000
vt 0.580815 0.964265 0.000000
vt 0.581871 0.990550 0.000000
vt 0.583179 0.990168 0.000000
vt 0.589166 0.984265 0.000000
vt 0.589111 0.986194 0.000000
vt 0.589167 0.936673 0.000000
vt 0.589167 0.889081 0.000000
vt 0.589111 0.887151 0.000000
vt 0.580815 0.909080 0.000000
vt 0.583179 0.883177 0.000000
vt 0.581872 0.882796 0.000000
vt 0.527898 0.880826 0.000000
vt 0.507131 0.880778 0.000000
vt 0.424958 0.880286 0.000000
vt 0.150000 0.046207 0.000000
vt 0.150000 0.010000 0.000000
vt 0.113793 0.010000 0.000000
vt 0.113793 0.046207 0.000000
vt 0.250000 0.085000 0.000000
vt 0.250000 0.010000 0.000000
vt 0.237421 0.010000 0.000000
vt 0.150000 0.085000 0.000000
vt 0.118801 0.010000 0.000000
vt 0.147921 0.009682 0.000000
vt 0.114439 0.009524 0.000000
vt 0.115539 0.045413 0.000000
vt 0.118347 0.010000 0.000000
vt 0.118801 0.046207 0.000000
vt 0.116070 0.010000 0.000000
vt 0.116297 0.046207 0.000000
vt 0.431489 0.779326 0.000000
vt 0.486490 0.595333 0.000000
vt 0.473903 0.777663 0.000000
vt 0.432089 0.596304 0.000000
vt 0.473906 0.777741 0.000000
vt 0.432427 0.596306 0.000000
vt 0.474811 0.593813 0.000000
vt 0.010000 0.820000 0.000000
vt 0.192857 0.777553 0.000000
vt 0.010000 0.777553 0.000000
vt 0.192857 0.820000 0.000000
vt 0.474407 0.576248 0.000000
vt 0.444369 0.579126 0.000000
vt 0.206261 0.777553 0.000000
vt 0.572341 0.584825 0.000000
vt 0.591635 0.563571 0.000000
vt 0.474659 0.573012 0.000000
vt 0.209580 0.820000 0.000000
vt 0.240076 0.820000 0.000000
vt 0.346543 0.777553 0.000000
vt 0.248396 0.777553 0.000000
vt 0.357324 0.820000 0.000000
vt 0.572281 0.567340 0.000000
vt 0.378118 0.777553 0.000000
vt 0.360644 0.777553 0.000000
vt 0.378117 0.820000 0.000000
vt 0.591788 0.584373 0.000000
vt 0.217899 0.777553 0.000000
vt 0.444129 0.582418 0.000000
vt 0.010000 0.870000 0.000000
vt 0.010000 0.827553 0.000000
vt 0.192857 0.827553 0.000000
vt 0.192857 0.870000 0.000000
vt 0.206261 0.827553 0.000000
vt 0.209580 0.870000 0.000000
vt 0.240076 0.870000 0.000000
vt 0.248396 0.827553 0.000000
vt 0.346543 0.827553 0.000000
vt 0.357324 0.870000 0.000000
vt 0.360644 0.827553 0.000000
vt 0.378118 0.827553 0.000000
vt 0.378117 0.870000 0.000000
vt 0.217899 0.827553 0.000000
vn 0.000000 0.920505 0.390731
vn -0.000000 0.374607 0.927184
vn -0.000000 -0.390731 0.920505
vn 0.000000 -0.927184 0.374606
vn 0.000000 -0.920505 -0.390731
vn 0.000001 -0.374607 -0.927184
vn 0.000001 0.390731 -0.920505
vn 0.000001 0.927184 -0.374606
vn 1.000000 0.000000 0.000000
vn 1.000000 0.000001 -0.000001
vn 1.000000 0.000003 -0.000002
vn -1.000000 -0.000000 -0.000000
vn -1.000000 0.000001 -0.000000
vn -1.000000 0.000000 -0.000000
vn -0.000001 0.390731 0.920505
vn -0.000001 -0.374607 0.927184
vn -0.000000 -0.920505 0.390731
vn 0.000000 -0.927184 -0.374607
vn 0.000001 -0.390731 -0.920505
vn 0.000000 0.374606 -0.927184
vn -0.000000 0.920505 -0.390731
vn -0.000000 0.927184 0.374606
vn 1.000000 0.000001 0.000000
vn -1.000000 0.000001 0.000000
vn -1.000000 0.000001 0.000001
vn -0.021914 0.996895 -0.075633
vn -0.021099 0.999773 0.002937
vn -0.074270 0.723764 0.686039
vn -0.002056 0.990433 0.137979
vn -0.015907 0.989018 0.146938
vn -0.025716 -0.409004 -0.912170
vn -0.014441 -0.056545 0.998296
vn -0.020800 -0.067381 0.997510
vn -0.890464 0.454996 0.007283
vn -0.892934 0.449781 -0.019135
vn -0.847437 0.476720 -0.233643
vn -0.990175 0.127122 0.058262
vn -0.974812 -0.098050 0.200321
vn -0.895250 0.442224 -0.054457
vn -0.998717 -0.050626 -0.000809
vn -0.978869 0.057368 -0.196275
vn -0.016879 -0.604038 0.796777
vn -0.981462 -0.052652 -0.184283
vn -0.993999 0.033148 0.104250
vn -0.999980 0.001962 -0.006017
vn -0.021977 0.999753 0.003338
vn -0.036338 -0.663020 0.747719
vn -0.051134 0.736859 0.674110
vn -0.903699 0.420338 -0.081513
vn -0.992932 0.055039 0.105150
vn -0.944485 -0.282398 0.167929
vn -0.984259 0.165810 -0.061170
vn -0.927489 0.373846 -0.001944
vn -0.973656 0.101733 -0.204071
vn -0.868230 -0.016824 0.495877
vn -0.963031 -0.065011 -0.261430
vn -0.961991 -0.219952 0.161843
vn -0.980579 0.191443 -0.042598
vn -0.996967 -0.008917 -0.077316
vn -0.022467 0.996922 -0.075117
vn -0.899256 0.436683 -0.025435
vn -0.999187 -0.031117 -0.025635
vn -0.985260 -0.137152 -0.102237
vn -0.950171 -0.267065 0.160785
vn -0.998829 -0.031864 0.036400
vn -0.984077 0.168169 0.057551
vn -0.999992 0.003128 -0.002307
vn -0.963515 0.101922 -0.247490
vn -0.956681 -0.069875 -0.282629
vn -0.028527 0.000459 -0.999593
vn -0.018285 0.728726 -0.684561
vn 0.000000 -0.449086 -0.893489
vn -0.796521 -0.267699 -0.542118
vn -0.988398 -0.148576 0.031542
vn -0.974714 -0.216763 0.054287
vn -0.973058 -0.228196 -0.032923
vn -0.999331 -0.030713 0.019872
vn -0.991279 -0.125249 -0.040973
vn -0.991615 -0.123514 -0.037997
vn -0.988835 -0.137436 -0.057591
vn 0.097187 -0.353040 0.930547
vn 0.171538 -0.805907 0.566647
vn 0.188033 -0.981072 0.046267
vn 0.177499 -0.965715 -0.189441
vn 0.127005 -0.773468 -0.620980
vn 0.052151 -0.427608 -0.902459
vn -0.005596 -0.138816 -0.990302
vn 0.038181 -0.031117 0.998786
vn 0.122276 -0.754792 -0.644466
vn 0.063292 -0.178509 -0.981901
vn -0.015488 -0.198418 0.979995
vn 0.074275 -0.787046 0.612407
vn 0.125813 -0.992042 -0.004927
vn -0.189806 -0.981809 0.004905
vn -0.068821 -0.972844 -0.220994
vn 0.058075 -0.998276 0.008468
vn 0.068822 -0.972844 -0.220994
vn -0.226976 -0.970664 0.079329
vn 0.191247 -0.981516 -0.007136
vn 0.355705 -0.934556 -0.008835
vn 0.135972 -0.990710 0.002259
vn 0.010106 -0.999949 -0.000163
vn 0.118077 -0.988813 0.091138
vn 0.000001 -0.999931 -0.011752
vn 0.000000 -0.999931 -0.011750
vn -0.000135 -0.931170 0.364586
vn -0.121011 -0.990720 0.061890
vn -0.010842 -0.999941 -0.000155
vn -0.128147 -0.991719 -0.008509
vn -0.355704 -0.934557 -0.008835
vn -0.129243 0.991528 0.012980
vn 0.227827 0.043033 -0.972750
vn -0.227826 -0.043032 0.972750
vn -0.227827 -0.043034 0.972750
vn -0.991274 -0.131810 -0.001726
vn 0.991273 0.131811 0.001726
vn 0.129243 -0.991528 -0.012980
vn 0.996215 -0.086543 0.008058
vn 0.224562 0.067473 -0.972121
vn -0.854891 -0.517776 -0.032709
vn -0.224563 -0.067475 0.972121
vn 0.000000 -0.999914 -0.013090
vn -0.000000 0.999914 0.013090
vn -0.000000 0.999914 0.013089
vn -0.026329 -0.143060 0.989364
vn -0.026329 -0.143061 0.989364
vn 0.000001 -0.999914 -0.013090
vn -0.502655 -0.123716 0.855589
vn 0.000001 -0.999914 -0.013089
vn 0.000000 0.999914 0.013090
vn -0.420363 -0.165149 0.892200
vn -0.992016 -0.096949 0.080657
vn -0.994945 -0.074067 0.067810
vn 0.022000 -0.159959 -0.986878
vn 0.018488 -0.161803 -0.986650
vn -0.000001 0.999914 0.013090
vn -0.961075 -0.118703 0.249490
vn -0.000002 -0.999914 -0.013088
vn -0.961074 -0.118702 0.249492
vn 0.000000 -0.999914 -0.013089
vn -0.028438 -0.123392 -0.991950
vn -0.502338 -0.106736 -0.858058
vn -0.419979 -0.147382 -0.895486
vn -0.969915 -0.110118 -0.217114
vn -0.987735 -0.058233 -0.144876
vn -0.000000 -0.999914 -0.013090
vn 0.022023 -0.179647 0.983485
vn 0.018509 -0.181490 0.983219
vn -0.000001 0.999914 0.013089
vn -0.960893 -0.113748 -0.252481
vn -0.000001 -0.999914 -0.013090
vn -0.960891 -0.113745 -0.252488
vn -0.000000 0.920505 0.390731
vn -0.000000 -0.927184 0.374606
vn -0.000000 -0.920505 -0.390731
vn -0.000001 -0.374607 -0.927184
vn -0.000001 0.390731 -0.920505
vn -0.000000 0.927184 -0.374606
vn -1.000000 -0.000000 -0.000001
vn 1.000000 0.000000 -0.000001
vn 1.000000 -0.000000 -0.000002
vn 0.000000 0.390731 0.920505
vn 0.000001 -0.374607 0.927184
vn 0.000000 -0.920505 0.390731
vn -0.000000 -0.927184 -0.374607
vn -0.000000 -0.390731 -0.920505
vn 0.000000 0.920505 -0.390731
vn 0.000000 0.927184 0.374606
vn 1.000000 0.000000 0.000001
vn 1.000000 0.000001 -0.000000
vn 0.021914 0.996895 -0.075633
vn 0.021099 0.999773 0.002937
vn 0.074270 0.723764 0.686039
vn 0.002056 0.990433 0.137979
vn 0.015907 0.989018 0.146938
vn 0.025717 -0.409004 -0.912170
vn 0.014441 -0.056545 0.998296
vn 0.020799 -0.067381 0.997510
vn 0.890464 0.454996 0.007284
vn 0.892934 0.449781 -0.019135
vn 0.847437 0.476720 -0.233643
vn 0.990175 0.127122 0.058262
vn 0.974812 -0.098050 0.200321
vn 0.895250 0.442224 -0.054457
vn 0.998717 -0.050626 -0.000809
vn 0.978869 0.057368 -0.196275
vn 0.016878 -0.604038 0.796777
vn 0.981462 -0.052652 -0.184283
vn 0.993999 0.033148 0.104251
vn 0.999980 0.001962 -0.006016
vn 0.021977 0.999753 0.003338
vn 0.036338 -0.663020 0.747719
vn 0.051134 0.736859 0.674110
vn 0.903699 0.420338 -0.081513
vn 0.992932 0.055039 0.105150
vn 0.944485 -0.282398 0.167930
vn 0.984259 0.165810 -0.061170
vn 0.927489 0.373846 -0.001944
vn 0.973656 0.101733 -0.204071
vn 0.868229 -0.016824 0.495878
vn 0.963031 -0.065011 -0.261429
vn 0.961991 -0.219952 0.161844
vn 0.980579 0.191443 -0.042598
vn 0.996967 -0.008917 -0.077315
vn 0.022467 0.996922 -0.075117
vn 0.899256 0.436683 -0.025434
vn 0.999187 -0.031117 -0.025634
vn 0.985260 -0.137152 -0.102237
vn 0.950171 -0.267065 0.160786
vn 0.998829 -0.031864 0.036400
vn 0.984077 0.168169 0.057551
vn 0.999992 0.003128 -0.002307
vn 0.963515 0.101922 -0.247490
vn 0.956681 -0.069876 -0.282629
vn 0.028528 0.000459 -0.999593
vn 0.018286 0.728726 -0.684561
vn 0.796521 -0.267700 -0.542118
vn 0.983425 -0.180845 0.013050
vn 0.885979 -0.395199 -0.242607
vn 0.974714 -0.216763 0.054288
vn 0.988398 -0.148576 0.031543
vn 0.990631 -0.129724 -0.042680
vn 0.991615 -0.123515 -0.037997
vn 0.993127 -0.107457 -0.046380
vn -0.097187 -0.353040 0.930547
vn -0.171538 -0.805907 0.566647
vn -0.188033 -0.981072 0.046267
vn -0.177499 -0.965715 -0.189441
vn -0.127005 -0.773468 -0.620980
vn -0.052151 -0.427608 -0.902459
vn 0.005597 -0.138816 -0.990302
vn -0.038182 -0.031116 0.998786
vn -0.122276 -0.754792 -0.644466
vn -0.063292 -0.178509 -0.981901
vn 0.015487 -0.198418 0.979995
vn -0.074275 -0.787046 0.612407
vn -0.125813 -0.992042 -0.004927
vn 0.129243 0.991528 0.012980
vn -0.227827 0.043033 -0.972750
vn -0.227822 0.043033 -0.972752
vn 0.227826 -0.043034 0.972750
vn 0.227826 -0.043033 0.972751
vn 0.991274 -0.131810 -0.001725
vn -0.991273 0.131811 0.001725
vn -0.129243 -0.991528 -0.012980
vn -0.996216 -0.086543 0.008057
vn -0.224561 0.067473 -0.972121
vn 0.854891 -0.517776 -0.032709
vn 0.224563 -0.067475 0.972121
vn 0.000000 0.999914 0.013089
vn 0.026329 -0.143060 0.989364
vn 0.026329 -0.143061 0.989364
vn 0.502655 -0.123716 0.855589
vn -0.000001 -0.999914 -0.013089
vn 0.420363 -0.165149 0.892200
vn 0.992016 -0.096949 0.080658
vn 0.994945 -0.074067 0.067810
vn -0.022000 -0.159959 -0.986878
vn -0.018487 -0.161803 -0.986650
vn 0.000001 0.999914 0.013090
vn 0.961075 -0.118703 0.249490
vn 0.000002 -0.999914 -0.013088
vn 0.961074 -0.118702 0.249492
vn -0.000000 -0.999914 -0.013089
vn 0.028438 -0.123392 -0.991950
vn 0.502338 -0.106736 -0.858058
vn 0.419979 -0.147382 -0.895486
vn 0.969915 -0.110118 -0.217114
vn 0.987735 -0.058233 -0.144876
vn -0.022024 -0.179647 0.983485
vn -0.018509 -0.181490 0.983219
vn 0.000001 0.999914 0.013089
vn 0.960893 -0.113748 -0.252481
vn 0.960891 -0.113745 -0.252488
usemtl vehicle_mat
s off
f 1/35/26 2/36/26 3/37/26
f 4/38/27 3/37/27 5/39/27
f 6/40/28 5/39/28 7/41/28
f 8/42/29 7/41/29 9/43/29
f 7/41/30 8/42/30 6/40/30
f 10/44/31 11/45/31 12/46/31 13/47/31
f 9/48/32 14/49/32 8/50/32
f 14/49/33 9/48/33 15/51/33
f 16/52/34 7/53/34 5/54/34
f 3/55/35 16/52/35 5/54/35
f 17/56/36 18/57/36 2/58/36
f 19/59/37 9/60/37 7/53/37
f 15/61/38 9/60/38 20/62/38
f 2/58/39 21/63/39 3/55/39
f 16/52/40 22/64/40 7/53/40
f 11/65/41 18/57/41 17/56/41
f 15/51/42 23/66/42 14/49/42
f 24/67/43 7/53/43 25/68/43
f 20/62/44 9/60/44 26/69/44
f 27/70/45 21/63/45 28/71/45
f 3/37/46 4/38/46 1/35/46
f 23/66/47 15/51/47 29/72/47
f 5/39/48 6/40/48 4/38/48
f 21/63/49 2/58/49 18/57/49
f 21/63/50 30/73/50 31/74/50
f 15/61/51 32/75/51 29/76/51
f 18/57/52 30/73/52 21/63/52
f 33/77/53 9/60/53 19/59/53
f 18/57/54 34/78/54 35/79/54
f 21/63/55 31/74/55 36/80/55
f 25/68/56 7/53/56 22/64/56
f 15/61/57 20/62/57 37/81/57
f 18/57/58 35/79/58 30/73/58
f 19/59/59 7/53/59 24/67/59
f 2/36/60 1/35/60 38/82/60
f 16/52/61 3/55/61 21/63/61
f 21/63/62 27/70/62 16/52/62
f 25/68/63 22/64/63 39/83/63
f 15/61/64 37/81/64 32/75/64
f 22/64/65 16/52/65 27/70/65
f 26/69/66 9/60/66 33/77/66
f 21/63/67 36/80/67 28/71/67
f 34/78/68 18/57/68 11/65/68
f 34/78/69 11/65/69 40/84/69 41/85/69
f 12/46/70 11/45/70 17/86/70 42/87/70
f 42/88/71 17/89/71 2/36/71 38/82/71
f 43/90/72 13/47/72 12/46/72
f 10/91/73 40/84/73 11/65/73
f 44/92/74 45/93/74 46/94/74 47/95/74
f 46/94/75 48/96/75 49/97/75 47/95/75
f 47/95/76 50/98/76 51/99/76 44/92/76
f 44/92/77 51/99/77 52/100/77
f 53/101/78 54/102/78 55/103/78 56/104/78
f 55/103/79 57/105/79 56/104/79
f 53/101/80 56/104/80 58/106/80
f 45/107/81 24/108/81 25/109/81 46/110/81
f 44/111/82 19/112/82 24/108/82 45/107/82
f 52/113/83 33/114/83 19/112/83 44/111/83
f 51/115/84 26/116/84 33/114/84 52/113/84
f 50/117/85 20/118/85 26/116/85 51/115/85
f 47/119/86 37/120/86 20/118/86 50/117/86
f 49/121/87 32/122/87 37/120/87 47/119/87
f 46/110/88 25/109/88 39/123/88 48/124/88
f 58/125/89 31/126/89 30/127/89 53/128/89
f 56/129/90 36/130/90 31/126/90 58/125/90
f 55/131/91 34/132/91 41/133/91 57/134/91
f 54/135/92 35/136/92 34/132/92 55/131/92
f 53/128/93 30/127/93 35/136/93 54/135/93
f 59/137/94 60/138/94 61/139/94 62/140/94
f 63/141/95 64/142/95 23/143/95 65/144/95
f 61/139/96 65/144/96 23/143/96 48/145/96
f 23/143/97 29/146/97 32/147/97 49/148/97
f 23/143/98 49/148/98 48/145/98
f 48/145/99 39/149/99 22/150/99 28/151/99
f 22/150/100 27/152/100 28/151/100
f 28/151/101 36/153/101 56/154/101 48/145/101
f 48/145/102 56/154/102 57/155/102 61/139/102
f 57/155/103 41/156/103 40/157/103 13/158/103
f 40/157/104 10/159/104 13/158/104
f 43/160/105 66/161/105 67/162/105 13/158/105
f 57/155/106 13/158/106 67/162/106 68/163/106
f 67/162/107 69/164/107 70/165/107 68/163/107
f 61/139/108 57/155/108 68/163/108 62/140/108
f 62/140/109 71/166/109 72/167/109 59/137/109
f 59/137/110 72/167/110 73/168/110
f 74/169/111 75/170/111 76/171/111 77/172/111
f 75/173/112 78/174/112 79/175/112 80/170/112
f 75/173/112 80/170/112 76/176/112
f 77/169/113 81/170/113 82/177/113 83/171/113
f 77/169/114 83/171/114 74/172/114
f 76/169/115 80/170/115 81/171/115 77/172/115
f 78/178/116 75/179/116 74/180/116 83/180/116
f 81/169/117 80/170/117 79/181/117 82/182/117
f 84/183/118 78/178/118 83/180/118 85/184/118
f 78/174/119 84/183/119 79/175/119
f 85/184/120 82/182/120 79/181/120 84/183/120
f 82/177/121 85/184/121 83/171/121
f 86/185/122 87/186/122 88/187/122
f 87/186/122 86/185/122 89/188/122
f 90/189/123 91/190/123 92/185/123
f 91/190/124 90/189/124 93/191/124
f 92/192/125 89/193/125 86/194/125
f 89/193/126 92/192/126 91/195/126
f 89/188/127 94/196/127 87/186/127
f 93/191/124 95/197/124 91/190/124
f 91/195/128 96/198/128 89/193/128
f 94/196/129 97/199/129 87/186/129
f 93/191/130 98/200/130 99/201/130
f 96/198/131 91/195/131 95/202/131
f 99/203/132 100/204/132 94/205/132
f 100/204/133 99/203/133 98/206/133
f 97/199/122 94/196/122 100/207/122
f 98/206/134 97/208/134 100/209/134
f 97/208/135 98/206/135 101/210/135
f 98/200/136 93/191/136 101/211/136
f 95/197/130 93/191/130 99/201/130
f 99/203/137 96/212/137 95/202/137
f 94/196/138 89/188/138 96/213/138
f 96/212/139 99/203/139 94/205/139
f 102/185/140 103/187/140 104/186/140
f 104/186/140 105/188/140 102/185/140
f 106/189/123 107/185/123 108/190/123
f 108/190/123 109/191/123 106/189/123
f 107/214/141 102/215/141 105/216/141
f 105/216/141 108/217/141 107/214/141
f 105/188/140 104/186/140 110/196/140
f 109/191/123 108/190/123 111/197/123
f 108/217/142 105/216/142 112/218/142
f 110/196/127 104/186/127 113/199/127
f 109/191/123 114/201/123 115/200/123
f 112/218/143 111/219/143 108/217/143
f 114/220/144 110/221/144 116/222/144
f 116/222/145 115/223/145 114/220/145
f 113/199/146 116/207/146 110/196/146
f 115/223/147 116/224/147 113/225/147
f 113/225/148 117/226/148 115/223/148
f 115/200/149 117/211/149 109/191/149
f 111/197/124 114/201/124 109/191/124
f 114/220/150 111/219/150 112/227/150
f 110/196/151 112/213/151 105/188/151
f 112/227/152 110/221/152 114/220/152
f 1/35/171 118/37/171 119/36/171
f 4/38/172 120/39/172 118/37/172
f 6/40/173 121/41/173 120/39/173
f 8/42/174 122/43/174 121/41/174
f 121/41/175 6/40/175 8/42/175
f 67/44/176 66/47/176 12/46/176 123/45/176
f 122/48/177 8/50/177 14/49/177
f 14/49/178 124/51/178 122/48/178
f 125/52/179 120/54/179 121/53/179
f 118/55/180 120/54/180 125/52/180
f 126/56/181 119/58/181 127/57/181
f 128/59/182 121/53/182 122/60/182
f 124/61/183 129/62/183 122/60/183
f 119/58/184 118/55/184 130/63/184
f 125/52/185 121/53/185 59/64/185
f 123/65/186 126/56/186 127/57/186
f 124/51/187 14/49/187 23/66/187
f 131/67/188 132/68/188 121/53/188
f 129/62/189 133/69/189 122/60/189
f 73/70/190 72/71/190 130/63/190
f 118/37/191 1/35/191 4/38/191
f 23/66/192 64/72/192 124/51/192
f 120/39/193 4/38/193 6/40/193
f 130/63/194 127/57/194 119/58/194
f 130/63/195 134/74/195 135/73/195
f 124/61/196 64/76/196 63/75/196
f 127/57/197 130/63/197 135/73/197
f 136/77/198 128/59/198 122/60/198
f 127/57/199 137/79/199 138/78/199
f 130/63/200 71/80/200 134/74/200
f 132/68/201 59/64/201 121/53/201
f 124/61/202 139/81/202 129/62/202
f 127/57/203 135/73/203 137/79/203
f 128/59/204 131/67/204 121/53/204
f 119/36/205 38/82/205 1/35/205
f 125/52/206 130/63/206 118/55/206
f 130/63/207 125/52/207 73/70/207
f 132/68/208 60/83/208 59/64/208
f 124/61/209 63/75/209 139/81/209
f 59/64/210 73/70/210 125/52/210
f 133/69/211 136/77/211 122/60/211
f 130/63/212 72/71/212 71/80/212
f 138/78/213 123/65/213 127/57/213
f 138/78/214 70/85/214 69/84/214 123/65/214
f 12/46/215 42/87/215 126/86/215 123/45/215
f 42/88/216 38/82/216 119/36/216 126/89/216
f 43/90/72 12/46/72 66/47/72
f 67/91/217 123/65/217 69/84/217
f 140/92/218 141/100/218 142/99/218 143/95/218
f 142/99/219 144/98/219 143/95/219
f 65/97/220 61/96/220 145/94/220 143/95/220
f 140/92/221 143/95/221 145/94/221 146/93/221
f 147/101/222 148/106/222 62/104/222 149/103/222
f 62/104/223 68/105/223 149/103/223
f 147/101/224 149/103/224 150/102/224
f 146/107/225 145/110/225 132/109/225 131/108/225
f 140/111/226 146/107/226 131/108/226 128/112/226
f 141/113/227 140/111/227 128/112/227 136/114/227
f 142/115/228 141/113/228 136/114/228 133/116/228
f 144/117/229 142/115/229 133/116/229 129/118/229
f 143/119/230 144/117/230 129/118/230 139/120/230
f 65/121/231 143/119/231 139/120/231 63/122/231
f 145/110/232 61/124/232 60/123/232 132/109/232
f 148/125/233 147/128/233 135/127/233 134/126/233
f 62/129/234 148/125/234 134/126/234 71/130/234
f 149/131/235 68/134/235 70/133/235 138/132/235
f 150/135/236 149/131/236 138/132/236 137/136/236
f 147/128/237 150/135/237 137/136/237 135/127/237
f 151/169/238 152/172/238 153/171/238 154/170/238
f 154/173/239 153/176/239 155/170/239 156/175/239
f 154/173/240 156/175/240 157/174/240
f 152/169/241 151/172/241 158/171/241 159/177/241
f 152/169/242 159/177/242 160/170/242
f 153/169/243 152/172/243 160/171/243 155/170/243
f 157/178/244 158/180/244 151/180/244 154/179/244
f 160/169/245 159/182/245 156/181/245 155/170/245
f 161/183/246 162/184/246 158/180/246 157/178/246
f 157/174/247 156/175/247 161/183/247
f 162/184/248 161/183/248 156/181/248 159/182/248
f 159/177/249 158/171/249 162/184/249
f 86/185/146 88/187/146 163/186/146
f 163/186/146 164/188/146 86/185/146
f 90/189/130 92/185/130 165/190/130
f 165/190/250 166/191/250 90/189/250
f 92/192/251 86/194/251 164/193/251
f 164/193/252 165/195/252 92/192/252
f 164/188/151 163/186/151 167/196/151
f 166/191/250 165/190/250 168/197/250
f 165/195/253 164/193/253 169/198/253
f 167/196/254 163/186/254 170/199/254
f 166/191/123 171/201/123 172/200/123
f 169/198/255 168/202/255 165/195/255
f 171/203/256 167/205/256 173/204/256
f 173/204/257 172/206/257 171/203/257
f 170/199/146 173/207/146 167/196/146
f 172/206/258 173/209/258 170/208/258
f 170/208/259 174/210/259 172/206/259
f 172/200/260 174/211/260 166/191/260
f 168/197/123 171/201/123 166/191/123
f 171/203/261 168/202/261 169/212/261
f 167/196/262 169/213/262 164/188/262
f 169/212/263 167/205/263 171/203/263
f 102/185/264 175/186/264 103/187/264
f 175/186/264 102/185/264 176/188/264
f 106/189/130 177/190/130 107/185/130
f 177/190/130 106/189/130 178/191/130
f 107/214/265 176/216/265 102/215/265
f 176/216/265 107/214/265 177/217/265
f 176/188/264 179/196/264 175/186/264
f 178/191/130 180/197/130 177/190/130
f 177/217/266 181/218/266 176/216/266
f 179/196/151 182/199/151 175/186/151
f 178/191/130 183/200/130 184/201/130
f 181/218/267 177/217/267 180/219/267
f 184/220/268 185/222/268 179/221/268
f 185/222/269 184/220/269 183/223/269
f 182/199/122 179/196/122 185/207/122
f 183/223/270 182/225/270 185/224/270
f 182/225/271 183/223/271 186/226/271
f 183/200/272 178/191/272 186/211/272
f 180/197/250 178/191/250 184/201/250
f 184/220/273 181/227/273 180/219/273
f 179/196/127 176/188/127 181/213/127
f 181/227/274 184/220/274 179/221/274
