# Split generated for Godot wheel animation
mtllib car_03.mtl
g wheel_rear_left
v -0.132829 0.004041 0.463024
v 0.132829 0.004041 0.463024
v 0.132829 0.330265 0.324550
v -0.132829 0.330265 0.324550
v -0.132829 -0.324549 0.330264
v 0.132829 -0.324549 0.330264
v -0.132829 -0.463024 0.004040
v 0.132829 -0.463024 0.004042
v -0.132829 -0.330265 -0.324549
v 0.132829 -0.330265 -0.324549
v -0.132829 -0.004041 -0.463023
v 0.132829 -0.004041 -0.463023
v -0.132829 0.324551 -0.330265
v 0.132829 0.324551 -0.330265
v -0.132829 0.463023 -0.004040
v 0.132829 0.463023 -0.004040
vt 0.932570 0.650000 1.000000
vt 0.932570 0.600000 1.000000
vt 0.895141 0.600000 1.000000
vt 0.895141 0.650000 1.000000
vt 0.970000 0.650000 1.000000
vt 0.970000 0.600000 1.000000
vt 0.707993 0.650000 1.000000
vt 0.707993 0.600000 1.000000
vt 0.670563 0.600000 1.000000
vt 0.670563 0.650000 1.000000
vt 0.745422 0.650000 1.000000
vt 0.745422 0.600000 1.000000
vt 0.782852 0.650000 1.000000
vt 0.782852 0.600000 1.000000
vt 0.820281 0.650000 1.000000
vt 0.820281 0.600000 1.000000
vt 0.857711 0.650000 1.000000
vt 0.857711 0.600000 1.000000
vt 0.820281 0.680281 -0.250000
vt 0.926148 0.724133 -0.250000
vt 0.970000 0.830000 -0.250000
vt 0.820281 0.979719 -0.250000
vt 0.926148 0.935867 -0.250000
vt 0.714415 0.935867 -0.250000
vt 0.670563 0.830000 -0.250000
vt 0.714415 0.724133 -0.250000
vt 0.714415 0.724133 0.250000
vt 0.670563 0.830000 0.250000
vt 0.714415 0.935867 0.250000
vt 0.926148 0.935867 0.250000
vt 0.820281 0.979719 0.250000
vt 0.970000 0.830000 0.250000
vt 0.926148 0.724133 0.250000
vt 0.820281 0.680281 0.250000
vt 0.705458 0.544069 0.000000
vt 0.842015 0.415941 0.000000
vt 0.705458 0.412713 0.000000
vt 0.410723 0.543647 0.000000
vt 0.418001 0.406226 0.000000
vt 0.251183 0.543466 0.000000
vt 0.272423 0.347272 0.000000
vt 0.008127 0.543647 0.000000
vt 0.010791 0.359504 0.000000
vt 0.010761 0.582209 0.000000
vt 0.008127 0.665302 0.000000
vt 0.178040 0.665218 0.000000
vt 0.017280 0.582209 0.000000
vt 0.398664 0.730998 0.000000
vt 0.213956 0.622825 0.000000
vt 0.213956 0.731044 0.000000
vt 0.389255 0.622861 0.000000
vt 0.392702 0.213797 0.000000
vt 0.305327 0.213983 0.000000
vt 0.421955 0.332231 0.000000
vt 0.702786 0.329428 0.000000
vt 0.981067 0.176474 0.000000
vt 0.903017 0.189166 0.000000
vt 0.839343 0.317339 0.000000
vt 0.214916 0.127596 0.000000
vt 0.008127 0.176318 0.000000
vt 0.013815 0.068181 0.000000
vt 0.112739 0.095564 0.000000
vt 0.731649 0.207636 0.000000
vt 0.288738 0.014222 0.000000
vt 0.979966 0.094769 0.000000
vt 0.213956 0.585179 0.000000
vt 0.255522 0.098980 0.000000
vt 0.274318 0.049211 0.000000
vt 0.151933 0.125701 0.000000
vt 0.392526 0.012411 0.000000
vt 0.667319 0.012043 0.000000
vt 0.383894 0.584826 0.000000
vt 0.792718 0.114225 0.000000
vt 0.750529 0.079542 0.000000
vt 0.092000 0.029481 0.000000
vt 0.046405 0.030146 0.000000
vt 0.176400 0.130054 0.000000
vt 0.904587 0.079542 0.000000
vt 0.860713 0.114065 0.000000
vt 0.736765 0.011950 0.000000
vt 0.097472 0.065522 0.000000
vt 0.842015 0.544069 0.000000
vt 0.275135 0.014460 0.000000
vt 0.921630 0.011703 0.000000
vt 0.917259 0.011709 0.000000
vt 0.012922 0.747006 0.000000
vt 0.178040 0.746924 0.000000
vt 0.988519 0.544069 0.000000
vt 0.983739 0.378951 0.000000
vt 0.178040 0.582209 0.000000
vt 0.941469 0.011676 0.000000
vt 0.835118 0.080003 0.000000
vt 0.846846 0.071738 0.000000
vt 0.852274 0.057364 0.000000
vt 0.801198 0.062075 0.000000
vt 0.852510 0.047327 0.000000
vt 0.799617 0.051665 0.000000
vt 0.805607 0.070752 0.000000
vt 0.816927 0.079456 0.000000
vt 0.823994 0.080713 0.000000
vt 0.816442 0.081329 0.000000
vt 0.836600 0.081282 0.000000
vt 0.849608 0.071047 0.000000
vt 0.799854 0.051008 0.000000
vt 0.853364 0.050937 0.000000
vt 0.803934 0.071047 0.000000
vt 0.833698 0.066537 0.000000
vt 0.846419 0.070678 0.000000
vt 0.851301 0.057751 0.000000
vt 0.835108 0.062804 0.000000
vt 0.830651 0.068684 0.000000
vt 0.835872 0.078111 0.000000
vt 0.827762 0.068868 0.000000
vt 0.825868 0.078749 0.000000
vt 0.825927 0.068542 0.000000
vt 0.819513 0.077619 0.000000
vt 0.822986 0.066281 0.000000
vt 0.809332 0.069791 0.000000
vt 0.821841 0.064027 0.000000
vt 0.805367 0.061988 0.000000
vt 0.821431 0.061324 0.000000
vt 0.803946 0.052627 0.000000
vt 0.851513 0.048725 0.000000
vt 0.835169 0.060197 0.000000
vt 0.822552 0.066358 0.000000
vt 0.808680 0.068564 0.000000
vt 0.819639 0.077573 0.000000
vt 0.825801 0.069029 0.000000
vt 0.821492 0.061153 0.000000
vt 0.805105 0.051008 0.000000
vt 0.834415 0.066358 0.000000
vt 0.848695 0.068564 0.000000
vt 0.851987 0.050945 0.000000
vt 0.835391 0.061134 0.000000
vt 0.831036 0.069016 0.000000
vt 0.837299 0.077531 0.000000
vt 0.393922 0.881402 0.000000
vt 0.389854 0.880982 0.000000
vt 0.390769 0.907018 0.000000
vt 0.526842 0.907110 0.000000
vt 0.335090 0.883968 0.000000
vt 0.321456 0.886362 0.000000
vt 0.318923 0.936672 0.000000
vt 0.336005 0.910005 0.000000
vt 0.390769 0.966326 0.000000
vt 0.321456 0.986981 0.000000
vt 0.335090 0.989375 0.000000
vt 0.336005 0.963338 0.000000
vt 0.389854 0.992362 0.000000
vt 0.393922 0.991942 0.000000
vt 0.507131 0.992567 0.000000
vt 0.424958 0.993058 0.000000
vt 0.527897 0.992518 0.000000
vt 0.526841 0.966234 0.000000
vt 0.580815 0.964265 0.000000
vt 0.581871 0.990550 0.000000
vt 0.583179 0.990168 0.000000
vt 0.589166 0.984265 0.000000
vt 0.589111 0.986194 0.000000
vt 0.589167 0.936673 0.000000
vt 0.589167 0.889081 0.000000
vt 0.589111 0.887151 0.000000
vt 0.580815 0.909080 0.000000
vt 0.583179 0.883177 0.000000
vt 0.581872 0.882796 0.000000
vt 0.527898 0.880826 0.000000
vt 0.507131 0.880778 0.000000
vt 0.424958 0.880286 0.000000
vt 0.150000 0.046207 0.000000
vt 0.150000 0.010000 0.000000
vt 0.113793 0.010000 0.000000
vt 0.113793 0.046207 0.000000
vt 0.250000 0.085000 0.000000
vt 0.250000 0.010000 0.000000
vt 0.237421 0.010000 0.000000
vt 0.150000 0.085000 0.000000
vt 0.118801 0.010000 0.000000
vt 0.147921 0.009682 0.000000
vt 0.114439 0.009524 0.000000
vt 0.115539 0.045413 0.000000
vt 0.118347 0.010000 0.000000
vt 0.118801 0.046207 0.000000
vt 0.116070 0.010000 0.000000
vt 0.116297 0.046207 0.000000
vt 0.431489 0.779326 0.000000
vt 0.486490 0.595333 0.000000
vt 0.473903 0.777663 0.000000
vt 0.432089 0.596304 0.000000
vt 0.473906 0.777741 0.000000
vt 0.432427 0.596306 0.000000
vt 0.474811 0.593813 0.000000
vt 0.010000 0.820000 0.000000
vt 0.192857 0.777553 0.000000
vt 0.010000 0.777553 0.000000
vt 0.192857 0.820000 0.000000
vt 0.474407 0.576248 0.000000
vt 0.444369 0.579126 0.000000
vt 0.206261 0.777553 0.000000
vt 0.572341 0.584825 0.000000
vt 0.591635 0.563571 0.000000
vt 0.474659 0.573012 0.000000
vt 0.209580 0.820000 0.000000
vt 0.240076 0.820000 0.000000
vt 0.346543 0.777553 0.000000
vt 0.248396 0.777553 0.000000
vt 0.357324 0.820000 0.000000
vt 0.572281 0.567340 0.000000
vt 0.378118 0.777553 0.000000
vt 0.360644 0.777553 0.000000
vt 0.378117 0.820000 0.000000
vt 0.591788 0.584373 0.000000
vt 0.217899 0.777553 0.000000
vt 0.444129 0.582418 0.000000
vt 0.010000 0.870000 0.000000
vt 0.010000 0.827553 0.000000
vt 0.192857 0.827553 0.000000
vt 0.192857 0.870000 0.000000
vt 0.206261 0.827553 0.000000
vt 0.209580 0.870000 0.000000
vt 0.240076 0.870000 0.000000
vt 0.248396 0.827553 0.000000
vt 0.346543 0.827553 0.000000
vt 0.357324 0.870000 0.000000
vt 0.360644 0.827553 0.000000
vt 0.378118 0.827553 0.000000
vt 0.378117 0.870000 0.000000
vt 0.217899 0.827553 0.000000
vn 0.000000 0.920505 0.390731
vn -0.000000 0.374607 0.927184
vn -0.000000 -0.390731 0.920505
vn 0.000000 -0.927184 0.374606
vn 0.000000 -0.920505 -0.390731
vn 0.000001 -0.374607 -0.927184
vn 0.000001 0.390731 -0.920505
vn 0.000001 0.927184 -0.374606
vn 1.000000 0.000000 0.000000
vn 1.000000 0.000001 -0.000001
vn 1.000000 0.000003 -0.000002
vn -1.000000 -0.000000 -0.000000
vn -1.000000 0.000001 -0.000000
vn -1.000000 0.000000 -0.000000
vn -0.000001 0.390731 0.920505
vn -0.000001 -0.374607 0.927184
vn -0.000000 -0.920505 0.390731
vn 0.000000 -0.927184 -0.374607
vn 0.000001 -0.390731 -0.920505
vn 0.000000 0.374606 -0.927184
vn -0.000000 0.920505 -0.390731
vn -0.000000 0.927184 0.374606
vn 1.000000 0.000001 0.000000
vn -1.000000 0.000001 0.000000
vn -1.000000 0.000001 0.000001
vn -0.021914 0.996895 -0.075633
vn -0.021099 0.999773 0.002937
vn -0.074270 0.723764 0.686039
vn -0.002056 0.990433 0.137979
vn -0.015907 0.989018 0.146938
vn -0.025716 -0.409004 -0.912170
vn -0.014441 -0.056545 0.998296
vn -0.020800 -0.067381 0.997510
vn -0.890464 0.454996 0.007283
vn -0.892934 0.449781 -0.019135
vn -0.847437 0.476720 -0.233643
vn -0.990175 0.127122 0.058262
vn -0.974812 -0.098050 0.200321
vn -0.895250 0.442224 -0.054457
vn -0.998717 -0.050626 -0.000809
vn -0.978869 0.057368 -0.196275
vn -0.016879 -0.604038 0.796777
vn -0.981462 -0.052652 -0.184283
vn -0.993999 0.033148 0.104250
vn -0.999980 0.001962 -0.006017
vn -0.021977 0.999753 0.003338
vn -0.036338 -0.663020 0.747719
vn -0.051134 0.736859 0.674110
vn -0.903699 0.420338 -0.081513
vn -0.992932 0.055039 0.105150
vn -0.944485 -0.282398 0.167929
vn -0.984259 0.165810 -0.061170
vn -0.927489 0.373846 -0.001944
vn -0.973656 0.101733 -0.204071
vn -0.868230 -0.016824 0.495877
vn -0.963031 -0.065011 -0.261430
vn -0.961991 -0.219952 0.161843
vn -0.980579 0.191443 -0.042598
vn -0.996967 -0.008917 -0.077316
vn -0.022467 0.996922 -0.075117
vn -0.899256 0.436683 -0.025435
vn -0.999187 -0.031117 -0.025635
vn -0.985260 -0.137152 -0.102237
vn -0.950171 -0.267065 0.160785
vn -0.998829 -0.031864 0.036400
vn -0.984077 0.168169 0.057551
vn -0.999992 0.003128 -0.002307
vn -0.963515 0.101922 -0.247490
vn -0.956681 -0.069875 -0.282629
vn -0.028527 0.000459 -0.999593
vn -0.018285 0.728726 -0.684561
vn 0.000000 -0.449086 -0.893489
vn -0.796521 -0.267699 -0.542118
vn -0.988398 -0.148576 0.031542
vn -0.974714 -0.216763 0.054287
vn -0.973058 -0.228196 -0.032923
vn -0.999331 -0.030713 0.019872
vn -0.991279 -0.125249 -0.040973
vn -0.991615 -0.123514 -0.037997
vn -0.988835 -0.137436 -0.057591
vn 0.097187 -0.353040 0.930547
vn 0.171538 -0.805907 0.566647
vn 0.188033 -0.981072 0.046267
vn 0.177499 -0.965715 -0.189441
vn 0.127005 -0.773468 -0.620980
vn 0.052151 -0.427608 -0.902459
vn -0.005596 -0.138816 -0.990302
vn 0.038181 -0.031117 0.998786
vn 0.122276 -0.754792 -0.644466
vn 0.063292 -0.178509 -0.981901
vn -0.015488 -0.198418 0.979995
vn 0.074275 -0.787046 0.612407
vn 0.125813 -0.992042 -0.004927
vn -0.189806 -0.981809 0.004905
vn -0.068821 -0.972844 -0.220994
vn 0.058075 -0.998276 0.008468
vn 0.068822 -0.972844 -0.220994
vn -0.226976 -0.970664 0.079329
vn 0.191247 -0.981516 -0.007136
vn 0.355705 -0.934556 -0.008835
vn 0.135972 -0.990710 0.002259
vn 0.010106 -0.999949 -0.000163
vn 0.118077 -0.988813 0.091138
vn 0.000001 -0.999931 -0.011752
vn 0.000000 -0.999931 -0.011750
vn -0.000135 -0.931170 0.364586
vn -0.121011 -0.990720 0.061890
vn -0.010842 -0.999941 -0.000155
vn -0.128147 -0.991719 -0.008509
vn -0.355704 -0.934557 -0.008835
vn -0.129243 0.991528 0.012980
vn 0.227827 0.043033 -0.972750
vn -0.227826 -0.043032 0.972750
vn -0.227827 -0.043034 0.972750
vn -0.991274 -0.131810 -0.001726
vn 0.991273 0.131811 0.001726
vn 0.129243 -0.991528 -0.012980
vn 0.996215 -0.086543 0.008058
vn 0.224562 0.067473 -0.972121
vn -0.854891 -0.517776 -0.032709
vn -0.224563 -0.067475 0.972121
vn 0.000000 -0.999914 -0.013090
vn -0.000000 0.999914 0.013090
vn -0.000000 0.999914 0.013089
vn -0.026329 -0.143060 0.989364
vn -0.026329 -0.143061 0.989364
vn 0.000001 -0.999914 -0.013090
vn -0.502655 -0.123716 0.855589
vn 0.000001 -0.999914 -0.013089
vn 0.000000 0.999914 0.013090
vn -0.420363 -0.165149 0.892200
vn -0.992016 -0.096949 0.080657
vn -0.994945 -0.074067 0.067810
vn 0.022000 -0.159959 -0.986878
vn 0.018488 -0.161803 -0.986650
vn -0.000001 0.999914 0.013090
vn -0.961075 -0.118703 0.249490
vn -0.000002 -0.999914 -0.013088
vn -0.961074 -0.118702 0.249492
vn 0.000000 -0.999914 -0.013089
vn -0.028438 -0.123392 -0.991950
vn -0.502338 -0.106736 -0.858058
vn -0.419979 -0.147382 -0.895486
vn -0.969915 -0.110118 -0.217114
vn -0.987735 -0.058233 -0.144876
vn -0.000000 -0.999914 -0.013090
vn 0.022023 -0.179647 0.983485
vn 0.018509 -0.181490 0.983219
vn -0.000001 0.999914 0.013089
vn -0.960893 -0.113748 -0.252481
vn -0.000001 -0.999914 -0.013090
vn -0.960891 -0.113745 -0.252488
vn -0.000000 0.920505 0.390731
vn -0.000000 -0.927184 0.374606
vn -0.000000 -0.920505 -0.390731
vn -0.000001 -0.374607 -0.927184
vn -0.000001 0.390731 -0.920505
vn -0.000000 0.927184 -0.374606
vn -1.000000 -0.000000 -0.000001
vn 1.000000 0.000000 -0.000001
vn 1.000000 -0.000000 -0.000002
vn 0.000000 0.390731 0.920505
vn 0.000001 -0.374607 0.927184
vn 0.000000 -0.920505 0.390731
vn -0.000000 -0.927184 -0.374607
vn -0.000000 -0.390731 -0.920505
vn 0.000000 0.920505 -0.390731
vn 0.000000 0.927184 0.374606
vn 1.000000 0.000000 0.000001
vn 1.000000 0.000001 -0.000000
vn 0.021914 0.996895 -0.075633
vn 0.021099 0.999773 0.002937
vn 0.074270 0.723764 0.686039
vn 0.002056 0.990433 0.137979
vn 0.015907 0.989018 0.146938
vn 0.025717 -0.409004 -0.912170
vn 0.014441 -0.056545 0.998296
vn 0.020799 -0.067381 0.997510
vn 0.890464 0.454996 0.007284
vn 0.892934 0.449781 -0.019135
vn 0.847437 0.476720 -0.233643
vn 0.990175 0.127122 0.058262
vn 0.974812 -0.098050 0.200321
vn 0.895250 0.442224 -0.054457
vn 0.998717 -0.050626 -0.000809
vn 0.978869 0.057368 -0.196275
vn 0.016878 -0.604038 0.796777
vn 0.981462 -0.052652 -0.184283
vn 0.993999 0.033148 0.104251
vn 0.999980 0.001962 -0.006016
vn 0.021977 0.999753 0.003338
vn 0.036338 -0.663020 0.747719
vn 0.051134 0.736859 0.674110
vn 0.903699 0.420338 -0.081513
vn 0.992932 0.055039 0.105150
vn 0.944485 -0.282398 0.167930
vn 0.984259 0.165810 -0.061170
vn 0.927489 0.373846 -0.001944
vn 0.973656 0.101733 -0.204071
vn 0.868229 -0.016824 0.495878
vn 0.963031 -0.065011 -0.261429
vn 0.961991 -0.219952 0.161844
vn 0.980579 0.191443 -0.042598
vn 0.996967 -0.008917 -0.077315
vn 0.022467 0.996922 -0.075117
vn 0.899256 0.436683 -0.025434
vn 0.999187 -0.031117 -0.025634
vn 0.985260 -0.137152 -0.102237
vn 0.950171 -0.267065 0.160786
vn 0.998829 -0.031864 0.036400
vn 0.984077 0.168169 0.057551
vn 0.999992 0.003128 -0.002307
vn 0.963515 0.101922 -0.247490
vn 0.956681 -0.069876 -0.282629
vn 0.028528 0.000459 -0.999593
vn 0.018286 0.728726 -0.684561
vn 0.796521 -0.267700 -0.542118
vn 0.983425 -0.180845 0.013050
vn 0.885979 -0.395199 -0.242607
vn 0.974714 -0.216763 0.054288
vn 0.988398 -0.148576 0.031543
vn 0.990631 -0.129724 -0.042680
vn 0.991615 -0.123515 -0.037997
vn 0.993127 -0.107457 -0.046380
vn -0.097187 -0.353040 0.930547
vn -0.171538 -0.805907 0.566647
vn -0.188033 -0.981072 0.046267
vn -0.177499 -0.965715 -0.189441
vn -0.127005 -0.773468 -0.620980
vn -0.052151 -0.427608 -0.902459
vn 0.005597 -0.138816 -0.990302
vn -0.038182 -0.031116 0.998786
vn -0.122276 -0.754792 -0.644466
vn -0.063292 -0.178509 -0.981901
vn 0.015487 -0.198418 0.979995
vn -0.074275 -0.787046 0.612407
vn -0.125813 -0.992042 -0.004927
vn 0.129243 0.991528 0.012980
vn -0.227827 0.043033 -0.972750
vn -0.227822 0.043033 -0.972752
vn 0.227826 -0.043034 0.972750
vn 0.227826 -0.043033 0.972751
vn 0.991274 -0.131810 -0.001725
vn -0.991273 0.131811 0.001725
vn -0.129243 -0.991528 -0.012980
vn -0.996216 -0.086543 0.008057
vn -0.224561 0.067473 -0.972121
vn 0.854891 -0.517776 -0.032709
vn 0.224563 -0.067475 0.972121
vn 0.000000 0.999914 0.013089
vn 0.026329 -0.143060 0.989364
vn 0.026329 -0.143061 0.989364
vn 0.502655 -0.123716 0.855589
vn -0.000001 -0.999914 -0.013089
vn 0.420363 -0.165149 0.892200
vn 0.992016 -0.096949 0.080658
vn 0.994945 -0.074067 0.067810
vn -0.022000 -0.159959 -0.986878
vn -0.018487 -0.161803 -0.986650
vn 0.000001 0.999914 0.013090
vn 0.961075 -0.118703 0.249490
vn 0.000002 -0.999914 -0.013088
vn 0.961074 -0.118702 0.249492
vn -0.000000 -0.999914 -0.013089
vn 0.028438 -0.123392 -0.991950
vn 0.502338 -0.106736 -0.858058
vn 0.419979 -0.147382 -0.895486
vn 0.969915 -0.110118 -0.217114
vn 0.987735 -0.058233 -0.144876
vn -0.022024 -0.179647 0.983485
vn -0.018509 -0.181490 0.983219
vn 0.000001 0.999914 0.013089
vn 0.960893 -0.113748 -0.252481
vn 0.960891 -0.113745 -0.252488
usemtl vehicle_mat
s off
f 1/1/15 2/2/15 3/3/15 4/4/15
f 5/5/16 6/6/16 2/2/16 1/1/16
f 7/7/17 8/8/17 6/9/17 5/10/17
f 9/11/18 10/12/18 8/8/18 7/7/18
f 11/13/19 12/14/19 10/12/19 9/11/19
f 13/15/20 14/16/20 12/14/20 11/13/20
f 15/17/21 16/18/21 14/16/21 13/15/21
f 4/4/22 3/3/22 16/18/22 15/17/22
f 10/19/9 12/20/9 14/21/9 3/22/9
f 14/21/23 16/23/23 3/22/23
f 3/22/9 2/24/9 6/25/9 10/19/9
f 10/19/23 6/25/23 8/26/23
f 7/27/14 5/28/14 1/29/14 15/30/14
f 1/29/24 4/31/24 15/30/24
f 15/30/14 13/32/14 11/33/14 7/27/14
f 7/27/25 11/33/25 9/34/25
