# Split generated for Godot wheel animation
mtllib car_04.mtl
g wheel_front_right
v -0.195165 0.524062 0.004573
v -0.195165 0.367335 0.373803
v 0.195165 0.367335 0.373803
v 0.195164 0.524062 0.004573
v -0.195165 -0.004574 0.524061
v 0.195165 -0.004574 0.524062
v -0.195165 -0.373802 0.367334
v 0.195165 -0.373802 0.367334
v -0.195165 -0.524062 -0.004574
v 0.195165 -0.524062 -0.004574
v -0.195165 -0.367333 -0.373802
v 0.195165 -0.367335 -0.373803
v -0.195165 0.004574 -0.524062
v 0.195165 0.004574 -0.524063
v -0.195164 0.373803 -0.367334
v 0.195165 0.373803 -0.367335
vt 0.666848 0.336596 0.000000
vt 0.250021 0.338901 0.000000
vt 0.303096 0.201663 0.000000
vt 0.988895 0.201663 0.000000
vt 0.965187 0.339831 0.000000
vt 0.885941 0.201663 0.000000
vt 0.176007 0.120999 0.000000
vt 0.176637 0.201663 0.000000
vt 0.043604 0.200283 0.000000
vt 0.022339 0.085564 0.000000
vt 0.058173 0.085288 0.000000
vt 0.669314 0.201663 0.000000
vt 0.930047 0.029871 0.000000
vt 0.980654 0.029908 0.000000
vt 0.988899 0.106240 0.000000
vt 0.103548 0.119942 0.000000
vt 0.366339 0.014625 0.000000
vt 0.665060 0.014625 0.000000
vt 0.140721 0.126724 0.000000
vt 0.046095 0.054116 0.000000
vt 0.220144 0.088054 0.000000
vt 0.246574 0.014626 0.000000
vt 0.728111 0.014625 0.000000
vt 0.165593 0.262889 0.000000
vt 0.197295 0.240295 0.000000
vt 0.941204 0.390458 0.000000
vt 0.666939 0.393541 0.000000
vt 0.314288 0.390151 0.000000
vt 0.087325 0.230349 0.000000
vt 0.831680 0.124800 0.000000
vt 0.866967 0.119075 0.000000
vt 0.794507 0.118018 0.000000
vt 0.749132 0.083364 0.000000
vt 0.737054 0.052192 0.000000
vt 0.911103 0.086130 0.000000
vt 0.754174 0.926944 0.000000
vt 0.732779 0.788775 0.000000
vt 0.949867 0.788778 0.000000
vt 0.949865 0.926946 0.000000
vt 0.733273 0.693352 0.000000
vt 0.949868 0.693355 0.000000
vt 0.745660 0.617021 0.000000
vt 0.949868 0.617023 0.000000
vt 0.693286 0.617021 0.000000
vt 0.699317 0.686138 0.000000
vt 0.496205 0.686138 0.000000
vt 0.496205 0.617021 0.000000
vt 0.165593 0.392285 0.000000
vt 0.250021 0.396126 0.000000
vt 0.247212 0.599879 0.000000
vt 0.162785 0.599879 0.000000
vt 0.776719 0.977571 0.000000
vt 0.949865 0.977573 0.000000
vt 0.314288 0.410404 0.000000
vt 0.311479 0.599879 0.000000
vt 0.087325 0.394228 0.000000
vt 0.084517 0.599879 0.000000
vt 0.043604 0.395956 0.000000
vt 0.024793 0.599879 0.000000
vt 0.851967 0.023838 0.000000
vt 0.877229 0.025027 0.000000
vt 0.880405 0.066421 0.000000
vt 0.855143 0.065231 0.000000
vt 0.811733 0.023322 0.000000
vt 0.831305 0.023295 0.000000
vt 0.834481 0.064689 0.000000
vt 0.814909 0.064715 0.000000
vt 0.814971 0.022586 0.000000
vt 0.832213 0.026796 0.000000
vt 0.832213 0.068311 0.000000
vt 0.814971 0.064101 0.000000
vt 0.787392 0.025189 0.000000
vt 0.790568 0.066583 0.000000
vt 0.852991 0.033414 0.000000
vt 0.852991 0.074930 0.000000
vt 0.857373 0.022674 0.000000
vt 0.860180 0.063286 0.000000
vt 0.818665 0.063286 0.000000
vt 0.815858 0.022674 0.000000
vt 0.856725 0.070491 0.000000
vt 0.881822 0.070491 0.000000
vt 0.881822 0.028976 0.000000
vt 0.856725 0.028976 0.000000
vt 0.816648 0.070491 0.000000
vt 0.836165 0.070491 0.000000
vt 0.836165 0.028976 0.000000
vt 0.816648 0.028976 0.000000
vt 0.809829 0.026270 0.000000
vt 0.809829 0.043511 0.000000
vt 0.851345 0.043511 0.000000
vt 0.851345 0.026270 0.000000
vt 0.792236 0.068559 0.000000
vt 0.792236 0.027044 0.000000
vt 0.812636 0.064289 0.000000
vt 0.854152 0.064289 0.000000
vt 0.846018 0.064678 0.000000
vt 0.852862 0.033561 0.000000
vt 0.811346 0.033561 0.000000
vt 0.804503 0.064678 0.000000
vt 0.666939 0.410404 0.000000
vt 0.949868 0.599879 0.000000
vt 0.941204 0.426734 0.000000
vt 0.010000 0.016447 0.000000
vt 0.039362 0.016549 0.000000
vt 0.873594 0.059747 0.000000
vt 0.849183 0.077969 0.000000
vt 0.829666 0.081136 0.000000
vt 0.809105 0.077385 0.000000
vt 0.784009 0.058218 0.000000
vt 0.777328 0.040977 0.000000
vt 0.773604 0.020199 0.000000
vt 0.888213 0.019135 0.000000
vt 0.780958 0.053520 0.000000
vt 0.803904 0.073556 0.000000
vt 0.823121 0.078206 0.000000
vt 0.843908 0.076039 0.000000
vt 0.870398 0.058848 0.000000
vt 0.878378 0.042169 0.000000
vt 0.884899 0.021830 0.000000
vt 0.772891 0.021693 0.000000
vt 0.676834 0.769449 0.000000
vt 0.700129 0.800856 0.000000
vt 0.496205 0.800856 0.000000
vt 0.609131 0.769446 0.000000
vt 0.676833 0.715546 0.000000
vt 0.609897 0.715929 0.000000
vt 0.671771 0.724178 0.000000
vt 0.671771 0.763084 0.000000
vt 0.621972 0.763084 0.000000
vt 0.621972 0.724178 0.000000
vt 0.610092 0.715934 0.000000
vt 0.676800 0.715552 0.000000
vt 0.676800 0.769267 0.000000
vt 0.609328 0.769267 0.000000
vt 0.845149 0.788777 0.000000
vt 0.845186 0.739367 0.000000
vt 0.375761 0.788777 0.000000
vt 0.480480 0.693355 0.000000
vt 0.375798 0.739367 0.000000
vt 0.480479 0.788778 0.000000
vt 0.171927 0.063233 0.000000
vt 0.171927 0.073315 0.000000
vt 0.163458 0.074329 0.000000
vt 0.123333 0.074329 0.000000
vt 0.107246 0.074329 0.000000
vt 0.107246 0.064247 0.000000
vt 0.199052 0.061784 0.000000
vt 0.079413 0.060669 0.000000
vt 0.079413 0.070751 0.000000
vt 0.075469 0.069698 0.000000
vt 0.072943 0.043226 0.000000
vt 0.075469 0.016754 0.000000
vt 0.079413 0.015701 0.000000
vt 0.079413 0.025783 0.000000
vt 0.107246 0.022205 0.000000
vt 0.107246 0.012123 0.000000
vt 0.123333 0.012123 0.000000
vt 0.163458 0.012123 0.000000
vt 0.171927 0.013137 0.000000
vt 0.171927 0.023219 0.000000
vt 0.199052 0.024669 0.000000
vt 0.199052 0.014586 0.000000
vt 0.205850 0.015796 0.000000
vt 0.199052 0.071866 0.000000
vt 0.207013 0.043226 0.000000
vt 0.205850 0.070656 0.000000
vt 0.094859 0.665895 1.000000
vt 0.057429 0.665895 1.000000
vt 0.057430 0.615895 1.000000
vt 0.094859 0.615895 1.000000
vt 0.020000 0.665894 1.000000
vt 0.020000 0.615894 1.000000
vt 0.319437 0.665897 1.000000
vt 0.282007 0.665896 1.000000
vt 0.282007 0.615896 1.000000
vt 0.319437 0.615897 1.000000
vt 0.244578 0.665896 1.000000
vt 0.244578 0.615896 1.000000
vt 0.207148 0.665896 1.000000
vt 0.207148 0.615896 1.000000
vt 0.169718 0.665896 1.000000
vt 0.169719 0.615896 1.000000
vt 0.132289 0.665895 1.000000
vt 0.132289 0.615895 1.000000
vt 0.309437 0.830000 -0.250000
vt 0.265585 0.724133 -0.250000
vt 0.159718 0.680281 -0.250000
vt 0.159718 0.979719 -0.250000
vt 0.053852 0.724133 -0.250000
vt 0.010000 0.830000 -0.250000
vt 0.053852 0.935867 -0.250000
vt 0.265585 0.935867 -0.250000
vt 0.053852 0.935867 0.250000
vt 0.010000 0.830000 0.250000
vt 0.053852 0.724133 0.250000
vt 0.265585 0.935867 0.250000
vt 0.159718 0.680281 0.250000
vt 0.265585 0.724133 0.250000
vt 0.309437 0.830000 0.250000
vt 0.159718 0.979719 0.250000
vt 0.693313 0.820324 0.000000
vt 0.710910 0.820324 0.000000
vt 0.710910 0.866926 0.000000
vt 0.693313 0.866926 0.000000
vt 0.334174 0.935079 0.000000
vt 0.332669 0.870137 0.000000
vt 0.350148 0.872170 0.000000
vt 0.350645 0.945779 0.000000
vt 0.710910 0.820323 0.000000
vt 0.637851 0.820323 0.000000
vt 0.637851 0.866926 0.000000
vt 0.490488 0.979516 0.000000
vt 0.416880 0.978880 0.000000
vt 0.414880 0.961397 0.000000
vt 0.479819 0.963025 0.000000
vt 0.628979 0.866926 0.000000
vt 0.628979 0.820324 0.000000
vt 0.336456 0.716796 0.000000
vt 0.353935 0.718830 0.000000
vt 0.263532 0.982376 0.000000
vt 0.261532 0.964893 0.000000
vt 0.476228 0.866926 0.000000
vt 0.476228 0.820324 0.000000
vt 0.486588 0.879526 0.000000
vt 0.503438 0.881486 0.000000
vt 0.512293 0.929276 0.000000
vt 0.485233 0.926129 0.000000
vt 0.988674 0.370520 0.000000
vt 0.990789 0.436218 0.000000
vt 0.963802 0.436218 0.000000
vt 0.971710 0.370520 0.000000
vt 0.519675 0.882829 0.000000
vt 0.585373 0.882829 0.000000
vt 0.585373 0.929276 0.000000
vt 0.511824 0.955925 0.000000
vt 0.584905 0.948017 0.000000
vt 0.584905 0.985283 0.000000
vt 0.511824 0.983168 0.000000
vt 0.988673 0.562201 0.000000
vt 0.961685 0.562201 0.000000
vt 0.711356 0.882829 0.000000
vt 0.711356 0.929276 0.000000
vt 0.710888 0.945901 0.000000
vt 0.710888 0.983167 0.000000
vt 0.186315 0.325855 0.000000
vt 0.186315 0.362062 0.000000
vt 0.150108 0.362062 0.000000
vt 0.150108 0.325855 0.000000
vt 0.025652 0.289196 0.000000
vt 0.125652 0.289196 0.000000
vt 0.125652 0.364196 0.000000
vt 0.025652 0.364196 0.000000
vn 0.978430 0.205778 0.018166
vn 0.978634 0.171110 -0.114006
vn 0.977052 0.149182 0.152035
vn 0.855633 0.088475 0.509964
vn 0.982233 0.180414 -0.051662
vn 0.969148 -0.175919 -0.172644
vn 0.993270 -0.005126 -0.115711
vn 0.962818 0.143242 0.229050
vn 0.999632 -0.027123 -0.000000
vn 0.975736 0.216292 -0.034008
vn 0.930564 0.365972 0.010737
vn 0.858611 -0.011078 0.512508
vn 0.982797 0.148004 -0.110473
vn 0.983708 0.179591 0.008138
vn 0.999872 -0.013730 0.008271
vn 0.999940 -0.010934 -0.000000
vn 0.967345 0.212236 0.138560
vn 0.992470 -0.029632 -0.118847
vn 0.945704 0.261775 0.192662
vn 0.995468 -0.037319 -0.087473
vn 0.994233 0.079263 0.072241
vn 0.904537 0.424037 -0.044779
vn 0.928412 0.366773 -0.059400
vn 0.929889 0.367478 0.016314
vn 0.962459 0.271414 0.002608
vn 0.974581 0.164753 0.151816
vn 0.999091 -0.024578 -0.034822
vn 1.000000 0.000005 -0.000000
vn 0.994778 -0.022848 -0.099469
vn 0.997413 -0.070718 -0.012902
vn 0.998599 -0.042059 -0.032121
vn 0.997930 -0.023236 -0.059957
vn 0.987152 -0.104603 0.120786
vn 0.993757 0.036088 -0.105568
vn 0.974556 -0.162271 -0.154623
vn 0.987078 0.143290 0.071722
vn 0.979837 0.192702 0.052769
vn 0.039265 0.174888 -0.983805
vn 0.043595 0.168954 -0.984659
vn 0.039969 -0.000160 -0.999201
vn 0.039879 0.000046 -0.999205
vn 0.042112 -0.114051 -0.992582
vn 0.039739 -0.107311 -0.993431
vn 0.090919 0.167322 0.981701
vn 0.093549 0.174971 0.980119
vn 0.009220 0.743351 0.668838
vn 0.009052 0.743143 0.669071
vn 0.039673 0.442143 -0.896067
vn 0.045176 0.427669 -0.902806
vn 0.009223 0.782805 0.622199
vn 0.008594 0.781811 0.623456
vn 0.005195 0.923321 0.383993
vn 0.005243 0.923367 0.383882
vn 0.007741 0.823800 0.566827
vn 0.041443 0.892429 0.449280
vn 0.972498 0.181464 0.146011
vn 0.937476 0.312520 0.153197
vn 0.000000 -0.794730 -0.606963
vn -0.000000 -0.794730 -0.606963
vn 0.000000 -0.987090 0.160165
vn -0.000000 -0.361299 -0.932450
vn 0.000000 -0.361299 -0.932450
vn 0.000001 -0.801371 0.598167
vn 0.000000 -0.801372 0.598167
vn 0.000000 -0.176413 -0.984316
vn -0.000000 -0.176413 -0.984316
vn -0.000000 -0.983762 -0.179480
vn 0.000001 -0.338667 0.940906
vn 0.000000 -0.338667 0.940906
vn 0.000000 -0.361301 -0.932449
vn 0.000000 -0.361300 -0.932450
vn 0.000000 -0.801371 0.598167
vn 0.000000 -0.231594 -0.972813
vn 0.000000 -0.231595 -0.972812
vn 0.000000 -0.983762 -0.179480
vn 0.000000 -0.319111 0.947717
vn 0.000142 0.999954 0.009611
vn -0.016984 0.999856 0.000481
vn 0.000565 0.999936 -0.011272
vn 0.934890 -0.253205 0.248734
vn 0.871547 0.011455 0.490179
vn 0.987293 -0.127346 0.095057
vn 0.994720 -0.036044 0.096088
vn 0.886057 -0.338916 -0.316289
vn 0.958990 -0.281705 -0.031326
vn 0.981350 -0.157850 0.109710
vn 0.985231 -0.114064 0.127710
vn 0.990716 -0.134194 0.021775
vn 1.000000 -0.000000 0.000000
vn 0.717910 -0.251517 -0.649111
vn 0.995272 -0.086809 -0.043575
vn 0.998099 -0.059843 -0.014750
vn 0.978959 -0.192789 -0.066864
vn 0.090341 0.180772 0.979367
vn 0.090503 0.181778 0.979166
vn 0.090909 0.180887 0.979293
vn 0.089728 0.181220 0.979341
vn 0.090693 0.181134 0.979268
vn 0.090518 0.180598 0.979383
vn 0.090349 0.181205 0.979286
vn 0.090585 0.181516 0.979207
vn 0.000000 0.146106 0.989269
vn -0.000001 0.146104 0.989269
vn 0.064772 0.746542 0.662178
vn -0.000000 0.880686 0.473700
vn -0.770617 0.115959 0.626660
vn -0.842786 0.078641 0.532473
vn 0.048179 -0.852039 0.521256
vn 0.000000 -0.631775 0.775152
vn 0.748569 0.130168 0.650155
vn 0.690166 0.105729 0.715886
vn -0.978430 0.205778 0.018166
vn -0.978634 0.171110 -0.114006
vn -0.977052 0.149182 0.152036
vn -0.855633 0.088475 0.509964
vn -0.982233 0.180414 -0.051662
vn -0.969148 -0.175918 -0.172643
vn -0.993270 -0.005126 -0.115711
vn -0.962818 0.143242 0.229050
vn -0.999632 -0.027123 -0.000000
vn -0.975736 0.216292 -0.034008
vn -0.930564 0.365972 0.010736
vn -0.858611 -0.011079 0.512508
vn -0.982797 0.148004 -0.110473
vn -0.983708 0.179591 0.008138
vn -0.999872 -0.013730 0.008272
vn -0.999940 -0.010934 -0.000000
vn -0.967345 0.212236 0.138560
vn -0.992470 -0.029632 -0.118847
vn -0.945704 0.261775 0.192661
vn -0.995468 -0.037319 -0.087472
vn -0.994233 0.079263 0.072241
vn -0.904537 0.424037 -0.044778
vn -0.928412 0.366773 -0.059400
vn -0.929889 0.367478 0.016314
vn -0.962459 0.271414 0.002609
vn -0.974581 0.164754 0.151817
vn -0.999091 -0.024578 -0.034822
vn -1.000000 0.000005 -0.000000
vn -0.994778 -0.022848 -0.099469
vn -0.997413 -0.070719 -0.012901
vn -0.998599 -0.042059 -0.032121
vn -0.997930 -0.023236 -0.059957
vn -0.987152 -0.104603 0.120785
vn -0.993757 0.036088 -0.105568
vn -0.974556 -0.162271 -0.154623
vn -0.987078 0.143291 0.071721
vn -0.979837 0.192702 0.052769
vn -0.039265 0.174887 -0.983805
vn -0.039265 0.174888 -0.983805
vn -0.043595 0.168954 -0.984659
vn -0.039970 -0.000160 -0.999201
vn -0.039880 0.000045 -0.999204
vn -0.039879 0.000046 -0.999205
vn -0.042113 -0.114052 -0.992582
vn -0.039739 -0.107311 -0.993431
vn -0.090919 0.167322 0.981701
vn -0.093549 0.174971 0.980119
vn -0.009219 0.743351 0.668838
vn -0.009052 0.743143 0.669071
vn -0.039673 0.442144 -0.896066
vn -0.045176 0.427669 -0.902806
vn -0.009223 0.782805 0.622199
vn -0.008594 0.781811 0.623456
vn -0.005195 0.923321 0.383993
vn -0.005243 0.923367 0.383882
vn -0.007741 0.823800 0.566828
vn -0.041443 0.892429 0.449280
vn -0.972497 0.181465 0.146011
vn -0.937477 0.312519 0.153197
vn -0.000000 -0.987090 0.160165
vn -0.000000 -0.801371 0.598167
vn -0.000000 -0.361300 -0.932449
vn 0.000000 -0.231594 -0.972812
vn -0.000000 -0.231595 -0.972812
vn -0.000142 0.999954 0.009611
vn 0.016984 0.999856 0.000481
vn -0.000565 0.999936 -0.011272
vn -0.934890 -0.253205 0.248734
vn -0.871547 0.011455 0.490178
vn -0.987293 -0.127347 0.095057
vn -0.994720 -0.036040 0.096090
vn -0.886056 -0.338916 -0.316291
vn -0.958990 -0.281705 -0.031327
vn -0.981350 -0.157850 0.109710
vn -0.985231 -0.114063 0.127710
vn -0.990716 -0.134192 0.021774
vn -1.000000 0.000001 0.000001
vn -0.717910 -0.251517 -0.649111
vn -0.995272 -0.086809 -0.043574
vn -0.998099 -0.059843 -0.014750
vn -0.978959 -0.192789 -0.066864
vn -0.090341 0.180772 0.979367
vn -0.090503 0.181778 0.979166
vn -0.090909 0.180887 0.979293
vn -0.089727 0.181220 0.979341
vn -0.090693 0.181134 0.979268
vn -0.090518 0.180598 0.979383
vn -0.090349 0.181205 0.979286
vn -0.090585 0.181516 0.979207
vn 0.000001 0.146104 0.989269
vn -0.064772 0.746542 0.662178
vn 0.000000 0.880686 0.473700
vn 0.770618 0.115958 0.626659
vn 0.842787 0.078640 0.532471
vn -0.048179 -0.852039 0.521256
vn -0.748568 0.130168 0.650155
vn -0.690166 0.105729 0.715886
vn -0.039880 0.000045 -0.999205
vn 0.000000 -1.000000 -0.000001
vn -0.000001 -1.000000 0.000000
vn 0.000000 -1.000000 0.000007
vn -0.000008 -1.000000 0.000002
vn -0.894317 -0.447215 0.014023
vn 0.000000 -0.999994 -0.003476
vn 0.000000 -0.999957 0.009282
vn -0.022411 -0.999514 -0.021693
vn 0.000007 -1.000000 0.000000
vn 0.000010 -1.000000 0.000000
vn 0.000000 -1.000000 0.000002
vn 0.064214 -0.997936 0.001008
vn 0.053935 -0.998544 0.001295
vn 0.000000 -0.997162 -0.075282
vn -0.000000 -1.000000 -0.000742
vn 0.000000 -1.000000 -0.000742
vn -0.000023 -1.000000 -0.000549
vn 0.000032 -1.000000 -0.000747
vn 0.000000 0.920505 0.390731
vn -0.000001 0.374605 0.927184
vn -0.000001 -0.390729 0.920506
vn 0.000000 -0.927184 0.374606
vn -0.000000 -0.920505 -0.390732
vn -0.000002 -0.374606 -0.927184
vn -0.000002 0.390731 -0.920505
vn -0.000001 0.927184 -0.374606
vn -1.000000 0.000000 -0.000000
vn -1.000000 0.000000 0.000001
vn -1.000000 0.000001 -0.000002
vn 1.000000 0.000000 -0.000000
vn 1.000000 -0.000000 -0.000000
vn 1.000000 0.000000 -0.000001
vn 1.000000 0.000002 -0.000000
vn -0.000000 0.927184 -0.374607
vn -0.000001 0.920505 0.390732
vn -0.000001 0.374608 0.927183
vn -0.000001 -0.390732 0.920505
vn -0.000000 -0.927184 0.374606
vn -0.000003 -0.920505 -0.390731
vn -0.000003 -0.374606 -0.927184
vn -0.000001 0.390731 -0.920505
vn -1.000000 -0.000000 -0.000000
vn -1.000000 0.000001 0.000000
vn -1.000000 -0.000000 -0.000002
vn 1.000000 0.000001 -0.000001
vn -0.000000 0.374606 0.927184
vn 0.000001 -0.390731 0.920505
vn 0.000001 -0.927183 0.374608
vn 0.000000 -0.920505 -0.390732
vn 0.000000 -0.374606 -0.927184
vn 0.000002 0.390731 -0.920505
vn 0.000002 0.927184 -0.374607
vn 0.000001 0.920504 0.390732
vn 1.000000 -0.000001 0.000001
vn 1.000000 0.000001 0.000000
vn 1.000000 0.000002 -0.000001
vn -1.000000 0.000000 0.000000
vn 0.000000 0.927184 -0.374607
vn 0.000001 0.920505 0.390732
vn 0.000001 0.374608 0.927183
vn 0.000002 -0.920505 -0.390731
vn 0.000002 -0.374606 -0.927184
vn 0.000001 0.390731 -0.920505
vn 1.000000 -0.000000 -0.000001
vn 1.000000 -0.000000 -0.000002
vn -1.000000 -0.000001 0.000001
vn -1.000000 0.000001 -0.000001
vn 0.895914 -0.000002 0.444228
vn 0.000000 -1.000000 0.000001
vn -0.122250 0.000000 -0.992499
vn 0.000000 1.000000 -0.000000
vn 0.138535 -0.000005 0.990358
vn 0.090995 0.000000 0.995851
vn -0.895913 -0.000002 0.444229
vn -0.000000 -1.000000 0.000001
vn 0.122250 0.000000 -0.992499
vn -0.138535 -0.000005 0.990358
vn -0.090995 0.000000 0.995851
vn 0.987604 -0.156968 -0.000001
vn 0.108001 -0.300670 -0.947593
vn 0.000000 1.000000 0.000001
vn -0.000000 -1.000000 0.000000
vn 0.016045 -0.294528 -0.955508
vn -0.000000 1.000000 0.000001
vn -0.987604 -0.156969 -0.000001
vn -0.000000 -1.000000 -0.000001
vn -0.108002 -0.300670 -0.947593
vn 0.000000 -1.000000 0.000000
vn -0.016045 -0.294528 -0.955508
vn 0.000001 1.000000 -0.000000
vn -0.199646 0.000001 -0.979868
vn 0.199646 0.000000 0.979868
vn 0.000000 -1.000000 -0.000002
vn -0.769920 0.638140 -0.000000
vn -0.000001 0.000002 -1.000000
vn 0.000000 0.000000 1.000000
vn -0.000001 1.000000 -0.000000
vn 0.199646 0.000000 -0.979868
vn -0.199646 -0.000001 0.979868
vn 0.769920 0.638140 -0.000000
vn 0.000002 0.000002 -1.000000
usemtl vehicle_mat
s off
f 1/167/228 2/168/228 3/169/228 4/170/228
f 2/168/229 5/171/229 6/172/229 3/169/229
f 5/173/230 7/174/230 8/175/230 6/176/230
f 7/174/231 9/177/231 10/178/231 8/175/231
f 9/177/232 11/179/232 12/180/232 10/178/232
f 11/179/233 13/181/233 14/182/233 12/180/233
f 13/181/234 15/183/234 16/184/234 14/182/234
f 15/183/235 1/167/235 4/170/235 16/184/235
f 13/185/236 11/186/236 9/187/236 1/188/236
f 9/187/237 7/189/237 5/190/237 1/188/237
f 5/190/188 2/191/188 1/188/188
f 15/192/238 13/185/238 1/188/238
f 3/193/239 6/194/239 8/195/239 16/196/239
f 8/195/240 10/197/240 12/198/240 16/196/240
f 12/198/241 14/199/241 16/196/241
f 4/200/242 3/193/242 16/196/242
