# Split generated for Godot wheel animation
mtllib car_02.mtl
g wheel_rear_right
v -0.144709 0.463163 0.004042
v -0.144709 0.324646 0.330364
v 0.144709 0.324646 0.330364
v 0.144708 0.463163 0.004042
v -0.144709 -0.004043 0.463163
v 0.144709 -0.004043 0.463163
v -0.144709 -0.330364 0.324648
v 0.144709 -0.330364 0.324648
v -0.144709 -0.463163 -0.004042
v 0.144709 -0.463163 -0.004042
v -0.144709 -0.324648 -0.330363
v 0.144709 -0.324648 -0.330364
v -0.144709 0.004041 -0.463162
v 0.144709 0.004041 -0.463163
v -0.144708 0.330364 -0.324647
v 0.144709 0.330364 -0.324648
vt 0.431746 0.599081 0.000000
vt 0.744124 0.599079 0.000000
vt 0.744123 0.441142 0.000000
vt 0.431745 0.441144 0.000000
vt 0.701588 0.099390 0.000000
vt 0.701588 0.043170 0.000000
vt 0.270203 0.046210 0.000000
vt 0.742596 0.648377 0.000000
vt 0.740753 0.758332 0.000000
vt 0.944334 0.758330 0.000000
vt 0.270203 0.099393 0.000000
vt 0.286107 0.232946 0.000000
vt 0.279118 0.599082 0.000000
vt 0.279116 0.378200 0.000000
vt 0.019769 0.404063 0.000000
vt 0.818898 0.139343 0.000000
vt 0.862976 0.249296 0.000000
vt 0.991832 0.139341 0.000000
vt 0.729949 0.138425 0.000000
vt 0.011377 0.599084 0.000000
vt 0.944333 0.648376 0.000000
vt 0.150066 0.138429 0.000000
vt 0.026760 0.184157 0.000000
vt 0.241843 0.138428 0.000000
vt 0.993123 0.362609 0.000000
vt 0.841677 0.321815 0.000000
vt 0.810377 0.362180 0.000000
vt 0.133430 0.126987 0.000000
vt 0.855984 0.378196 0.000000
vt 0.855986 0.599078 0.000000
vt 0.966498 0.599077 0.000000
vt 0.438737 0.331988 0.000000
vt 0.751115 0.332385 0.000000
vt 0.775837 0.153334 0.000000
vt 0.011378 0.126987 0.000000
vt 0.206399 0.106064 0.000000
vt 0.206398 0.048894 0.000000
vt 0.011378 0.048895 0.000000
vt 0.966497 0.395496 0.000000
vt 0.973488 0.249296 0.000000
vt 0.195955 0.153339 0.000000
vt 0.011378 0.106065 0.000000
vt 0.841595 0.284695 0.000000
vt 0.162030 0.242254 0.000000
vt 0.045953 0.271761 0.000000
vt 0.045256 0.321879 0.000000
vt 0.177236 0.322135 0.000000
vt 0.651046 0.358418 0.000000
vt 0.445216 0.358419 0.000000
vt 0.445216 0.408537 0.000000
vt 0.650362 0.408536 0.000000
vt 0.743550 0.100860 0.000000
vt 0.956358 0.100858 0.000000
vt 0.955846 0.043392 0.000000
vt 0.743550 0.043170 0.000000
vt 0.992633 0.305143 0.000000
vt 0.210000 0.635000 0.000000
vt 0.100000 0.650000 0.000000
vt 0.100000 0.620000 0.000000
vt 0.210000 0.620000 0.000000
vt 0.210000 0.650000 0.000000
vt 0.100000 0.635000 0.000000
vt 0.429535 0.968550 0.000000
vt 0.430837 0.951593 0.000000
vt 0.416190 0.951593 0.000000
vt 0.414888 0.968550 0.000000
vt 0.431640 0.965889 0.000000
vt 0.431512 0.954115 0.000000
vt 0.416865 0.954115 0.000000
vt 0.416993 0.965889 0.000000
vt 0.431238 0.965159 0.000000
vt 0.430475 0.953108 0.000000
vt 0.415828 0.953108 0.000000
vt 0.416591 0.965159 0.000000
vt 0.427202 0.974928 0.000000
vt 0.429897 0.975419 0.000000
vt 0.429323 0.946006 0.000000
vt 0.426627 0.945516 0.000000
vt 0.429802 0.961974 0.000000
vt 0.429926 0.948133 0.000000
vt 0.415279 0.948133 0.000000
vt 0.415155 0.961974 0.000000
vt 0.425994 0.975851 0.000000
vt 0.425420 0.946439 0.000000
vt 0.434810 0.967283 0.000000
vt 0.420163 0.967283 0.000000
vt 0.428276 0.970746 0.000000
vt 0.413629 0.970747 0.000000
vt 0.419279 0.975379 0.000000
vt 0.418705 0.945967 0.000000
vt 0.429850 0.974962 0.000000
vt 0.415203 0.974962 0.000000
vt 0.429071 0.968637 0.000000
vt 0.414424 0.968637 0.000000
vt 0.436103 0.972205 0.000000
vt 0.436103 0.948104 0.000000
vt 0.421456 0.948105 0.000000
vt 0.421456 0.972205 0.000000
vt 0.435107 0.949370 0.000000
vt 0.412968 0.954545 0.000000
vt 0.413611 0.965648 0.000000
vt 0.436082 0.966214 0.000000
vt 0.436161 0.951901 0.000000
vt 0.413367 0.952164 0.000000
vt 0.415633 0.976265 0.000000
vt 0.436161 0.967942 0.000000
vt 0.420559 0.970514 0.000000
vt 0.427447 0.975011 0.000000
vt 0.434334 0.970514 0.000000
vt 0.433156 0.958323 0.000000
vt 0.426056 0.955455 0.000000
vt 0.419879 0.961148 0.000000
vt 0.438061 0.969030 0.000000
vt 0.415922 0.974205 0.000000
vt 0.521995 0.725010 0.000000
vt 0.474354 0.726178 0.000000
vt 0.474566 0.764951 0.000000
vt 0.496412 0.764951 0.000000
vt 0.547578 0.764951 0.000000
vt 0.569425 0.764951 0.000000
vt 0.569637 0.726179 0.000000
vt 0.477571 0.980518 0.000000
vt 0.521994 0.983922 0.000000
vt 0.566416 0.980518 0.000000
vt 0.497806 0.950683 0.000000
vt 0.565488 0.950684 0.000000
vt 0.546181 0.950684 0.000000
vt 0.478500 0.950683 0.000000
vt 0.061878 0.645721 0.000000
vt 0.061878 0.681928 0.000000
vt 0.025671 0.681928 0.000000
vt 0.025671 0.645721 0.000000
vt 0.475000 0.625000 0.000000
vt 0.575000 0.625000 0.000000
vt 0.575000 0.700000 0.000000
vt 0.475000 0.700000 0.000000
vt 0.546288 0.802643 0.000000
vt 0.497701 0.802643 0.000000
vt 0.476694 0.802642 0.000000
vt 0.476693 0.912137 0.000000
vt 0.497700 0.912137 0.000000
vt 0.546288 0.912137 0.000000
vt 0.567296 0.802643 0.000000
vt 0.567295 0.912137 0.000000
vt 0.330001 0.905141 1.000000
vt 0.330001 0.942571 1.000000
vt 0.380001 0.942570 1.000000
vt 0.380001 0.905141 1.000000
vt 0.330002 0.980000 1.000000
vt 0.380002 0.980000 1.000000
vt 0.330000 0.980000 1.000000
vt 0.330000 0.942570 1.000000
vt 0.380000 0.942571 1.000000
vt 0.380000 0.980000 1.000000
vt 0.330001 0.867711 1.000000
vt 0.380001 0.867712 1.000000
vt 0.330002 0.830281 1.000000
vt 0.380002 0.830282 1.000000
vt 0.330000 0.830282 1.000000
vt 0.330000 0.867711 1.000000
vt 0.380000 0.867711 1.000000
vt 0.380000 0.830281 1.000000
vt 0.309437 0.830000 -0.250000
vt 0.265585 0.724133 -0.250000
vt 0.159718 0.680281 -0.250000
vt 0.159718 0.979719 -0.250000
vt 0.053852 0.724133 -0.250000
vt 0.010000 0.830000 -0.250000
vt 0.053852 0.935867 -0.250000
vt 0.265585 0.935867 -0.250000
vt 0.053852 0.935867 0.250000
vt 0.010000 0.830000 0.250000
vt 0.053852 0.724133 0.250000
vt 0.265585 0.935867 0.250000
vt 0.159718 0.680281 0.250000
vt 0.265585 0.724133 0.250000
vt 0.309437 0.830000 0.250000
vt 0.159718 0.979719 0.250000
vn -0.033776 0.999429 0.001277
vn -0.981533 -0.191287 0.001347
vn -0.000000 0.164567 -0.986366
vn -0.999840 0.017882 0.000001
vn -0.000000 0.982759 0.184890
vn -0.994990 0.029502 -0.095528
vn -0.997843 0.065620 0.001860
vn -0.008748 0.983760 0.179276
vn -0.995739 0.060965 0.069196
vn -0.998962 0.012656 -0.043749
vn -0.995933 -0.081091 -0.039269
vn -0.994450 -0.026982 0.101691
vn -0.000000 1.000000 -0.000000
vn -0.000000 0.802776 -0.596281
vn -0.911325 0.411688 0.000526
vn -0.000000 0.826156 0.563441
vn -0.989207 0.133989 0.059301
vn -0.996864 0.020561 0.076423
vn -0.047066 0.259513 0.964592
vn -0.929394 0.368940 0.010460
vn -0.028446 0.841706 0.539187
vn -0.026536 0.785198 -0.618676
vn -0.997708 -0.003480 -0.067576
vn -0.980028 0.149959 0.130603
vn -0.979433 -0.201768 0.000001
vn -0.995049 -0.092809 0.035554
vn -0.997397 0.054951 0.046675
vn -0.998004 0.057841 -0.025344
vn -0.995499 -0.085700 -0.040456
vn -0.992018 -0.126095 -0.000151
vn -0.073066 -0.011682 0.997259
vn -0.023240 -0.004160 -0.999721
vn -0.999948 0.007913 0.006460
vn -0.021437 0.999768 -0.002058
vn -0.000702 0.999968 -0.007996
vn 0.000011 1.000000 0.000009
vn 0.000000 1.000000 -0.000000
vn -0.000000 -0.000000 -1.000000
vn 0.000000 -0.587786 0.809017
vn -0.000003 -0.615326 0.788273
vn 0.000003 -0.823917 -0.566710
vn -0.000000 -0.951056 -0.309017
vn 0.000000 0.000000 1.000000
vn -0.000000 -0.587786 -0.809017
vn 0.000000 -0.951056 0.309017
vn 0.000002 -0.951055 0.309021
vn -0.000006 -0.000001 1.000000
vn -0.000000 -0.185625 -0.982621
vn -0.993251 -0.115405 0.011611
vn -0.997972 -0.053427 0.034608
vn -0.996219 -0.045780 0.073843
vn -0.994692 -0.072264 0.073245
vn -0.995580 -0.093828 0.004042
vn -0.993393 -0.114688 0.004143
vn 0.033776 0.999429 0.001277
vn 0.981533 -0.191287 0.001347
vn 0.999840 0.017882 0.000001
vn 0.000000 0.982759 0.184890
vn 0.994989 0.029502 -0.095528
vn 0.997843 0.065620 0.001860
vn 0.008748 0.983760 0.179276
vn 0.995739 0.060965 0.069195
vn 0.998962 0.012656 -0.043750
vn 0.995933 -0.081091 -0.039269
vn 0.994450 -0.026982 0.101690
vn 0.000000 0.802776 -0.596281
vn 0.911325 0.411688 0.000526
vn 0.000000 0.826156 0.563441
vn 0.989207 0.133988 0.059300
vn 0.996864 0.020561 0.076423
vn 0.047066 0.259513 0.964592
vn 0.929394 0.368940 0.010459
vn 0.028446 0.841706 0.539187
vn 0.026536 0.785198 -0.618676
vn 0.997708 -0.003480 -0.067576
vn 0.980028 0.149959 0.130604
vn 0.979433 -0.201769 0.000001
vn 0.995049 -0.092808 0.035554
vn 0.997398 0.054951 0.046675
vn 0.998004 0.057841 -0.025344
vn 0.995499 -0.085700 -0.040456
vn 0.992018 -0.126095 -0.000151
vn 0.073066 -0.011682 0.997259
vn 0.023240 -0.004160 -0.999721
vn 0.999948 0.007913 0.006460
vn 0.021437 0.999768 -0.002058
vn 0.000702 0.999968 -0.007996
vn -0.000011 1.000000 0.000009
vn 0.000003 -0.615326 0.788273
vn -0.000004 -0.823917 -0.566710
vn -0.000000 -0.951057 -0.309017
vn 0.000000 -0.951057 0.309017
vn -0.000002 -0.951055 0.309021
vn 0.000006 -0.000001 1.000000
vn 0.993251 -0.115405 0.011610
vn 0.997972 -0.053427 0.034607
vn 0.996219 -0.045780 0.073842
vn 0.994693 -0.072263 0.073245
vn 0.995580 -0.093827 0.004042
vn 0.993393 -0.114688 0.004143
vn 0.002095 -0.992242 -0.124300
vn -0.000005 -0.992547 -0.121862
vn -0.003077 -0.992095 -0.125448
vn 0.000000 -0.975098 0.221775
vn 0.000001 -0.969365 0.245624
vn -0.000002 -0.969365 0.245626
vn 0.000000 -1.000000 -0.000000
vn -0.221646 0.000000 -0.975127
vn 0.221646 0.000000 0.975127
vn 1.000000 0.000000 -0.000000
vn 0.221645 0.000000 -0.975127
vn -0.221646 0.000000 0.975127
vn -1.000000 0.000000 -0.000000
vn -0.000000 -0.991776 -0.127985
vn 0.000000 -0.999975 0.007040
vn 0.000000 -0.999983 0.005746
vn -0.000000 -0.999975 0.007040
vn -0.000000 0.920505 0.390732
vn -0.000000 0.374606 0.927184
vn -0.000000 -0.390732 0.920505
vn -0.000000 -0.927184 0.374607
vn -0.000000 -0.920505 -0.390731
vn -0.000001 -0.374606 -0.927184
vn -0.000001 0.390731 -0.920505
vn -0.000000 0.927184 -0.374607
vn -1.000000 -0.000000 -0.000000
vn -1.000000 0.000000 -0.000001
vn -1.000000 -0.000000 -0.000001
vn -1.000000 0.000001 -0.000002
vn 1.000000 0.000000 0.000000
vn 1.000000 0.000000 -0.000001
vn 1.000000 0.000001 0.000000
vn -0.000000 0.920504 0.390732
vn -0.000001 0.374606 0.927184
vn -0.000000 -0.927184 0.374606
vn -0.000001 -0.374607 -0.927184
vn -0.000000 0.927184 -0.374606
vn 0.000000 0.920505 0.390732
vn 0.000000 0.374606 0.927184
vn 0.000000 -0.390732 0.920505
vn 0.000000 -0.927184 0.374607
vn 0.000000 -0.920505 -0.390731
vn 0.000001 -0.374606 -0.927184
vn 0.000001 0.390731 -0.920505
vn 0.000000 0.927184 -0.374607
vn 1.000000 -0.000000 -0.000000
vn 1.000000 0.000001 -0.000002
vn -1.000000 0.000000 0.000000
vn -1.000000 0.000001 0.000000
vn -1.000000 0.000002 0.000000
vn 0.000001 -0.920505 -0.390731
vn 0.000001 -0.374607 -0.927184
vn 0.000000 0.927184 -0.374606
vn 1.000000 0.000001 -0.000001
vn -1.000000 0.000001 0.000001
vn -1.000000 0.000002 0.000001
usemtl vehicle_mat
s off
f 1/145/133 2/146/133 3/147/133 4/148/133
f 2/146/134 5/149/134 6/150/134 3/147/134
f 5/151/120 7/152/120 8/153/120 6/154/120
f 7/152/135 9/145/135 10/148/135 8/153/135
f 9/145/122 11/155/122 12/156/122 10/148/122
f 11/155/136 13/157/136 14/158/136 12/156/136
f 13/159/124 15/160/124 16/161/124 14/162/124
f 15/160/137 1/145/137 4/148/137 16/161/137
f 13/163/126 11/164/126 9/165/126 1/166/126
f 9/165/127 7/167/127 5/168/127 1/166/127
f 5/168/127 2/169/127 1/166/127
f 15/170/129 13/163/129 1/166/129
f 3/171/130 6/172/130 8/173/130 16/174/130
f 8/173/130 10/175/130 12/176/130 16/174/130
f 12/176/131 14/177/131 16/174/131
f 4/178/132 3/171/132 16/174/132
