# Split generated for Godot wheel animation
mtllib taxi_car.mtl
g wheel_front_left
v 0.159338 -0.004426 0.507278
v 0.159338 0.355570 0.361830
v -0.159337 0.355570 0.361830
v -0.159337 -0.004427 0.507278
v 0.159338 -0.361830 0.355570
v -0.159337 -0.361830 0.355570
v 0.159338 -0.507279 -0.004426
v -0.159339 -0.507279 -0.004426
v 0.159338 -0.355569 -0.361830
v -0.159337 -0.355569 -0.361830
v 0.159338 0.004427 -0.507278
v -0.159337 0.004427 -0.507278
v 0.159338 0.361830 -0.355569
v -0.159337 0.361831 -0.355570
v 0.159338 0.507278 0.004428
v -0.159337 0.507279 0.004428
vt 0.443467 0.258258 0.000000
vt 0.428771 0.380482 0.000000
vt 0.698047 0.380480 0.000000
vt 0.689470 0.258257 0.000000
vt 0.331632 0.219574 0.000000
vt 0.316936 0.380483 0.000000
vt 0.786148 0.380479 0.000000
vt 0.777571 0.219571 0.000000
vt 0.769984 0.160307 0.000000
vt 0.324046 0.160310 0.000000
vt 0.435881 0.241655 0.000000
vt 0.681884 0.241654 0.000000
vt 0.017590 0.219576 0.000000
vt 0.990002 0.380478 0.000000
vt 0.660716 0.570562 0.000000
vt 0.214777 0.570559 0.000000
vt 0.208984 0.537395 0.000000
vt 0.660716 0.537398 0.000000
vt 0.010002 0.380485 0.000000
vt 0.982345 0.219569 0.000000
vt 0.307747 0.477489 0.000000
vt 0.328827 0.418923 0.000000
vt 0.660717 0.418926 0.000000
vt 0.010003 0.548916 0.000000
vt 0.268526 0.506765 0.000000
vt 0.660716 0.491086 0.000000
vt 0.779194 0.928630 0.000000
vt 0.618285 0.976988 0.000000
vt 0.626073 0.873355 0.000000
vt 0.974758 0.539446 0.000000
vt 0.806868 0.511856 0.000000
vt 0.773836 0.505829 0.000000
vt 0.204136 0.505825 0.000000
vt 0.974759 0.435813 0.000000
vt 0.875440 0.477493 0.000000
vt 0.890888 0.435813 0.000000
vt 0.974758 0.491087 0.000000
vt 0.871078 0.484004 0.000000
vt 0.010003 0.501177 0.000000
vt 0.179316 0.492197 0.000000
vt 0.820060 0.926759 0.000000
vt 0.820060 0.974498 0.000000
vt 0.980969 0.974497 0.000000
vt 0.779193 0.976989 0.000000
vt 0.980968 0.872251 0.000000
vt 0.163815 0.475030 0.000000
vt 0.146244 0.440329 0.000000
vt 0.296513 0.491083 0.000000
vt 0.838225 0.506768 0.000000
vt 0.862931 0.491087 0.000000
vt 0.237169 0.511852 0.000000
vt 0.752575 0.491086 0.000000
vt 0.827847 0.872252 0.000000
vt 0.010003 0.446670 0.000000
vt 0.618285 0.928629 0.000000
vt 0.733515 0.475034 0.000000
vt 0.700013 0.418926 0.000000
vt 0.779194 0.873356 0.000000
vt 0.234479 0.034815 0.000000
vt 0.233074 0.056574 0.000000
vt 0.224630 0.056970 0.000000
vt 0.146247 0.057523 0.000000
vt 0.131906 0.056574 0.000000
vt 0.131100 0.034815 0.000000
vt 0.719661 0.063819 0.000000
vt 0.726845 0.068227 0.000000
vt 0.726846 0.014794 0.000000
vt 0.719662 0.014793 0.000000
vt 0.741290 0.066148 0.000000
vt 0.752547 0.066967 0.000000
vt 0.752548 0.014794 0.000000
vt 0.741290 0.014794 0.000000
vt 0.712657 0.058704 0.000000
vt 0.717921 0.063437 0.000000
vt 0.717922 0.014793 0.000000
vt 0.712657 0.014793 0.000000
vt 0.775896 0.066271 0.000000
vt 0.781884 0.061243 0.000000
vt 0.781885 0.014794 0.000000
vt 0.775896 0.014794 0.000000
vt 0.730673 0.069251 0.000000
vt 0.740211 0.069251 0.000000
vt 0.740212 0.014794 0.000000
vt 0.730674 0.014794 0.000000
vt 0.722184 0.064849 0.000000
vt 0.730604 0.065370 0.000000
vt 0.730604 0.014794 0.000000
vt 0.722185 0.014793 0.000000
vt 0.762155 0.069079 0.000000
vt 0.770613 0.068447 0.000000
vt 0.770614 0.014794 0.000000
vt 0.762155 0.014794 0.000000
vt 0.750897 0.069251 0.000000
vt 0.750898 0.014794 0.000000
vt 0.759793 0.067446 0.000000
vt 0.766288 0.066741 0.000000
vt 0.766289 0.014794 0.000000
vt 0.759793 0.014794 0.000000
vt 0.777705 0.063389 0.000000
vt 0.777706 0.014794 0.000000
vt 0.719408 0.064073 0.000000
vt 0.719408 0.014793 0.000000
vt 0.738191 0.075683 0.000000
vt 0.726286 0.013460 0.000000
vt 0.758858 0.020644 0.000000
vt 0.757490 0.069695 0.000000
vt 0.759265 0.065410 0.000000
vt 0.728059 0.076827 0.000000
vt 0.737451 0.011779 0.000000
vt 0.760632 0.017043 0.000000
vt 0.768192 0.058915 0.000000
vt 0.779744 0.040412 0.000000
vt 0.768193 0.021306 0.000000
vt 0.764254 0.018530 0.000000
vt 0.776914 0.029726 0.000000
vt 0.776392 0.051669 0.000000
vt 0.777969 0.044696 0.000000
vt 0.774617 0.055954 0.000000
vt 0.767038 0.064412 0.000000
vt 0.766418 0.024472 0.000000
vt 0.775140 0.034010 0.000000
vt 0.775778 0.127143 0.000000
vt 0.324045 0.127146 0.000000
vt 0.677014 0.067237 0.000000
vt 0.324044 0.008674 0.000000
vt 0.655934 0.008671 0.000000
vt 0.974759 0.138664 0.000000
vt 0.716236 0.096513 0.000000
vt 0.324045 0.080834 0.000000
vt 0.010003 0.125592 0.000000
vt 0.177893 0.101604 0.000000
vt 0.210926 0.095577 0.000000
vt 0.780625 0.095573 0.000000
vt 0.010003 0.021959 0.000000
vt 0.093874 0.025561 0.000000
vt 0.109321 0.067241 0.000000
vt 0.113683 0.073752 0.000000
vt 0.010003 0.077234 0.000000
vt 0.805446 0.081945 0.000000
vt 0.974758 0.090925 0.000000
vt 0.820946 0.064778 0.000000
vt 0.838518 0.030077 0.000000
vt 0.688248 0.080831 0.000000
vt 0.146536 0.096516 0.000000
vt 0.121831 0.080835 0.000000
vt 0.747592 0.101600 0.000000
vt 0.232187 0.080834 0.000000
vt 0.974758 0.036418 0.000000
vt 0.251247 0.064782 0.000000
vt 0.284748 0.008674 0.000000
vt 0.224630 0.012660 0.000000
vt 0.233074 0.013056 0.000000
vt 0.146247 0.012107 0.000000
vt 0.131906 0.013056 0.000000
vt 0.224630 0.022228 0.000000
vt 0.224630 0.047401 0.000000
vt 0.204538 0.047401 0.000000
vt 0.204538 0.022228 0.000000
vt 0.165466 0.022228 0.000000
vt 0.165466 0.047401 0.000000
vt 0.146247 0.047401 0.000000
vt 0.146247 0.022228 0.000000
vt 0.165466 0.058084 0.000000
vt 0.200402 0.011546 0.000000
vt 0.165466 0.011546 0.000000
vt 0.204538 0.011639 0.000000
vt 0.204538 0.057990 0.000000
vt 0.200402 0.058084 0.000000
vt 0.587897 0.946667 0.000000
vt 0.415140 0.946667 0.000000
vt 0.419758 0.905654 0.000000
vt 0.587897 0.905654 0.000000
vt 0.386243 0.946667 0.000000
vt 0.386245 0.905654 0.000000
vt 0.410966 0.905654 0.000000
vt 0.487179 0.960861 0.000000
vt 0.588529 0.966138 0.000000
vt 0.587258 0.984814 0.000000
vt 0.498221 0.980292 0.000000
vt 0.491408 0.990793 0.000000
vt 0.497308 0.991967 0.000000
vt 0.386395 0.905395 0.000000
vt 0.376156 0.946001 0.000000
vt 0.375542 0.904133 0.000000
vt 0.382528 0.975265 0.000000
vt 0.370666 0.960861 0.000000
vt 0.375206 0.986632 0.000000
vt 0.381554 0.987874 0.000000
vt 0.469294 0.965944 0.000000
vt 0.468405 0.979230 0.000000
vt 0.848688 0.801260 0.000000
vt 0.848688 0.765053 0.000000
vt 0.884895 0.765053 0.000000
vt 0.884895 0.801260 0.000000
vt 0.972316 0.765053 0.000000
vt 0.984895 0.765053 0.000000
vt 0.984895 0.840053 0.000000
vt 0.884895 0.840053 0.000000
vt 0.853696 0.765053 0.000000
vt 0.850434 0.800466 0.000000
vt 0.849334 0.764577 0.000000
vt 0.882816 0.764735 0.000000
vt 0.853696 0.801260 0.000000
vt 0.853242 0.765053 0.000000
vt 0.851192 0.801260 0.000000
vt 0.850965 0.765053 0.000000
vt 0.587897 0.855030 0.000000
vt 0.587897 0.896043 0.000000
vt 0.419758 0.896043 0.000000
vt 0.415140 0.855030 0.000000
vt 0.410966 0.896043 0.000000
vt 0.386245 0.896043 0.000000
vt 0.386243 0.855030 0.000000
vt 0.386395 0.896302 0.000000
vt 0.375542 0.897565 0.000000
vt 0.376156 0.855696 0.000000
vt 0.618464 0.772740 0.000000
vt 0.612275 0.811016 0.000000
vt 0.479429 0.811016 0.000000
vt 0.473240 0.772740 0.000000
vt 0.447174 0.772740 0.000000
vt 0.452566 0.811016 0.000000
vt 0.467848 0.811016 0.000000
vt 0.479429 0.840053 0.000000
vt 0.612275 0.840053 0.000000
vt 0.623856 0.811016 0.000000
vt 0.644530 0.772740 0.000000
vt 0.639138 0.811016 0.000000
vt 0.057429 0.665895 1.000000
vt 0.057430 0.615895 1.000000
vt 0.094859 0.615895 1.000000
vt 0.094859 0.665895 1.000000
vt 0.020000 0.665894 1.000000
vt 0.020000 0.615894 1.000000
vt 0.282007 0.665896 1.000000
vt 0.282007 0.615896 1.000000
vt 0.319437 0.615897 1.000000
vt 0.319437 0.665897 1.000000
vt 0.244578 0.665896 1.000000
vt 0.244578 0.615896 1.000000
vt 0.207148 0.665896 1.000000
vt 0.207148 0.615896 1.000000
vt 0.169718 0.665896 1.000000
vt 0.169719 0.615896 1.000000
vt 0.132289 0.665895 1.000000
vt 0.132289 0.615895 1.000000
vt 0.010000 0.830000 -0.250000
vt 0.053852 0.935867 -0.250000
vt 0.159718 0.979719 -0.250000
vt 0.159718 0.680281 -0.250000
vt 0.053852 0.724133 -0.250000
vt 0.309437 0.830000 -0.250000
vt 0.265585 0.724133 -0.250000
vt 0.265585 0.935867 -0.250000
vt 0.265585 0.724133 0.250000
vt 0.309437 0.830000 0.250000
vt 0.265585 0.935867 0.250000
vt 0.053852 0.724133 0.250000
vt 0.159718 0.680281 0.250000
vt 0.053852 0.935867 0.250000
vt 0.010000 0.830000 0.250000
vt 0.159718 0.979719 0.250000
vn -0.000000 1.000000 0.000000
vn 0.000000 1.000000 0.000000
vn -0.053650 0.807532 0.587379
vn -0.068684 0.817939 0.571190
vn -0.035680 0.742003 -0.669446
vn -0.047546 0.733880 -0.677613
vn -0.903081 0.429471 0.000000
vn -0.009111 0.994971 0.099752
vn -0.005626 0.994397 -0.105564
vn -0.947703 0.319154 0.000000
vn -0.008310 0.994934 0.100184
vn -0.005001 0.994450 -0.105095
vn -0.993406 -0.114648 -0.000000
vn -0.945320 0.324339 -0.034277
vn -1.000000 0.000000 -0.000000
vn -0.084562 -0.006355 0.996398
vn -0.947218 0.318990 0.031981
vn -0.999179 0.018903 0.035828
vn -0.999263 0.015303 0.035201
vn -0.998429 0.000273 -0.056024
vn -0.986667 -0.159108 0.034248
vn -0.989355 -0.139387 0.041814
vn -0.998283 0.000000 -0.058581
vn -0.047527 0.000000 -0.998870
vn -0.082667 0.000001 0.996577
vn -0.047527 -0.000001 -0.998870
vn -0.993406 -0.114647 -0.000000
vn -0.980779 -0.181011 -0.072847
vn -0.999076 0.013423 0.040822
vn -0.998444 0.022159 -0.051167
vn -0.999547 0.000000 0.030114
vn -0.999546 0.000000 0.030114
vn -0.049937 -0.007134 -0.998727
vn -0.988449 -0.141220 -0.055012
vn 0.000007 0.000000 1.000000
vn -0.999230 0.000000 0.039244
vn -0.994280 -0.102514 0.029955
vn -0.993719 -0.108168 0.028678
vn -0.988915 -0.133448 -0.065110
vn -0.991938 -0.120070 0.040530
vn -0.999482 0.003668 0.031961
vn -0.992224 -0.111335 0.055645
vn -0.993268 -0.114631 0.016706
vn -0.086841 0.000000 0.996222
vn -0.999254 0.003067 0.038491
vn -0.999951 -0.007323 -0.006636
vn 0.000000 -1.000000 -0.000003
vn -0.002331 -0.998910 -0.046616
vn -0.000001 -0.338661 -0.940908
vn 0.000000 -0.983762 0.179477
vn -0.000001 -0.347521 -0.937672
vn 0.000001 -0.451758 0.892140
vn -0.000000 -0.872390 -0.488810
vn -0.000000 -0.872391 -0.488810
vn -0.000000 -0.844280 -0.535902
vn 0.000000 -0.876559 0.481295
vn -0.000000 -0.987090 -0.160165
vn 0.000001 -0.764890 0.644161
vn 0.000001 -0.512656 0.858594
vn 0.000000 -0.670177 0.742201
vn -0.000000 -0.637002 -0.770862
vn -0.000001 -0.754715 -0.656052
vn 0.000000 -0.821763 0.569829
vn -0.000001 -0.556497 -0.830850
vn -0.000000 -0.987090 -0.160167
vn 0.000000 -0.983762 0.179480
vn -1.000000 -0.000000 0.000000
vn -1.000000 -0.000001 0.000000
vn -1.000000 0.000001 0.000000
vn -1.000000 0.000000 0.000000
vn 0.053650 0.807532 0.587379
vn 0.068684 0.817939 0.571190
vn 0.035680 0.742003 -0.669446
vn 0.047546 0.733880 -0.677613
vn 0.903081 0.429471 0.000000
vn 0.009111 0.994971 0.099752
vn 0.005626 0.994397 -0.105564
vn 0.947703 0.319154 0.000000
vn 0.008310 0.994934 0.100184
vn 0.005001 0.994450 -0.105095
vn 0.993406 -0.114648 -0.000000
vn 0.945320 0.324339 -0.034277
vn 1.000000 0.000000 -0.000000
vn 0.084562 -0.006355 0.996398
vn 0.947218 0.318990 0.031981
vn 0.999179 0.018903 0.035828
vn 0.999263 0.015303 0.035201
vn 0.998429 0.000273 -0.056024
vn 0.986667 -0.159108 0.034248
vn 0.989355 -0.139387 0.041814
vn 0.998283 0.000000 -0.058581
vn 0.047527 0.000000 -0.998870
vn 0.082667 0.000001 0.996577
vn 0.047527 -0.000001 -0.998870
vn 0.993406 -0.114647 -0.000000
vn 0.980779 -0.181011 -0.072847
vn 0.999076 0.013423 0.040822
vn 0.998444 0.022159 -0.051167
vn 0.999547 0.000000 0.030114
vn 0.999546 0.000000 0.030114
vn 0.049937 -0.007134 -0.998727
vn 0.988449 -0.141220 -0.055012
vn -0.000007 0.000000 1.000000
vn 0.999230 0.000000 0.039244
vn 0.994280 -0.102514 0.029955
vn 0.993719 -0.108168 0.028678
vn 0.988915 -0.133448 -0.065110
vn 0.991938 -0.120070 0.040530
vn 0.999482 0.003668 0.031961
vn 0.992224 -0.111335 0.055645
vn 0.993268 -0.114631 0.016706
vn 0.086841 0.000000 0.996222
vn 0.999254 0.003067 0.038491
vn 0.999951 -0.007323 -0.006636
vn -0.000000 -1.000000 -0.000003
vn 0.002331 -0.998910 -0.046616
vn 0.000001 -0.338661 -0.940908
vn -0.000000 -0.983762 0.179477
vn 0.000001 -0.347521 -0.937672
vn -0.000001 -0.451758 0.892140
vn 0.000000 -0.872390 -0.488810
vn 0.000000 -0.872391 -0.488810
vn 0.000000 -0.844280 -0.535902
vn -0.000000 -0.876559 0.481295
vn 0.000000 -0.987090 -0.160165
vn -0.000001 -0.764890 0.644161
vn -0.000001 -0.512656 0.858594
vn -0.000000 -0.670177 0.742201
vn 0.000000 -0.637002 -0.770862
vn 0.000001 -0.754715 -0.656052
vn -0.000000 -0.821763 0.569829
vn 0.000001 -0.556497 -0.830850
vn 0.000000 -0.987090 -0.160167
vn -0.000000 -0.983762 0.179480
vn 1.000000 -0.000000 0.000000
vn 1.000000 -0.000001 0.000000
vn 1.000000 0.000001 0.000000
vn 1.000000 0.000000 0.000000
vn 0.000000 -0.996110 0.088119
vn 0.000000 -0.993197 -0.116449
vn 0.000000 -0.999030 -0.044032
vn -0.000000 -1.000000 -0.000000
vn -0.089503 -0.113642 0.989482
vn -0.993715 -0.111933 0.000781
vn -0.000000 1.000000 -0.000000
vn 0.000000 1.000000 -0.000000
vn 0.000000 -0.000032 -1.000000
vn -0.000049 -1.000000 -0.000022
vn -0.000006 -1.000000 0.000063
vn 0.089503 -0.113642 0.989482
vn 0.993715 -0.111933 0.000781
vn 0.000049 -1.000000 -0.000022
vn 0.000006 -1.000000 0.000063
vn 0.129342 0.991513 0.013180
vn -0.227750 0.042989 -0.972770
vn 0.227796 -0.043212 0.972750
vn 0.227620 -0.043248 0.972789
vn 0.991253 -0.131961 -0.001920
vn -0.991267 0.131856 0.002134
vn -0.129224 -0.991531 -0.012912
vn -0.996208 -0.086627 0.008108
vn -0.224699 0.067595 -0.972081
vn 0.854872 -0.517810 -0.032650
vn 0.224605 -0.067567 0.972104
vn 0.129356 0.991512 0.013074
vn -0.227678 0.043109 -0.972782
vn 0.227618 -0.043219 0.972791
vn 0.227654 -0.042970 0.972794
vn 0.991251 -0.131975 -0.001920
vn -0.991267 0.131856 0.002027
vn -0.129314 -0.991517 -0.013070
vn -0.996227 -0.086415 0.008001
vn -0.224836 0.067451 -0.972059
vn 0.854866 -0.517807 -0.032863
vn 0.224803 -0.067583 0.972058
vn -0.067262 -0.132136 -0.988947
vn -0.991336 -0.131353 -0.000780
vn -0.991335 -0.131353 -0.000780
vn -0.000002 1.000000 0.000001
vn 0.000000 -0.000038 1.000000
vn -0.000049 -1.000000 0.000022
vn -0.000002 -1.000000 -0.000064
vn 0.067262 -0.132136 -0.988947
vn 0.991335 -0.131353 -0.000780
vn 0.000002 1.000000 0.000001
vn 0.000049 -1.000000 0.000022
vn 0.000002 -1.000000 -0.000064
vn 0.000000 0.320117 -0.947378
vn 0.000000 0.320117 0.947378
vn 0.988178 0.153310 -0.000000
vn -0.988178 0.153310 -0.000000
vn 0.000001 0.374606 0.927184
vn -0.000001 -0.390731 0.920505
vn 0.000000 -0.927183 0.374608
vn 0.000000 -0.920504 -0.390732
vn 0.000000 -0.374606 -0.927184
vn -0.000002 0.390730 -0.920505
vn -0.000003 0.927184 -0.374607
vn -0.000001 0.920504 0.390732
vn 1.000000 0.000001 -0.000001
vn 1.000000 -0.000001 -0.000003
vn 1.000000 0.000001 0.000001
vn 0.000001 -0.390732 0.920505
vn -0.000001 -0.927184 0.374607
vn 0.000000 -0.920506 -0.390729
vn 0.000000 0.390732 -0.920505
vn -0.000002 0.927183 -0.374608
vn -0.000003 0.920505 0.390730
vn -0.000001 0.374606 0.927184
vn 1.000000 0.000001 -0.000003
vn 1.000000 -0.000000 0.000001
vn 0.000001 -0.390731 0.920505
vn 0.000002 0.390730 -0.920505
vn 0.000003 0.927184 -0.374607
vn 0.000001 0.920504 0.390732
vn -1.000000 0.000001 -0.000001
vn -1.000000 -0.000001 -0.000003
vn -1.000000 0.000001 0.000001
vn -0.000001 -0.390732 0.920505
vn 0.000001 -0.927184 0.374607
vn 0.000002 0.927183 -0.374608
vn 0.000003 0.920505 0.390730
vn -1.000000 0.000001 -0.000003
vn -1.000000 -0.000000 0.000001
usemtl vehicle_mat
s off
f 1/229/209 2/232/209 3/231/209 4/230/209
f 5/233/212 1/229/212 4/230/212 6/234/212
f 7/235/194 5/238/194 6/237/194 8/236/194
f 9/239/195 7/235/195 8/236/195 10/240/195
f 11/241/196 9/239/196 10/240/196 12/242/196
f 13/243/213 11/241/213 12/242/213 14/244/213
f 15/245/214 13/243/214 14/244/214 16/246/214
f 2/232/215 15/245/215 16/246/215 3/231/215
f 5/247/83 9/250/83 2/249/83 1/248/83
f 5/247/83 7/251/83 9/250/83
f 13/252/83 2/249/83 9/250/83 11/253/83
f 15/254/83 2/249/83 13/252/83
f 12/255/216 8/258/216 16/257/216 14/256/216
f 12/255/217 10/259/217 8/258/217
f 4/260/218 16/257/218 8/258/218 6/261/218
f 3/262/15 16/257/15 4/260/15
