# Split generated for Godot wheel animation
mtllib car_01.mtl
g wheel_rear_right
v -0.136816 0.327092 0.321433
v -0.136816 0.004002 0.458577
v 0.136815 0.004002 0.458577
v 0.136815 0.327093 0.321433
v -0.136816 -0.321433 0.327093
v 0.136815 -0.321433 0.327093
v -0.136816 -0.458577 0.004002
v 0.136815 -0.458577 0.004002
v -0.136816 -0.327093 -0.321433
v 0.136815 -0.327093 -0.321433
v -0.136816 -0.004002 -0.458577
v 0.136815 -0.004002 -0.458577
v -0.136816 0.321433 -0.327092
v 0.136815 0.321433 -0.327093
v -0.136816 0.458577 -0.004002
v 0.136815 0.458577 -0.004002
vt 0.682713 0.971183 0.000000
vt 0.682713 0.756463 0.000000
vt 0.806459 0.727571 0.000000
vt 0.895094 0.719597 0.000000
vt 0.895094 0.971183 0.000000
vt 0.776031 0.693320 0.000000
vt 0.776031 0.476704 0.000000
vt 0.973449 0.481139 0.000000
vt 0.458095 0.693320 0.000000
vt 0.458095 0.467788 0.000000
vt 0.648417 0.719992 0.000000
vt 0.648133 0.990451 0.000000
vt 0.521472 0.957942 0.000000
vt 0.021213 0.358710 0.000000
vt 0.261201 0.369735 0.000000
vt 0.280815 0.587069 0.000000
vt 0.028130 0.564112 0.000000
vt 0.986270 0.735505 0.000000
vt 0.986270 0.971183 0.000000
vt 0.486860 0.964080 0.000000
vt 0.320375 0.964077 0.000000
vt 0.320377 0.762614 0.000000
vt 0.477280 0.777322 0.000000
vt 0.344189 0.273059 0.000000
vt 0.370877 0.447956 0.000000
vt 0.252646 0.272816 0.000000
vt 0.665974 0.452525 0.000000
vt 0.942281 0.255077 0.000000
vt 0.864033 0.436024 0.000000
vt 0.861509 0.251514 0.000000
vt 0.162122 0.169918 0.000000
vt 0.010815 0.240657 0.000000
vt 0.023559 0.054356 0.000000
vt 0.061184 0.122635 0.000000
vt 0.663398 0.264197 0.000000
vt 0.242793 0.010930 0.000000
vt 0.858208 0.010128 0.000000
vt 0.963835 0.009990 0.000000
vt 0.998298 0.125540 0.000000
vt 0.320377 0.733375 0.000000
vt 0.206324 0.122446 0.000000
vt 0.222406 0.045707 0.000000
vt 0.106683 0.169990 0.000000
vt 0.340602 0.010802 0.000000
vt 0.598201 0.010467 0.000000
vt 0.723531 0.048010 0.000000
vt 0.774306 0.040934 0.000000
vt 0.741844 0.084938 0.000000
vt 0.760337 0.082311 0.000000
vt 0.743958 0.083172 0.000000
vt 0.742289 0.051231 0.000000
vt 0.754047 0.056032 0.000000
vt 0.767298 0.056880 0.000000
vt 0.764977 0.089180 0.000000
vt 0.753741 0.059309 0.000000
vt 0.738163 0.062670 0.000000
vt 0.738240 0.030370 0.000000
vt 0.746992 0.051879 0.000000
vt 0.738604 0.051469 0.000000
vt 0.738527 0.019169 0.000000
vt 0.759196 0.054097 0.000000
vt 0.743618 0.057930 0.000000
vt 0.746999 0.028562 0.000000
vt 0.758668 0.050369 0.000000
vt 0.771918 0.051055 0.000000
vt 0.773588 0.079941 0.000000
vt 0.477166 0.734071 0.000000
vt 0.753817 0.031675 0.000000
vt 0.757116 0.076102 0.000000
vt 0.740737 0.076102 0.000000
vt 0.722703 0.044930 0.000000
vt 0.759011 0.045407 0.000000
vt 0.747362 0.048368 0.000000
vt 0.743982 0.019483 0.000000
vt 0.748829 0.088157 0.000000
vt 0.735348 0.087961 0.000000
vt 0.737668 0.055660 0.000000
vt 0.771473 0.070833 0.000000
vt 0.521472 0.719993 0.000000
vt 0.680980 0.094961 0.000000
vt 0.726479 0.142316 0.000000
vt 0.775429 0.046885 0.000000
vt 0.757314 0.031002 0.000000
vt 0.754104 0.024069 0.000000
vt 0.761160 0.028263 0.000000
vt 0.761237 0.051042 0.000000
vt 0.050289 0.011181 0.000000
vt 0.043004 0.045941 0.000000
vt 0.116491 0.169977 0.000000
vt 0.751150 0.055857 0.000000
vt 0.781917 0.142244 0.000000
vt 0.826119 0.094772 0.000000
vt 0.729038 0.052829 0.000000
vt 0.663630 0.010382 0.000000
vt 0.761160 0.023151 0.000000
vt 0.725824 0.037672 0.000000
vt 0.754181 0.054026 0.000000
vt 0.760797 0.057644 0.000000
vt 0.728593 0.070833 0.000000
vt 0.725867 0.058543 0.000000
vt 0.751727 0.088974 0.000000
vt 0.051394 0.081335 0.000000
vt 0.746915 0.021603 0.000000
vt 0.722097 0.086528 0.000000
vt 0.724418 0.054228 0.000000
vt 0.758222 0.084938 0.000000
vt 0.744741 0.084938 0.000000
vt 0.770367 0.061997 0.000000
vt 0.730707 0.082197 0.000000
vt 0.727487 0.061997 0.000000
vt 0.973449 0.693320 0.000000
vt 0.758648 0.029914 0.000000
vt 0.776535 0.048010 0.000000
vt 0.214387 0.010968 0.000000
vt 0.842201 0.018034 0.000000
vt 0.760797 0.054097 0.000000
vt 0.840333 0.010151 0.000000
vt 0.758915 0.031463 0.000000
vt 0.774908 0.044539 0.000000
vt 0.344189 0.273060 0.000000
vt 0.010814 0.240657 0.000000
vt 0.170000 0.031549 0.000000
vt 0.170000 0.090000 0.000000
vt 0.111549 0.090000 0.000000
vt 0.111549 0.031549 0.000000
vt 0.170000 0.060775 0.000000
vt 0.111549 0.060775 0.000000
vt 0.422587 0.671307 0.000000
vt 0.422587 0.667147 0.000000
vt 0.404756 0.665806 0.000000
vt 0.383740 0.695886 0.000000
vt 0.406582 0.624682 0.000000
vt 0.403538 0.523284 0.000000
vt 0.425626 0.528096 0.000000
vt 0.424228 0.610802 0.000000
vt 0.424114 0.626027 0.000000
vt 0.425504 0.550857 0.000000
vt 0.425383 0.521486 0.000000
vt 0.360900 0.624682 0.000000
vt 0.363946 0.523283 0.000000
vt 0.383743 0.477165 0.000000
vt 0.402145 0.485128 0.000000
vt 0.420090 0.483299 0.000000
vt 0.365341 0.485127 0.000000
vt 0.347396 0.483298 0.000000
vt 0.343254 0.610800 0.000000
vt 0.341858 0.528095 0.000000
vt 0.342101 0.521485 0.000000
vt 0.341979 0.550856 0.000000
vt 0.343367 0.626026 0.000000
vt 0.362724 0.665805 0.000000
vt 0.344893 0.671306 0.000000
vt 0.344893 0.667146 0.000000
vt 0.346543 0.695886 0.000000
vt 0.420936 0.695887 0.000000
vt 0.150459 0.037251 1.000000
vt 0.158145 0.037251 1.000000
vt 0.158145 0.083368 1.000000
vt 0.150459 0.083368 1.000000
vt 0.165831 0.037251 1.000000
vt 0.165831 0.083368 1.000000
vt 0.119715 0.037251 1.000000
vt 0.127401 0.037251 1.000000
vt 0.127401 0.083368 1.000000
vt 0.119715 0.083368 1.000000
vt 0.135087 0.037251 1.000000
vt 0.135087 0.083368 1.000000
vt 0.142773 0.037251 1.000000
vt 0.142773 0.083368 1.000000
vt 0.158899 0.048780 -0.250000
vt 0.138930 0.037251 -0.250000
vt 0.118961 0.048780 -0.250000
vt 0.138930 0.083368 -0.250000
vt 0.118961 0.071839 -0.250000
vt 0.158899 0.071839 -0.250000
vt 0.125965 0.093865 0.250000
vt 0.154327 0.093865 0.250000
vt 0.168507 0.118427 0.250000
vt 0.125965 0.142989 0.250000
vt 0.154326 0.142989 0.250000
vt 0.111784 0.118427 0.250000
vt 0.161988 0.037251 0.000000
vt 0.161988 0.083368 0.000000
vt 0.115872 0.083368 0.000000
vt 0.115872 0.037251 0.000000
vt 0.161988 0.060309 0.000000
vt 0.115872 0.060309 0.000000
vt 0.094859 0.660001 1.000000
vt 0.057429 0.660000 1.000000
vt 0.057430 0.610000 1.000000
vt 0.094859 0.610001 1.000000
vt 0.020000 0.660000 1.000000
vt 0.020000 0.610000 1.000000
vt 0.319437 0.660002 1.000000
vt 0.282007 0.660002 1.000000
vt 0.282007 0.610002 1.000000
vt 0.319437 0.610002 1.000000
vt 0.244578 0.660002 1.000000
vt 0.244578 0.610002 1.000000
vt 0.207148 0.660001 1.000000
vt 0.207148 0.610001 1.000000
vt 0.169718 0.660001 1.000000
vt 0.169719 0.610001 1.000000
vt 0.132289 0.660001 1.000000
vt 0.132289 0.610001 1.000000
vt 0.309437 0.830000 -0.250000
vt 0.265585 0.724133 -0.250000
vt 0.159718 0.680281 -0.250000
vt 0.159718 0.979719 -0.250000
vt 0.010000 0.830000 -0.250000
vt 0.053852 0.724133 -0.250000
vt 0.053852 0.935867 -0.250000
vt 0.265585 0.935867 -0.250000
vt 0.053852 0.935867 0.250000
vt 0.010000 0.830000 0.250000
vt 0.053852 0.724133 0.250000
vt 0.265585 0.935867 0.250000
vt 0.265585 0.724133 0.250000
vt 0.159718 0.680281 0.250000
vt 0.309437 0.830000 0.250000
vt 0.159718 0.979719 0.250000
vt 0.067931 0.296061 0.000000
vt 0.067931 0.326061 0.000000
vt 0.087931 0.326061 0.000000
vt 0.087931 0.296061 0.000000
vt 0.057931 0.276061 0.000000
vt 0.027931 0.276061 0.000000
vt 0.027931 0.326061 0.000000
vt 0.057931 0.326061 0.000000
vt 0.953193 0.420408 0.000000
vt 0.953193 0.400408 0.000000
vt 0.923193 0.400409 0.000000
vt 0.923193 0.420409 0.000000
vt 0.983193 0.420408 0.000000
vt 0.983193 0.400408 0.000000
vt 0.953193 0.389094 0.000000
vt 0.968193 0.369094 0.000000
vt 0.938193 0.369094 0.000000
vt 0.938193 0.440409 0.000000
vt 0.968193 0.440408 0.000000
vn -0.000000 0.559231 -0.829012
vn 0.000000 0.559231 -0.829012
vn -0.000000 0.999248 -0.038777
vn 0.004366 0.999573 0.028892
vn 0.090473 0.690219 0.717923
vn 0.005623 0.993951 0.109682
vn 0.014684 0.993079 0.116522
vn 0.014684 0.993080 0.116522
vn -0.000000 -0.366253 -0.930515
vn 0.060648 -0.087744 0.994295
vn 0.103099 -0.143536 0.984260
vn 0.966257 0.257528 0.005198
vn 0.967032 0.254300 -0.013468
vn 0.979596 0.195545 -0.046417
vn 0.985755 0.156182 0.062398
vn 0.902539 -0.130779 0.410269
vn 0.974096 0.224829 -0.024247
vn 0.999505 -0.031442 -0.000633
vn 0.983259 -0.167565 -0.071579
vn 0.993707 0.099254 -0.051913
vn 0.105805 -0.789398 0.604695
vn 0.913237 -0.067811 -0.401747
vn 0.989631 0.074449 0.122831
vn 0.999394 -0.026513 -0.022573
vn 0.000000 0.999641 0.026782
vn 0.994111 -0.042000 0.099896
vn 0.100954 -0.994628 -0.022887
vn 0.042294 -0.799290 -0.599456
vn -0.065181 -0.311690 0.947945
vn 0.066203 -0.294790 -0.953266
vn 0.087722 -0.344423 0.934707
vn 0.058546 -0.798799 -0.598742
vn 0.103853 -0.754939 0.647520
vn -0.075584 -0.330553 0.940756
vn 0.976428 0.210027 -0.049774
vn -0.008406 -0.365600 -0.930734
vn 0.002282 -0.999846 -0.017417
vn 0.994583 -0.038311 0.096630
vn 0.110076 0.676270 0.728383
vn 0.979740 0.195521 -0.043378
vn 0.993357 0.059093 0.098747
vn 0.993356 0.059093 0.098747
vn 0.974859 0.218419 -0.044084
vn 0.028504 -0.450318 0.892413
vn 0.087697 -0.109773 -0.990080
vn 0.488647 -0.663498 0.566564
vn 0.488646 -0.663498 0.566564
vn 0.984261 0.171425 -0.042938
vn 0.957203 0.288757 0.019561
vn 0.986163 0.050844 -0.157792
vn 0.111374 -0.820487 0.560712
vn 0.111375 -0.820487 0.560712
vn 0.831326 -0.039749 0.554362
vn -0.092583 -0.231135 -0.968507
vn 0.739493 0.672876 0.019710
vn 0.067974 0.070348 -0.995204
vn -0.077169 0.300928 0.950520
vn 0.982558 -0.034075 -0.182810
vn 0.997863 -0.059003 -0.028069
vn 0.041564 -0.798274 -0.600859
vn 0.795899 0.065593 0.601866
vn 0.067741 -0.300905 -0.951245
vn -0.038530 -0.820549 0.570276
vn 0.991043 0.132413 0.017346
vn 0.986147 0.157768 -0.051218
vn 0.992812 0.116128 0.028946
vn 0.940656 0.307279 -0.144037
vn 0.120618 -0.808863 0.575492
vn 0.965913 0.258547 0.012835
vn 0.051920 -0.792832 -0.607224
vn 0.974038 0.224852 -0.026312
vn 0.999065 -0.033939 -0.026796
vn -0.040398 0.415428 0.908729
vn 0.856606 -0.099272 0.506331
vn 0.973168 -0.227678 0.033275
vn 0.957012 -0.276492 0.087638
vn 0.089959 0.291192 0.952426
vn 1.000000 0.000000 -0.000000
vn 0.067529 -0.310719 -0.948100
vn 0.827582 -0.381518 -0.411767
vn 0.065387 -0.300346 -0.951586
vn 0.065387 -0.300346 -0.951587
vn 0.794032 0.070217 0.603807
vn 0.093166 0.316359 0.944053
vn 0.961022 0.273418 -0.040973
vn 0.999392 -0.034310 -0.006153
vn 0.818511 -0.526118 0.230735
vn 0.818512 -0.526118 0.230735
vn 0.002240 -0.999856 -0.016796
vn 0.979260 0.191932 0.064893
vn 0.979261 0.191932 0.064893
vn 0.002231 -0.999848 -0.017313
vn 0.999732 -0.021690 -0.008126
vn 0.995448 0.084905 -0.043288
vn 0.980026 -0.181954 -0.080264
vn -0.000001 0.559231 -0.829012
vn -0.004366 0.999573 0.028892
vn -0.090472 0.690219 0.717923
vn -0.090472 0.690219 0.717922
vn -0.005623 0.993951 0.109682
vn -0.014684 0.993080 0.116522
vn -0.060648 -0.087744 0.994295
vn -0.103099 -0.143536 0.984260
vn -0.966257 0.257528 0.005198
vn -0.967032 0.254300 -0.013467
vn -0.979596 0.195545 -0.046416
vn -0.985755 0.156182 0.062398
vn -0.902539 -0.130779 0.410268
vn -0.974096 0.224829 -0.024247
vn -0.974096 0.224830 -0.024247
vn -0.999505 -0.031442 -0.000632
vn -0.983259 -0.167564 -0.071579
vn -0.993707 0.099254 -0.051913
vn -0.105805 -0.789398 0.604695
vn -0.913237 -0.067811 -0.401746
vn -0.989631 0.074449 0.122831
vn -0.999394 -0.026513 -0.022572
vn -0.999394 -0.026513 -0.022573
vn -0.994111 -0.042000 0.099896
vn -0.100954 -0.994628 -0.022887
vn -0.042294 -0.799290 -0.599456
vn 0.065182 -0.311690 0.947945
vn -0.066204 -0.294790 -0.953266
vn -0.087721 -0.344423 0.934707
vn -0.058546 -0.798799 -0.598742
vn -0.103853 -0.754939 0.647520
vn 0.075584 -0.330553 0.940756
vn -0.976428 0.210027 -0.049773
vn 0.008406 -0.365600 -0.930734
vn -0.002282 -0.999846 -0.017417
vn -0.994583 -0.038311 0.096630
vn -0.110076 0.676270 0.728383
vn -0.979740 0.195521 -0.043378
vn -0.993357 0.059093 0.098746
vn -0.974859 0.218419 -0.044084
vn -0.028504 -0.450318 0.892413
vn -0.087698 -0.109774 -0.990080
vn -0.488646 -0.663499 0.566563
vn -0.984261 0.171425 -0.042938
vn -0.957203 0.288755 0.019562
vn -0.986163 0.050844 -0.157792
vn -0.111374 -0.820487 0.560712
vn -0.831326 -0.039749 0.554362
vn 0.092582 -0.231135 -0.968507
vn -0.739492 0.672877 0.019710
vn -0.067974 0.070348 -0.995204
vn 0.077169 0.300928 0.950520
vn -0.982558 -0.034075 -0.182808
vn -0.997863 -0.059002 -0.028068
vn -0.041565 -0.798274 -0.600859
vn -0.795898 0.065594 0.601866
vn -0.067742 -0.300905 -0.951245
vn 0.038530 -0.820549 0.570276
vn -0.991043 0.132413 0.017347
vn -0.986147 0.157768 -0.051217
vn -0.992812 0.116128 0.028946
vn -0.940656 0.307279 -0.144037
vn -0.120617 -0.808864 0.575492
vn -0.120617 -0.808863 0.575492
vn -0.965913 0.258547 0.012835
vn -0.051921 -0.792832 -0.607224
vn -0.974038 0.224852 -0.026311
vn -0.999065 -0.033939 -0.026796
vn 0.040399 0.415427 0.908729
vn -0.856605 -0.099272 0.506332
vn -0.973168 -0.227678 0.033277
vn -0.957012 -0.276492 0.087638
vn -0.089958 0.291192 0.952426
vn -1.000000 -0.000003 0.000001
vn -0.067530 -0.310720 -0.948100
vn -0.827582 -0.381518 -0.411767
vn -0.065387 -0.300346 -0.951586
vn -0.794032 0.070216 0.603807
vn -0.794032 0.070216 0.603806
vn -0.093165 0.316359 0.944054
vn -0.961022 0.273418 -0.040973
vn -0.999392 -0.034310 -0.006153
vn -0.818512 -0.526118 0.230735
vn -0.002240 -0.999856 -0.016796
vn -0.979259 0.191939 0.064890
vn -0.002231 -0.999848 -0.017313
vn -0.999732 -0.021689 -0.008125
vn -0.995448 0.084905 -0.043287
vn -0.980026 -0.181954 -0.080263
vn -0.822771 -0.000000 0.568373
vn -0.822771 -0.000000 0.568372
vn 0.822772 0.000000 0.568371
vn 0.000000 -1.000000 -0.000000
vn 0.066465 0.000001 -0.997789
vn -0.066465 0.000000 -0.997789
vn 0.000000 1.000000 -0.000000
vn 0.000000 1.000000 0.000000
vn -0.072664 -0.000001 0.997356
vn 0.072665 0.000000 0.997356
vn -0.916211 -0.154559 -0.369688
vn 0.916211 -0.154559 -0.369688
vn -0.000000 -1.000000 0.000000
vn -0.000000 -0.385726 -0.922613
vn 0.000000 0.385725 0.922614
vn -0.000000 -0.999969 -0.007921
vn 0.921738 -0.267642 -0.280652
vn 0.921739 -0.267642 -0.280652
vn 0.239397 -0.968182 -0.072892
vn -0.664159 -0.719721 0.202226
vn -0.921738 0.267640 0.280657
vn -0.239396 0.968182 0.072893
vn 0.664158 0.719721 -0.202226
vn 0.270975 -0.000000 0.962586
vn -0.270975 0.000000 -0.962586
vn -0.591596 -0.290776 -0.751973
vn 0.644146 0.316605 0.696302
vn 0.690491 -0.723341 -0.000000
vn -0.700515 0.713638 -0.000000
vn -0.000000 0.920505 0.390731
vn -0.000000 0.374606 0.927184
vn -0.000000 -0.390731 0.920505
vn -0.000000 -0.927184 0.374607
vn -0.000000 -0.920505 -0.390731
vn -0.000001 -0.374606 -0.927184
vn -0.000001 0.390730 -0.920505
vn -0.000000 0.927184 -0.374607
vn -1.000000 0.000000 -0.000001
vn 1.000000 0.000000 0.000000
vn -0.000000 0.390730 0.920505
vn 0.000000 -0.374606 0.927184
vn -0.000000 -0.920505 0.390732
vn -0.000000 -0.927184 -0.374607
vn -0.000001 -0.390731 -0.920505
vn -0.000002 0.374607 -0.927184
vn -0.000000 0.920505 -0.390731
vn -0.000000 0.927184 0.374607
vn -0.000000 0.927184 0.374606
vn -1.000000 0.000000 -0.000000
vn 0.000000 0.390731 0.920505
vn -0.000000 -0.374606 0.927184
vn 0.000000 -0.920505 0.390731
vn 0.000000 -0.927184 -0.374607
vn 0.000000 -0.390731 -0.920505
vn 0.000001 0.374607 -0.927184
vn 0.000000 0.920505 -0.390732
vn 0.000000 0.927184 0.374606
vn 0.000000 0.920505 0.390732
vn 0.000000 0.374607 0.927184
vn 0.000000 -0.390731 0.920505
vn 0.000000 -0.927184 0.374607
vn 0.000000 -0.927184 0.374606
vn 0.000001 -0.920505 -0.390731
vn 0.000001 -0.374606 -0.927184
vn 0.000001 0.390731 -0.920505
vn 0.000000 0.927184 -0.374607
vn 0.000001 -1.000000 0.000001
vn -0.000000 1.000000 -0.000003
vn 0.000000 -0.074363 0.997231
vn 1.000000 -0.000000 -0.000002
vn 0.078924 0.085817 -0.993180
vn -1.000000 0.000000 0.000002
vn -0.000001 -1.000000 0.000001
vn 0.000000 1.000000 -0.000003
vn -0.000000 -0.074363 0.997231
vn -1.000000 0.000001 -0.000002
vn -0.078924 0.085818 -0.993180
vn 1.000000 -0.000001 0.000002
vn 0.000001 -1.000000 -0.000001
vn -0.000000 1.000000 0.000003
vn 0.000000 -0.348392 -0.937349
vn 0.000000 -0.348393 -0.937349
vn 1.000000 0.000000 0.000002
vn 0.073993 0.357103 0.931130
vn -1.000000 -0.000000 -0.000002
vn -0.000001 -1.000000 -0.000001
vn 0.000000 1.000000 0.000003
vn -0.000000 -0.348393 -0.937349
vn -0.000000 -0.348392 -0.937349
vn -1.000000 0.000001 0.000002
vn -0.073993 0.357103 0.931130
vn 1.000000 -0.000001 -0.000002
vn -0.452508 0.478698 -0.752386
vn 0.447710 0.479996 -0.754426
vn -0.000001 -1.000000 0.000002
vn 0.000000 1.000000 0.000006
usemtl vehicle_mat
s off
f 1/188/224 2/189/224 3/190/224 4/191/224
f 2/189/225 5/192/225 6/193/225 3/190/225
f 5/194/226 7/195/226 8/196/226 6/197/226
f 7/195/227 9/198/227 10/199/227 8/196/227
f 9/198/228 11/200/228 12/201/228 10/199/228
f 11/200/229 13/202/229 14/203/229 12/201/229
f 13/202/230 15/204/230 16/205/230 14/203/230
f 15/204/231 1/188/232 4/191/232 16/205/232
f 13/206/233 11/207/233 9/208/233 1/209/233
f 5/210/233 1/209/233 9/208/233 7/211/233
f 5/210/233 2/212/233 1/209/233
f 15/213/233 13/206/233 1/209/233
f 3/214/223 6/215/223 8/216/223 16/217/223
f 12/218/223 16/217/223 8/216/223 10/219/223
f 12/218/223 14/220/223 16/217/223
f 4/221/223 3/214/223 16/217/223
