# Split generated for Godot wheel animation
mtllib car_07.mtl
g car_07_body
v -0.912220 2.776949 0.743318
v 0.000000 2.810279 0.743318
v 0.000000 2.810279 -2.433319
v -1.040806 2.776950 -0.935439
v -0.890619 1.615486 0.743312
v -0.727351 1.707927 0.743312
v -1.019205 1.615486 -0.935444
v -0.868993 2.776950 -2.433318
v -0.847392 1.615486 -2.433324
v 0.000000 1.615486 -2.433324
v -0.507183 1.807544 0.743312
v 0.000000 1.851164 0.743312
v -0.890619 0.650884 0.743312
v -0.299962 0.650884 2.689802
v -0.289339 1.609695 2.390375
v 0.000000 1.716344 2.539422
v -1.019204 0.650884 -0.935444
v -0.847392 0.650884 -2.433324
v 0.000000 0.650884 -2.433324
v -0.571034 1.633217 2.423470
v -0.571034 1.577269 2.252381
v -0.666544 1.577269 2.302492
v -0.706105 1.577269 2.423470
v -0.435964 1.577269 2.423470
v -0.475525 1.577269 2.302492
v -0.706105 1.442199 2.252381
v -0.571034 1.442199 2.181514
v -0.762053 1.442199 2.423470
v -0.435964 1.442199 2.252381
v -0.380016 1.442199 2.423470
v -0.666544 1.307128 2.302492
v -0.571034 1.307128 2.252381
v -0.706105 1.307128 2.423470
v -0.475525 1.307128 2.302492
v -0.435964 1.307128 2.423470
v -0.571034 1.251180 2.423470
v -0.475383 1.439788 2.327991
v -0.364788 1.363711 2.217969
v -0.315159 1.363711 2.360210
v -0.285975 1.515866 2.360210
v -0.335604 1.515866 2.217969
v 0.632152 1.067177 -2.664391
v 0.450900 1.515792 -2.664391
v 0.450901 1.515792 -2.424828
v 0.632152 1.067176 -2.424829
v 0.443099 0.621793 -2.664391
v 0.443099 0.621793 -2.424828
v -0.005516 0.440540 -2.664391
v -0.005516 0.440540 -2.424827
v -0.450901 0.629595 -2.664391
v -0.450901 0.629595 -2.424828
v -0.632153 1.078210 -2.664391
v -0.632153 1.078210 -2.424829
v -0.443099 1.523593 -2.664391
v -0.443100 1.523594 -2.424828
v 0.005517 1.704846 -2.664391
v 0.005517 1.704848 -2.424828
v -0.922842 0.490570 2.344580
v -0.922843 0.490570 2.183945
v 0.922838 0.490570 2.183945
v 0.922838 0.490570 2.344580
v -0.922842 0.650901 2.344580
v 0.922838 0.650901 2.344580
v 0.922838 0.650901 2.183945
v -0.922843 0.650901 2.183944
v -0.922842 0.490570 -2.056721
v -0.922843 0.490570 -2.217356
v 0.922838 0.490570 -2.217356
v 0.922838 0.490570 -2.056721
v -0.922842 0.650901 -2.056721
v 0.922838 0.650901 -2.056721
v 0.922838 0.650901 -2.217356
v -0.922843 0.650901 -2.217356
v 0.912220 2.776949 0.743318
v 1.040806 2.776950 -0.935439
v 0.890619 1.615486 0.743312
v 0.727351 1.707927 0.743312
v 1.019205 1.615486 -0.935444
v 0.847392 1.615486 -2.433324
v 0.868993 2.776950 -2.433318
v 0.507183 1.807544 0.743312
v 0.289339 1.609695 2.390375
v 0.299962 0.650884 2.689802
v 0.890619 0.650884 0.743312
v 1.019204 0.650884 -0.935444
v 0.847392 0.650884 -2.433324
v 0.571034 1.633217 2.423470
v 0.666544 1.577269 2.302492
v 0.571034 1.577269 2.252381
v 0.706105 1.577269 2.423470
v 0.475525 1.577269 2.302492
v 0.435964 1.577269 2.423470
v 0.706105 1.442199 2.252381
v 0.571034 1.442199 2.181514
v 0.762053 1.442199 2.423470
v 0.435964 1.442199 2.252381
v 0.380016 1.442199 2.423470
v 0.666544 1.307128 2.302492
v 0.571034 1.307128 2.252381
v 0.706105 1.307128 2.423470
v 0.475525 1.307128 2.302492
v 0.435964 1.307128 2.423470
v 0.571034 1.251180 2.423470
v 0.475383 1.439788 2.327991
v 0.315159 1.363711 2.360210
v 0.364788 1.363711 2.217969
v 0.285975 1.515866 2.360210
v 0.335604 1.515866 2.217969
v 0.000000 0.650884 2.843068
v -0.808897 1.262938 2.510633
v -0.862899 1.355838 2.589598
v -0.912851 1.191555 2.863165
v -0.877067 1.101256 2.792133
v -1.213029 1.244060 -2.336438
v -1.213029 1.244060 -1.846174
v -1.213029 1.336959 -1.790105
v -1.159029 1.336960 -2.378444
v -1.213030 0.573816 -1.100516
v -1.213030 0.666716 -1.035486
v -1.213030 0.573816 0.903948
v -1.213030 0.666716 0.824984
v -1.213030 1.263045 2.050264
v -1.213030 1.355945 1.989879
v -1.213030 1.262938 2.510633
v -1.159029 1.355838 2.589597
v -1.144867 1.101255 2.792133
v -1.109083 1.191556 2.863165
v -0.801242 1.244060 -2.336438
v 0.000000 1.244060 -1.846174
v 0.000000 0.573816 -1.100515
v 0.000000 0.554671 1.008994
v -0.808904 1.263045 2.050265
v -0.808904 1.355945 1.989879
v -0.554436 0.647570 0.930029
v 0.000000 0.666716 -1.035485
v 0.000000 1.336959 -1.790105
v -0.855242 1.336960 -2.378445
v -0.855242 1.027793 -2.890766
v -0.801242 1.029448 -2.681496
v -1.213030 1.029449 -2.681496
v -1.159029 1.027794 -2.890766
v -0.299969 1.019737 2.110013
v -0.438125 0.926724 2.170398
v -0.290603 0.926730 2.596747
v 0.808897 1.262938 2.510633
v 0.877067 1.101256 2.792133
v 0.912850 1.191555 2.863165
v 0.862899 1.355838 2.589598
v 1.213029 1.244060 -2.336438
v 1.159029 1.336960 -2.378444
v 1.213029 1.336959 -1.790105
v 1.213029 1.244060 -1.846174
v 1.213030 0.666716 -1.035486
v 1.213030 0.573816 -1.100516
v 1.213030 0.666716 0.824984
v 1.213030 0.573816 0.903948
v 1.213030 1.355945 1.989879
v 1.213030 1.263045 2.050264
v 1.159029 1.355838 2.589597
v 1.213030 1.262938 2.510633
v 1.109083 1.191556 2.863165
v 1.144867 1.101255 2.792133
v 0.801242 1.244060 -2.336438
v 0.808904 1.263045 2.050265
v 0.808904 1.355945 1.989879
v 0.554437 0.647570 0.930029
v 0.855242 1.336960 -2.378445
v 0.855242 1.027793 -2.890766
v 1.159029 1.027794 -2.890766
v 1.213030 1.029449 -2.681496
v 0.801242 1.029448 -2.681496
v 0.299969 1.019737 2.110013
v 0.438125 0.926724 2.170398
v 0.290603 0.926730 2.596747
v -1.008744 1.399603 -2.656209
v -1.066049 1.359523 -2.587003
v -1.008744 1.356768 -2.557063
v -1.089786 1.366176 -2.659285
v -0.951438 1.359523 -2.587003
v -0.927701 1.366176 -2.659285
v -1.089786 1.276066 -2.564491
v -1.008744 1.272169 -2.522149
v -1.123355 1.285475 -2.666713
v -0.927701 1.276066 -2.564492
v -0.894132 1.285475 -2.666713
v -1.066049 1.198121 -2.601859
v -1.008744 1.195365 -2.571918
v -1.089786 1.204774 -2.674140
v -0.951438 1.198121 -2.601859
v -0.927701 1.204774 -2.674140
v -1.008744 1.171346 -2.677217
v 1.008744 1.399603 -2.656209
v 1.008744 1.356767 -2.557063
v 1.066049 1.359523 -2.587003
v 1.089786 1.366176 -2.659285
v 0.927701 1.366176 -2.659285
v 0.951438 1.359523 -2.587003
v 1.089786 1.276066 -2.564491
v 1.008744 1.272169 -2.522149
v 1.123355 1.285475 -2.666713
v 0.927701 1.276066 -2.564491
v 0.894132 1.285475 -2.666713
v 1.066049 1.198121 -2.601858
v 1.008744 1.195365 -2.571918
v 1.089786 1.204773 -2.674140
v 0.951438 1.198121 -2.601858
v 0.927701 1.204773 -2.674140
v 1.008744 1.171346 -2.677217
vt 0.456740 0.420091 0.000000
vt 0.456740 0.570060 0.000000
vt 0.978980 0.570060 0.000000
vt 0.732728 0.398952 0.000000
vt 0.025867 0.245250 0.000000
vt 0.052708 0.260447 0.000000
vt 0.172286 0.441673 0.000000
vt 0.022317 0.436195 0.000000
vt 0.704870 0.184606 0.000000
vt 0.428882 0.184606 0.000000
vt 0.428882 0.375551 0.000000
vt 0.704869 0.375551 0.000000
vt 0.951121 0.375551 0.000000
vt 0.951122 0.184606 0.000000
vt 0.978979 0.427198 0.000000
vt 0.949617 0.762806 0.000000
vt 0.953178 0.954306 0.000000
vt 0.809900 0.959801 0.000000
vt 0.809900 0.762806 0.000000
vt 0.088904 0.276824 0.000000
vt 0.172285 0.283995 0.000000
vt 0.428882 0.026025 0.000000
vt 0.108879 0.026025 0.000000
vt 0.158105 0.183654 0.000000
vt 0.428883 0.543092 0.000000
vt 0.428883 0.463278 0.000000
vt 0.133602 0.543092 0.000000
vt 0.428883 0.427083 0.000000
vt 0.158105 0.499092 0.000000
vt 0.428883 0.400241 0.000000
vt 0.704870 0.026025 0.000000
vt 0.951122 0.026025 0.000000
vt 0.809901 0.603764 0.000000
vt 0.949618 0.603765 0.000000
vt 0.333739 0.313433 0.000000
vt 0.333739 0.343355 0.000000
vt 0.350442 0.334591 0.000000
vt 0.357361 0.313433 0.000000
vt 0.310116 0.313433 0.000000
vt 0.317034 0.334591 0.000000
vt 0.310115 0.366978 0.000000
vt 0.317034 0.343355 0.000000
vt 0.333738 0.343355 0.000000
vt 0.333738 0.366978 0.000000
vt 0.380984 0.313433 0.000000
vt 0.404608 0.313433 0.000000
vt 0.404608 0.334591 0.000000
vt 0.380984 0.343355 0.000000
vt 0.350442 0.343355 0.000000
vt 0.357361 0.366978 0.000000
vt 0.357361 0.334591 0.000000
vt 0.333738 0.313433 0.000000
vt 0.310115 0.313433 0.000000
vt 0.219782 0.351771 0.000000
vt 0.229592 0.328158 0.000000
vt 0.253226 0.318398 0.000000
vt 0.253154 0.385215 0.000000
vt 0.286598 0.351842 0.000000
vt 0.276838 0.328209 0.000000
vt 0.276787 0.375455 0.000000
vt 0.229542 0.375404 0.000000
vt 0.303349 0.410296 0.000000
vt 0.314210 0.387062 0.000000
vt 0.289444 0.387306 0.000000
vt 0.314137 0.410483 0.000000
vt 0.315305 0.385744 0.000000
vt 0.287232 0.393936 0.000000
vt 0.285379 0.402859 0.000000
vt 0.313626 0.410099 0.000000
vt 0.313553 0.384629 0.000000
vt 0.304816 0.406742 0.000000
vt 0.314802 0.387062 0.000000
vt 0.288639 0.387069 0.000000
vt 0.057429 0.665895 1.000000
vt 0.094859 0.665895 1.000000
vt 0.094859 0.615895 1.000000
vt 0.057430 0.615895 1.000000
vt 0.020000 0.665894 1.000000
vt 0.020000 0.615894 1.000000
vt 0.282007 0.665896 1.000000
vt 0.319437 0.665897 1.000000
vt 0.319437 0.615897 1.000000
vt 0.282007 0.615896 1.000000
vt 0.244578 0.665896 1.000000
vt 0.244578 0.615896 1.000000
vt 0.207148 0.665896 1.000000
vt 0.207148 0.615896 1.000000
vt 0.169718 0.665896 1.000000
vt 0.169719 0.615896 1.000000
vt 0.132289 0.665895 1.000000
vt 0.132289 0.615895 1.000000
vt 0.010000 0.830000 -0.250000
vt 0.159718 0.680281 -0.250000
vt 0.159718 0.979719 -0.250000
vt 0.053852 0.935867 -0.250000
vt 0.053852 0.724133 -0.250000
vt 0.309437 0.830000 -0.250000
vt 0.265585 0.724133 -0.250000
vt 0.265585 0.935867 -0.250000
vt 0.265585 0.724133 0.250000
vt 0.053852 0.724133 0.250000
vt 0.265585 0.935867 0.250000
vt 0.309437 0.830000 0.250000
vt 0.159718 0.680281 0.250000
vt 0.053852 0.935867 0.250000
vt 0.010000 0.830000 0.250000
vt 0.159718 0.979719 0.250000
vt 0.774521 0.926435 0.000000
vt 0.774521 0.976435 0.000000
vt 0.724521 0.976435 0.000000
vt 0.724521 0.926435 0.000000
vt 0.752052 0.770409 0.000000
vt 0.741508 0.770409 0.000000
vt 0.746780 0.767715 0.000000
vt 0.731127 0.804618 0.000000
vt 0.762433 0.804619 0.000000
vt 0.761673 0.860449 0.000000
vt 0.731886 0.860448 0.000000
vt 0.728867 0.834123 0.000000
vt 0.764692 0.834123 0.000000
vt 0.524790 0.899135 0.000000
vt 0.511808 0.883862 0.000000
vt 0.466834 0.910870 0.000000
vt 0.478512 0.925716 0.000000
vt 0.588417 0.923713 0.000000
vt 0.507818 0.923713 0.000000
vt 0.498600 0.938985 0.000000
vt 0.595323 0.938985 0.000000
vt 0.385232 0.813524 0.000000
vt 0.374541 0.828797 0.000000
vt 0.702536 0.658247 0.000000
vt 0.373001 0.658247 0.000000
vt 0.385983 0.673520 0.000000
vt 0.691844 0.673520 0.000000
vt 0.664027 0.835993 0.000000
vt 0.475573 0.949302 0.000000
vt 0.485500 0.964575 0.000000
vt 0.677009 0.851265 0.000000
vt 0.399888 0.949284 0.000000
vt 0.386907 0.964557 0.000000
vt 0.353609 0.922704 0.000000
vt 0.343227 0.932369 0.000000
vt 0.580338 0.924169 0.000000
vt 0.499801 0.921010 0.000000
vt 0.502455 0.853364 0.000000
vt 0.582992 0.856523 0.000000
vt 0.377309 0.916204 0.000000
vt 0.379963 0.848558 0.000000
vt 0.746780 0.837024 0.000000
vt 0.746780 0.799949 0.000000
vt 0.768099 0.801795 0.000000
vt 0.768099 0.837024 0.000000
vt 0.649616 0.919164 0.000000
vt 0.479165 0.897086 0.000000
vt 0.481770 0.830699 0.000000
vt 0.670080 0.838087 0.000000
vt 0.403539 0.894120 0.000000
vt 0.406144 0.827732 0.000000
vt 0.357735 0.881107 0.000000
vt 0.359461 0.837115 0.000000
vt 0.493159 0.917522 0.000000
vt 0.499041 0.932368 0.000000
vt 0.531302 0.932368 0.000000
vt 0.537185 0.917522 0.000000
vt 0.350208 0.873359 0.000000
vt 0.394422 0.884988 0.000000
vt 0.398147 0.836446 0.000000
vt 0.352676 0.841193 0.000000
vt 0.492048 0.901381 0.000000
vt 0.497130 0.835138 0.000000
vt 0.662576 0.956423 0.000000
vt 0.688078 0.849789 0.000000
vt 0.360481 0.780154 0.000000
vt 0.686761 0.739763 0.000000
vt 0.368563 0.936984 0.000000
vt 0.492162 0.947731 0.000000
vt 0.497342 0.880231 0.000000
vt 0.373646 0.870740 0.000000
vt 0.589281 0.946279 0.000000
vt 0.593102 0.896483 0.000000
vt 0.671748 0.918871 0.000000
vt 0.637022 0.926393 0.000000
vt 0.639676 0.858747 0.000000
vt 0.673706 0.868967 0.000000
vt 0.481208 0.858589 0.000000
vt 0.474302 0.873861 0.000000
vt 0.531029 0.909144 0.000000
vt 0.565433 0.909416 0.000000
vt 0.679549 0.888158 0.000000
vt 0.645145 0.888430 0.000000
vt 0.673260 0.952723 0.000000
vt 0.677081 0.902926 0.000000
vt 0.465955 0.983294 0.000000
vt 0.646758 0.832845 0.000000
vt 0.455823 0.897535 0.000000
vt 0.457041 0.957221 0.000000
vt 0.386052 0.978707 0.000000
vt 0.406687 0.894833 0.000000
vt 0.610402 0.883844 0.000000
vt 0.725460 0.837024 0.000000
vt 0.725460 0.801795 0.000000
vt 0.332967 0.244987 0.000000
vt 0.342352 0.256874 0.000000
vt 0.332967 0.261797 0.000000
vt 0.346239 0.244987 0.000000
vt 0.323583 0.256874 0.000000
vt 0.319696 0.244987 0.000000
vt 0.319696 0.275069 0.000000
vt 0.332967 0.275069 0.000000
vt 0.323583 0.261797 0.000000
vt 0.359510 0.244987 0.000000
vt 0.359510 0.261797 0.000000
vt 0.372781 0.256874 0.000000
vt 0.372781 0.244987 0.000000
vt 0.346238 0.275069 0.000000
vt 0.342351 0.261797 0.000000
vt 0.346239 0.256874 0.000000
vt 0.342351 0.256874 0.000000
vt 0.278627 0.285314 0.000000
vt 0.291904 0.279831 0.000000
vt 0.297416 0.266565 0.000000
vt 0.278667 0.247777 0.000000
vt 0.291933 0.253288 0.000000
vt 0.259878 0.266525 0.000000
vt 0.265390 0.253260 0.000000
vt 0.265361 0.279802 0.000000
vt 0.022824 0.019540 0.000000
vt 0.074120 0.019539 0.000000
vt 0.074122 0.194701 0.000000
vt 0.024573 0.177168 0.000000
vn -0.033433 0.999441 0.000886
vn -0.033433 0.999440 0.000886
vn 0.000001 -0.000005 1.000000
vn -0.996908 -0.018541 0.076359
vn -0.993316 -0.018473 -0.113937
vn -0.038325 0.999256 -0.004396
vn -0.000000 0.000004 -1.000000
vn 0.000001 -0.000006 1.000000
vn -0.947730 0.054184 0.314438
vn -0.947731 0.054184 0.314438
vn -0.085449 0.993547 0.074578
vn -0.410662 0.897263 0.162096
vn -0.410662 0.897264 0.162096
vn -0.484658 0.855996 0.179939
vn -0.997079 -0.000000 0.076372
vn -0.993486 -0.000000 -0.113957
vn 0.000000 0.000000 -1.000000
vn -0.160949 0.938079 -0.306762
vn -0.379722 0.916729 -0.124173
vn 0.379722 0.916729 -0.124173
vn 0.160949 0.938079 -0.306762
vn -0.421350 0.421350 -0.803075
vn -0.421349 0.421349 -0.803075
vn -0.884399 0.366330 -0.289208
vn 0.884399 0.366330 -0.289208
vn 0.421350 0.421349 -0.803075
vn -0.421350 -0.421350 -0.803075
vn -0.421349 -0.421349 -0.803075
vn -0.884399 -0.366330 -0.289208
vn 0.884399 -0.366330 -0.289208
vn 0.421350 -0.421349 -0.803075
vn -0.160949 -0.938079 -0.306762
vn -0.379722 -0.916729 -0.124173
vn 0.379722 -0.916729 -0.124173
vn 0.160949 -0.938079 -0.306762
vn 0.000000 0.000000 1.000000
vn -0.449164 -0.879597 0.156718
vn -0.389065 0.911154 0.135749
vn -0.181139 0.034743 0.982844
vn -0.654917 0.125616 -0.745187
vn -0.000001 0.374606 0.927184
vn 0.000001 -0.390731 0.920505
vn -0.000000 -0.927183 0.374608
vn 0.000000 -0.920504 -0.390732
vn 0.000000 -0.374607 -0.927184
vn 0.000003 0.390730 -0.920505
vn 0.000005 0.927184 -0.374607
vn 0.000002 0.920504 0.390733
vn 1.000000 -0.000000 0.000000
vn 1.000000 -0.000001 0.000000
vn 1.000000 0.000000 -0.000000
vn 1.000000 0.000001 0.000000
vn -1.000000 0.000001 -0.000001
vn -1.000000 -0.000002 -0.000005
vn -1.000000 0.000001 0.000002
vn -1.000000 -0.000002 -0.000002
vn 0.000000 -0.374606 -0.927184
vn 0.000003 0.390730 -0.920506
vn -1.000000 -0.000001 -0.000001
vn 0.927184 0.374606 0.000000
vn 0.920505 -0.390731 -0.000001
vn 0.374608 -0.927183 0.000000
vn -0.390732 -0.920504 -0.000000
vn -0.927184 -0.374606 -0.000000
vn -0.920505 0.390730 -0.000003
vn -0.374607 0.927184 -0.000005
vn 0.390733 0.920504 -0.000003
vn -0.000000 0.000000 -1.000000
vn -0.000000 -0.000001 -1.000000
vn -0.000000 0.000001 -1.000000
vn -0.000001 0.000001 1.000000
vn -0.000003 -0.000000 1.000000
vn 0.000002 0.000001 1.000000
vn -0.000000 -0.000001 1.000000
vn 0.000000 -1.000000 -0.000000
vn -0.000000 1.000000 0.000000
vn 0.000000 -0.000001 -1.000000
vn 0.033433 0.999441 0.000886
vn 0.033433 0.999440 0.000886
vn -0.000001 -0.000005 1.000000
vn 0.996908 -0.018541 0.076359
vn 0.993316 -0.018473 -0.113937
vn 0.038325 0.999256 -0.004396
vn 0.000000 0.000004 -1.000000
vn -0.000001 -0.000006 1.000000
vn 0.947730 0.054184 0.314438
vn 0.085449 0.993547 0.074578
vn 0.410662 0.897263 0.162096
vn 0.484658 0.855996 0.179939
vn 0.997079 -0.000000 0.076372
vn 0.993486 -0.000000 -0.113957
vn 0.421350 0.421350 -0.803075
vn -0.421350 0.421349 -0.803075
vn 0.421350 -0.421350 -0.803075
vn -0.421350 -0.421349 -0.803075
vn 0.449164 -0.879597 0.156718
vn 0.389065 0.911154 0.135749
vn 0.181139 0.034743 0.982844
vn 0.654917 0.125616 -0.745187
vn 0.000001 0.374606 0.927184
vn -0.000001 -0.390731 0.920505
vn 0.000000 -0.927183 0.374608
vn -0.000003 0.390730 -0.920505
vn -0.000005 0.927184 -0.374607
vn -0.000002 0.920504 0.390733
vn -1.000000 -0.000000 0.000000
vn -1.000000 0.000000 -0.000000
vn -1.000000 0.000000 0.000000
vn 1.000000 0.000001 -0.000001
vn 1.000000 -0.000002 -0.000005
vn 1.000000 0.000001 0.000002
vn 1.000000 -0.000002 -0.000002
vn -0.000003 0.390730 -0.920506
vn -1.000000 -0.000001 0.000000
vn -1.000000 0.000001 0.000000
vn 1.000000 -0.000001 -0.000001
vn 0.928562 0.198062 0.313917
vn -0.958181 0.282114 -0.047971
vn -0.960415 0.274234 0.048978
vn -0.928566 0.198071 0.313901
vn -0.928565 0.198071 0.313901
vn 0.000000 -0.743715 -0.668497
vn -0.007690 -0.999960 -0.004654
vn -0.044234 -0.849216 0.526190
vn 0.000000 -1.000000 -0.000232
vn 0.000000 -0.867146 -0.498054
vn -0.000001 -0.618262 0.785972
vn -0.000000 0.857296 0.514823
vn 0.000000 1.000000 0.000178
vn 0.067200 0.848305 -0.525226
vn 0.009868 0.999931 0.006434
vn -0.000000 0.747670 0.664071
vn -0.000001 -0.999969 0.007908
vn 0.888272 0.391963 -0.239453
vn -0.000000 -0.849158 0.528139
vn -0.888271 0.391966 -0.239453
vn 0.000000 0.856183 -0.516673
vn 0.572117 0.738705 -0.356366
vn -0.669208 -0.742934 -0.014453
vn -0.615098 -0.781792 0.102249
vn 0.520366 0.840643 0.150132
vn 0.889872 0.449107 0.080199
vn 0.889871 0.449107 0.080199
vn 0.519901 0.840835 0.150665
vn 0.519901 0.840834 0.150665
vn -0.928562 0.198062 0.313916
vn 0.958181 0.282113 -0.047971
vn 0.960415 0.274234 0.048978
vn 0.928565 0.198071 0.313902
vn -0.000000 -0.743715 -0.668497
vn 0.007690 -0.999960 -0.004654
vn 0.044234 -0.849216 0.526190
vn -0.000000 -1.000000 -0.000232
vn -0.000000 -0.867146 -0.498054
vn 0.000001 -0.618261 0.785972
vn 0.000001 -0.618262 0.785972
vn 0.000000 0.857296 0.514823
vn -0.000000 1.000000 0.000178
vn -0.067200 0.848305 -0.525226
vn -0.009868 0.999931 0.006434
vn 0.000000 0.747670 0.664071
vn 0.000000 1.000000 0.000000
vn 0.000001 -0.999969 0.007908
vn -0.888272 0.391963 -0.239453
vn 0.000000 -0.849158 0.528139
vn 0.888271 0.391966 -0.239453
vn -0.000000 0.856183 -0.516673
vn -0.572117 0.738705 -0.356366
vn 0.669208 -0.742934 -0.014453
vn 0.615098 -0.781793 0.102249
vn 0.615098 -0.781792 0.102249
vn -0.520365 0.840643 0.150133
vn -0.520366 0.840643 0.150133
vn -0.889872 0.449106 0.080199
vn -0.519901 0.840835 0.150665
vn -0.519901 0.840834 0.150665
vn -0.160949 0.906017 0.391445
vn -0.379721 0.901491 0.207669
vn 0.379722 0.901490 0.207670
vn 0.160950 0.906017 0.391445
vn -0.421351 0.345974 0.838311
vn -0.884399 0.338282 0.321564
vn 0.884399 0.338281 0.321565
vn 0.421355 0.345972 0.838310
vn -0.421350 -0.493180 0.761077
vn -0.884399 -0.391294 0.254415
vn 0.884399 -0.391293 0.254416
vn 0.421354 -0.493177 0.761076
vn -0.160948 -0.962246 0.219494
vn -0.379721 -0.924252 0.039630
vn 0.379722 -0.924251 0.039630
vn 0.379722 -0.924252 0.039630
vn 0.160949 -0.962246 0.219494
vn 0.000000 0.091651 -0.995791
vn 0.160948 0.906017 0.391445
vn 0.379722 0.901491 0.207667
vn -0.379723 0.901490 0.207668
vn -0.160948 0.906017 0.391445
vn 0.421350 0.345974 0.838312
vn 0.884399 0.338282 0.321563
vn -0.884399 0.338281 0.321564
vn -0.421354 0.345971 0.838311
vn 0.421349 -0.493181 0.761076
vn 0.884399 -0.391295 0.254414
vn -0.884399 -0.391294 0.254416
vn -0.421354 -0.493178 0.761076
vn -0.421354 -0.493177 0.761076
vn 0.160948 -0.962246 0.219493
vn 0.160948 -0.962247 0.219493
vn 0.379721 -0.924252 0.039630
vn -0.379722 -0.924251 0.039630
vn -0.160949 -0.962246 0.219493
vn -0.160949 -0.962247 0.219493
vn -0.477454 0.253174 0.841392
vn 0.477454 0.253174 0.841392
usemtl vehicle_mat
s off
f 1/1/1 2/2/2 3/3/1 4/4/1
f 5/5/3 6/6/3 2/7/3 1/8/3
f 7/9/4 5/10/4 1/11/4 4/12/4
f 7/9/5 4/12/5 8/13/5 9/14/5
f 8/15/6 4/4/6 3/3/6
f 9/16/7 8/17/7 3/18/7 10/19/7
f 11/20/8 12/21/8 2/7/8 6/6/8
f 5/10/9 13/22/10 14/23/9 15/24/9
f 12/25/11 11/26/11 16/27/11
f 11/26/12 6/28/12 15/29/12 16/27/13
f 6/28/14 5/30/14 15/29/14
f 5/10/15 7/9/15 17/31/15 13/22/15
f 7/9/16 9/14/16 18/32/16 17/31/16
f 9/16/17 10/19/17 19/33/17 18/34/17
f 20/35/18 21/36/18 22/37/18
f 20/35/19 22/37/19 23/38/19
f 20/35/20 24/39/20 25/40/20
f 20/35/21 25/40/21 21/36/21
f 26/41/22 22/42/22 21/43/22 27/44/23
f 28/45/24 23/46/24 22/47/24 26/48/24
f 29/48/25 25/47/25 24/46/25 30/45/25
f 27/44/26 21/43/26 25/49/26 29/50/26
f 31/42/27 26/41/27 27/44/28 32/43/27
f 33/38/29 28/45/29 26/48/29 31/51/29
f 34/51/30 29/48/30 30/45/30 35/38/30
f 32/43/31 27/44/31 29/50/31 34/49/31
f 36/52/32 31/37/32 32/43/32
f 36/52/33 33/38/33 31/37/33
f 36/52/34 34/40/34 35/53/34
f 36/52/35 32/43/35 34/40/35
f 28/54/36 33/55/36 36/56/36 20/57/36
f 30/58/36 20/57/36 36/56/36 35/59/36
f 30/58/36 24/60/36 20/57/36
f 23/61/36 28/54/36 20/57/36
f 37/62/37 38/63/37 39/64/37
f 40/65/38 41/66/38 37/67/38
f 37/68/39 39/69/39 40/70/39
f 38/71/40 37/72/40 41/73/40
f 42/74/60 43/75/60 44/76/60 45/77/60
f 46/78/61 42/74/61 45/77/61 47/79/61
f 48/80/62 46/81/62 47/82/62 49/83/62
f 50/84/63 48/80/63 49/83/63 51/85/63
f 52/86/64 50/84/64 51/85/64 53/87/64
f 54/88/65 52/86/65 53/87/65 55/89/65
f 56/90/66 54/88/66 55/89/66 57/91/66
f 43/75/67 56/90/67 57/91/67 44/76/67
f 46/92/68 50/93/68 43/94/68 42/95/68
f 46/92/69 48/96/69 50/93/69
f 54/97/68 43/94/68 50/93/68 52/98/68
f 56/99/70 43/94/70 54/97/70
f 53/100/71 49/101/71 57/102/71 55/103/71
f 53/100/72 51/104/72 49/101/72
f 45/105/73 57/102/73 49/101/73 47/106/73
f 44/107/74 57/102/74 45/105/74
f 58/108/75 59/109/75 60/110/75 61/111/75
f 62/111/76 63/108/76 64/109/76 65/110/76
f 58/111/36 61/108/36 63/109/36 62/110/36
f 60/111/77 59/108/77 65/109/77 64/110/77
f 66/108/75 67/109/75 68/110/75 69/111/75
f 70/111/76 71/108/76 72/109/76 73/110/76
f 66/111/36 69/108/36 71/109/36 70/110/36
f 68/111/77 67/108/77 73/109/77 72/110/77
f 74/1/78 75/4/78 3/3/78 2/2/79
f 76/5/80 74/8/80 2/7/80 77/6/80
f 78/9/81 75/12/81 74/11/81 76/10/81
f 78/9/82 79/14/82 80/13/82 75/12/82
f 80/15/83 3/3/83 75/4/83
f 79/16/84 10/19/84 3/18/84 80/17/84
f 81/20/85 77/6/85 2/7/85 12/21/85
f 76/10/86 82/24/86 83/23/86 84/22/86
f 12/25/87 16/27/87 81/26/87
f 81/26/88 16/27/88 82/29/88 77/28/88
f 77/28/89 82/29/89 76/30/89
f 76/10/90 84/22/90 85/31/90 78/9/90
f 78/9/91 85/31/91 86/32/91 79/14/91
f 79/16/17 86/34/17 19/33/17 10/19/17
f 87/35/21 88/37/21 89/36/21
f 87/35/20 90/38/20 88/37/20
f 87/35/19 91/40/19 92/39/19
f 87/35/18 89/36/18 91/40/18
f 93/41/92 94/44/92 89/43/92 88/42/92
f 95/45/25 93/48/25 88/47/25 90/46/25
f 96/48/24 97/45/24 92/46/24 91/47/24
f 94/44/93 96/50/93 91/49/93 89/43/93
f 98/42/94 99/43/31 94/44/94 93/41/31
f 100/38/30 98/51/30 93/48/30 95/45/30
f 101/51/29 102/38/29 97/45/29 96/48/29
f 99/43/95 101/49/95 96/50/95 94/44/95
f 103/52/35 99/43/35 98/37/35
f 103/52/34 98/37/34 100/38/34
f 103/52/33 102/53/33 101/40/33
f 103/52/32 101/40/32 99/43/32
f 104/62/96 105/64/96 106/63/96
f 107/65/97 104/67/97 108/66/97
f 104/68/98 107/70/98 105/69/98
f 106/71/99 108/73/99 104/72/99
f 14/112/75 83/113/75 109/114/75
f 84/115/75 83/113/75 14/112/75 13/116/75
f 18/117/75 86/118/75 85/119/75 17/120/75
f 110/121/117 111/122/117 112/123/117 113/124/117
f 114/125/118 115/126/118 116/127/118 117/128/118
f 115/126/107 118/129/107 119/130/107 116/127/107
f 118/131/107 120/132/107 121/133/107 119/134/107
f 120/135/107 122/136/107 123/137/107 121/138/107
f 122/136/119 124/139/119 125/140/119 123/137/119
f 124/139/120 126/141/121 127/142/120 125/140/121
f 128/143/75 129/144/75 115/145/75 114/146/75
f 129/144/122 130/147/122 118/148/122 115/145/122
f 130/149/123 131/150/123 120/151/123 118/152/123
f 131/153/124 132/154/124 122/155/124 120/156/124
f 132/154/125 110/157/125 124/158/125 122/155/125
f 110/157/126 113/159/126 126/160/126 124/158/126
f 113/161/127 112/162/127 127/163/127 126/164/127
f 112/165/128 111/166/128 125/167/128 127/168/128
f 111/166/129 133/169/129 123/170/129 125/167/129
f 133/169/130 134/171/130 121/172/130 123/170/130
f 134/173/131 135/174/131 119/134/131 121/133/131
f 135/175/132 136/176/132 116/177/132 119/178/132
f 136/176/76 137/179/76 117/180/76 116/177/76
f 138/181/133 139/182/133 140/183/133 141/184/133
f 137/185/134 128/186/134 139/187/134 138/188/134
f 128/143/135 114/146/135 140/183/135 139/182/135
f 114/125/136 117/128/136 141/189/136 140/190/136
f 117/180/137 137/179/137 138/191/137 141/192/137
f 134/171/138 133/169/138 142/193/138
f 132/136/139 131/194/139 143/195/139
f 110/157/140 132/154/140 143/196/140 144/197/140
f 133/169/141 110/198/141 144/197/141
f 111/122/142 110/121/142 133/199/143
f 142/193/144 133/169/144 144/197/145
f 145/121/146 146/124/146 147/123/146 148/122/146
f 149/125/147 150/128/147 151/127/147 152/126/147
f 152/126/51 151/127/51 153/130/51 154/129/51
f 154/131/51 153/134/51 155/133/51 156/132/51
f 156/135/51 155/138/51 157/137/51 158/136/51
f 158/136/148 157/137/148 159/140/148 160/139/148
f 160/139/149 159/140/149 161/142/149 162/141/149
f 163/143/75 149/146/75 152/145/75 129/144/75
f 129/144/150 152/145/150 154/148/150 130/147/150
f 130/149/151 154/200/151 156/201/151 131/150/151
f 131/153/152 156/156/152 158/155/152 164/154/152
f 164/154/153 158/155/153 160/158/153 145/157/153
f 145/157/154 160/158/154 162/160/154 146/159/154
f 146/161/155 162/164/156 161/163/155 147/162/156
f 147/165/157 161/168/157 159/167/157 148/166/157
f 148/166/158 159/167/158 157/170/158 165/169/158
f 165/169/159 157/170/159 155/172/159 166/171/159
f 166/173/160 155/133/160 153/134/160 135/174/160
f 135/175/161 153/178/161 151/177/161 136/176/161
f 136/176/162 151/177/162 150/180/162 167/179/162
f 168/181/163 169/184/163 170/183/163 171/182/163
f 167/185/164 168/188/164 171/187/164 163/186/164
f 163/143/165 171/182/165 170/183/165 149/146/165
f 149/125/166 170/190/166 169/189/166 150/128/166
f 150/180/167 169/192/167 168/191/167 167/179/167
f 166/171/168 172/193/168 165/169/168
f 164/136/169 173/195/169 131/194/169
f 145/157/170 174/197/171 173/196/171 164/154/170
f 165/169/172 174/197/172 145/198/173
f 148/122/174 165/199/174 145/121/174
f 172/193/175 174/197/176 165/169/175
f 97/54/36 102/55/36 103/56/36 87/57/36
f 95/58/36 87/57/36 103/56/36 100/59/36
f 95/58/36 90/60/36 87/57/36
f 92/61/36 97/54/36 87/57/36
f 175/202/177 176/203/177 177/204/177
f 175/202/178 178/205/178 176/203/178
f 175/202/179 179/206/179 180/207/179
f 175/202/180 177/204/180 179/206/180
f 181/208/181 182/209/181 177/204/181 176/210/181
f 183/211/182 181/212/182 176/213/182 178/214/182
f 184/212/183 185/211/183 180/214/183 179/213/183
f 182/209/184 184/215/184 179/216/184 177/204/184
f 186/210/185 187/204/185 182/209/185 181/208/185
f 188/205/186 186/217/186 181/212/186 183/211/186
f 189/217/187 190/205/187 185/211/187 184/212/187
f 187/204/188 189/216/188 184/215/188 182/209/188
f 191/202/189 187/204/189 186/218/189
f 191/202/190 186/218/190 188/205/190
f 191/202/191 190/207/192 189/206/192
f 191/202/193 189/206/193 187/204/193
f 175/219/194 180/220/194 185/221/194 191/222/194
f 185/221/194 190/223/194 191/222/194
f 183/224/194 175/219/194 191/222/194 188/225/194
f 178/226/194 175/219/194 183/224/194
f 192/202/195 193/204/195 194/203/195
f 192/202/196 194/203/196 195/205/196
f 192/202/197 196/207/197 197/206/197
f 192/202/198 197/206/198 193/204/198
f 198/208/199 194/210/199 193/204/199 199/209/199
f 200/211/200 195/214/200 194/213/200 198/212/200
f 201/212/201 197/213/201 196/214/201 202/211/201
f 199/209/202 193/204/202 197/216/202 201/215/202
f 203/210/203 198/208/203 199/209/203 204/204/203
f 205/205/204 200/211/204 198/212/204 203/217/204
f 206/217/205 201/212/205 202/211/205 207/205/205
f 204/204/206 199/209/207 201/215/207 206/216/207
f 208/202/208 203/218/209 204/204/209
f 208/202/210 205/205/210 203/218/210
f 208/202/211 206/206/211 207/207/211
f 208/202/212 204/204/212 206/206/213
f 200/224/194 205/225/194 208/222/194 192/219/194
f 202/221/194 192/219/194 208/222/194 207/223/194
f 202/221/194 196/220/194 192/219/194
f 195/226/194 200/224/194 192/219/194
f 14/227/214 109/228/214 16/229/214 15/230/214
f 83/227/215 82/230/215 16/229/215 109/228/215
