# Split generated for Godot wheel animation
mtllib car_07.mtl
g wheel_rear_left
v 0.119781 -0.005516 0.632153
v 0.119781 0.443098 0.450901
v -0.119782 0.443098 0.450901
v -0.119781 -0.005517 0.632153
v 0.119781 -0.450901 0.443099
v -0.119782 -0.450901 0.443099
v 0.119781 -0.632154 -0.005516
v -0.119783 -0.632154 -0.005516
v 0.119782 -0.443099 -0.450901
v -0.119781 -0.443099 -0.450901
v 0.119781 0.005516 -0.632153
v -0.119781 0.005516 -0.632153
v 0.119782 0.450899 -0.443098
v -0.119781 0.450900 -0.443100
v 0.119781 0.632153 0.005517
v -0.119781 0.632154 0.005518
vt 0.456740 0.420091 0.000000
vt 0.456740 0.570060 0.000000
vt 0.978980 0.570060 0.000000
vt 0.732728 0.398952 0.000000
vt 0.025867 0.245250 0.000000
vt 0.052708 0.260447 0.000000
vt 0.172286 0.441673 0.000000
vt 0.022317 0.436195 0.000000
vt 0.704870 0.184606 0.000000
vt 0.428882 0.184606 0.000000
vt 0.428882 0.375551 0.000000
vt 0.704869 0.375551 0.000000
vt 0.951121 0.375551 0.000000
vt 0.951122 0.184606 0.000000
vt 0.978979 0.427198 0.000000
vt 0.949617 0.762806 0.000000
vt 0.953178 0.954306 0.000000
vt 0.809900 0.959801 0.000000
vt 0.809900 0.762806 0.000000
vt 0.088904 0.276824 0.000000
vt 0.172285 0.283995 0.000000
vt 0.428882 0.026025 0.000000
vt 0.108879 0.026025 0.000000
vt 0.158105 0.183654 0.000000
vt 0.428883 0.543092 0.000000
vt 0.428883 0.463278 0.000000
vt 0.133602 0.543092 0.000000
vt 0.428883 0.427083 0.000000
vt 0.158105 0.499092 0.000000
vt 0.428883 0.400241 0.000000
vt 0.704870 0.026025 0.000000
vt 0.951122 0.026025 0.000000
vt 0.809901 0.603764 0.000000
vt 0.949618 0.603765 0.000000
vt 0.333739 0.313433 0.000000
vt 0.333739 0.343355 0.000000
vt 0.350442 0.334591 0.000000
vt 0.357361 0.313433 0.000000
vt 0.310116 0.313433 0.000000
vt 0.317034 0.334591 0.000000
vt 0.310115 0.366978 0.000000
vt 0.317034 0.343355 0.000000
vt 0.333738 0.343355 0.000000
vt 0.333738 0.366978 0.000000
vt 0.380984 0.313433 0.000000
vt 0.404608 0.313433 0.000000
vt 0.404608 0.334591 0.000000
vt 0.380984 0.343355 0.000000
vt 0.350442 0.343355 0.000000
vt 0.357361 0.366978 0.000000
vt 0.357361 0.334591 0.000000
vt 0.333738 0.313433 0.000000
vt 0.310115 0.313433 0.000000
vt 0.219782 0.351771 0.000000
vt 0.229592 0.328158 0.000000
vt 0.253226 0.318398 0.000000
vt 0.253154 0.385215 0.000000
vt 0.286598 0.351842 0.000000
vt 0.276838 0.328209 0.000000
vt 0.276787 0.375455 0.000000
vt 0.229542 0.375404 0.000000
vt 0.303349 0.410296 0.000000
vt 0.314210 0.387062 0.000000
vt 0.289444 0.387306 0.000000
vt 0.314137 0.410483 0.000000
vt 0.315305 0.385744 0.000000
vt 0.287232 0.393936 0.000000
vt 0.285379 0.402859 0.000000
vt 0.313626 0.410099 0.000000
vt 0.313553 0.384629 0.000000
vt 0.304816 0.406742 0.000000
vt 0.314802 0.387062 0.000000
vt 0.288639 0.387069 0.000000
vt 0.057429 0.665895 1.000000
vt 0.094859 0.665895 1.000000
vt 0.094859 0.615895 1.000000
vt 0.057430 0.615895 1.000000
vt 0.020000 0.665894 1.000000
vt 0.020000 0.615894 1.000000
vt 0.282007 0.665896 1.000000
vt 0.319437 0.665897 1.000000
vt 0.319437 0.615897 1.000000
vt 0.282007 0.615896 1.000000
vt 0.244578 0.665896 1.000000
vt 0.244578 0.615896 1.000000
vt 0.207148 0.665896 1.000000
vt 0.207148 0.615896 1.000000
vt 0.169718 0.665896 1.000000
vt 0.169719 0.615896 1.000000
vt 0.132289 0.665895 1.000000
vt 0.132289 0.615895 1.000000
vt 0.010000 0.830000 -0.250000
vt 0.159718 0.680281 -0.250000
vt 0.159718 0.979719 -0.250000
vt 0.053852 0.935867 -0.250000
vt 0.053852 0.724133 -0.250000
vt 0.309437 0.830000 -0.250000
vt 0.265585 0.724133 -0.250000
vt 0.265585 0.935867 -0.250000
vt 0.265585 0.724133 0.250000
vt 0.053852 0.724133 0.250000
vt 0.265585 0.935867 0.250000
vt 0.309437 0.830000 0.250000
vt 0.159718 0.680281 0.250000
vt 0.053852 0.935867 0.250000
vt 0.010000 0.830000 0.250000
vt 0.159718 0.979719 0.250000
vt 0.774521 0.926435 0.000000
vt 0.774521 0.976435 0.000000
vt 0.724521 0.976435 0.000000
vt 0.724521 0.926435 0.000000
vt 0.752052 0.770409 0.000000
vt 0.741508 0.770409 0.000000
vt 0.746780 0.767715 0.000000
vt 0.731127 0.804618 0.000000
vt 0.762433 0.804619 0.000000
vt 0.761673 0.860449 0.000000
vt 0.731886 0.860448 0.000000
vt 0.728867 0.834123 0.000000
vt 0.764692 0.834123 0.000000
vt 0.524790 0.899135 0.000000
vt 0.511808 0.883862 0.000000
vt 0.466834 0.910870 0.000000
vt 0.478512 0.925716 0.000000
vt 0.588417 0.923713 0.000000
vt 0.507818 0.923713 0.000000
vt 0.498600 0.938985 0.000000
vt 0.595323 0.938985 0.000000
vt 0.385232 0.813524 0.000000
vt 0.374541 0.828797 0.000000
vt 0.702536 0.658247 0.000000
vt 0.373001 0.658247 0.000000
vt 0.385983 0.673520 0.000000
vt 0.691844 0.673520 0.000000
vt 0.664027 0.835993 0.000000
vt 0.475573 0.949302 0.000000
vt 0.485500 0.964575 0.000000
vt 0.677009 0.851265 0.000000
vt 0.399888 0.949284 0.000000
vt 0.386907 0.964557 0.000000
vt 0.353609 0.922704 0.000000
vt 0.343227 0.932369 0.000000
vt 0.580338 0.924169 0.000000
vt 0.499801 0.921010 0.000000
vt 0.502455 0.853364 0.000000
vt 0.582992 0.856523 0.000000
vt 0.377309 0.916204 0.000000
vt 0.379963 0.848558 0.000000
vt 0.746780 0.837024 0.000000
vt 0.746780 0.799949 0.000000
vt 0.768099 0.801795 0.000000
vt 0.768099 0.837024 0.000000
vt 0.649616 0.919164 0.000000
vt 0.479165 0.897086 0.000000
vt 0.481770 0.830699 0.000000
vt 0.670080 0.838087 0.000000
vt 0.403539 0.894120 0.000000
vt 0.406144 0.827732 0.000000
vt 0.357735 0.881107 0.000000
vt 0.359461 0.837115 0.000000
vt 0.493159 0.917522 0.000000
vt 0.499041 0.932368 0.000000
vt 0.531302 0.932368 0.000000
vt 0.537185 0.917522 0.000000
vt 0.350208 0.873359 0.000000
vt 0.394422 0.884988 0.000000
vt 0.398147 0.836446 0.000000
vt 0.352676 0.841193 0.000000
vt 0.492048 0.901381 0.000000
vt 0.497130 0.835138 0.000000
vt 0.662576 0.956423 0.000000
vt 0.688078 0.849789 0.000000
vt 0.360481 0.780154 0.000000
vt 0.686761 0.739763 0.000000
vt 0.368563 0.936984 0.000000
vt 0.492162 0.947731 0.000000
vt 0.497342 0.880231 0.000000
vt 0.373646 0.870740 0.000000
vt 0.589281 0.946279 0.000000
vt 0.593102 0.896483 0.000000
vt 0.671748 0.918871 0.000000
vt 0.637022 0.926393 0.000000
vt 0.639676 0.858747 0.000000
vt 0.673706 0.868967 0.000000
vt 0.481208 0.858589 0.000000
vt 0.474302 0.873861 0.000000
vt 0.531029 0.909144 0.000000
vt 0.565433 0.909416 0.000000
vt 0.679549 0.888158 0.000000
vt 0.645145 0.888430 0.000000
vt 0.673260 0.952723 0.000000
vt 0.677081 0.902926 0.000000
vt 0.465955 0.983294 0.000000
vt 0.646758 0.832845 0.000000
vt 0.455823 0.897535 0.000000
vt 0.457041 0.957221 0.000000
vt 0.386052 0.978707 0.000000
vt 0.406687 0.894833 0.000000
vt 0.610402 0.883844 0.000000
vt 0.725460 0.837024 0.000000
vt 0.725460 0.801795 0.000000
vt 0.332967 0.244987 0.000000
vt 0.342352 0.256874 0.000000
vt 0.332967 0.261797 0.000000
vt 0.346239 0.244987 0.000000
vt 0.323583 0.256874 0.000000
vt 0.319696 0.244987 0.000000
vt 0.319696 0.275069 0.000000
vt 0.332967 0.275069 0.000000
vt 0.323583 0.261797 0.000000
vt 0.359510 0.244987 0.000000
vt 0.359510 0.261797 0.000000
vt 0.372781 0.256874 0.000000
vt 0.372781 0.244987 0.000000
vt 0.346238 0.275069 0.000000
vt 0.342351 0.261797 0.000000
vt 0.346239 0.256874 0.000000
vt 0.342351 0.256874 0.000000
vt 0.278627 0.285314 0.000000
vt 0.291904 0.279831 0.000000
vt 0.297416 0.266565 0.000000
vt 0.278667 0.247777 0.000000
vt 0.291933 0.253288 0.000000
vt 0.259878 0.266525 0.000000
vt 0.265390 0.253260 0.000000
vt 0.265361 0.279802 0.000000
vt 0.022824 0.019540 0.000000
vt 0.074120 0.019539 0.000000
vt 0.074122 0.194701 0.000000
vt 0.024573 0.177168 0.000000
vn -0.033433 0.999441 0.000886
vn -0.033433 0.999440 0.000886
vn 0.000001 -0.000005 1.000000
vn -0.996908 -0.018541 0.076359
vn -0.993316 -0.018473 -0.113937
vn -0.038325 0.999256 -0.004396
vn -0.000000 0.000004 -1.000000
vn 0.000001 -0.000006 1.000000
vn -0.947730 0.054184 0.314438
vn -0.947731 0.054184 0.314438
vn -0.085449 0.993547 0.074578
vn -0.410662 0.897263 0.162096
vn -0.410662 0.897264 0.162096
vn -0.484658 0.855996 0.179939
vn -0.997079 -0.000000 0.076372
vn -0.993486 -0.000000 -0.113957
vn 0.000000 0.000000 -1.000000
vn -0.160949 0.938079 -0.306762
vn -0.379722 0.916729 -0.124173
vn 0.379722 0.916729 -0.124173
vn 0.160949 0.938079 -0.306762
vn -0.421350 0.421350 -0.803075
vn -0.421349 0.421349 -0.803075
vn -0.884399 0.366330 -0.289208
vn 0.884399 0.366330 -0.289208
vn 0.421350 0.421349 -0.803075
vn -0.421350 -0.421350 -0.803075
vn -0.421349 -0.421349 -0.803075
vn -0.884399 -0.366330 -0.289208
vn 0.884399 -0.366330 -0.289208
vn 0.421350 -0.421349 -0.803075
vn -0.160949 -0.938079 -0.306762
vn -0.379722 -0.916729 -0.124173
vn 0.379722 -0.916729 -0.124173
vn 0.160949 -0.938079 -0.306762
vn 0.000000 0.000000 1.000000
vn -0.449164 -0.879597 0.156718
vn -0.389065 0.911154 0.135749
vn -0.181139 0.034743 0.982844
vn -0.654917 0.125616 -0.745187
vn -0.000001 0.374606 0.927184
vn 0.000001 -0.390731 0.920505
vn -0.000000 -0.927183 0.374608
vn 0.000000 -0.920504 -0.390732
vn 0.000000 -0.374607 -0.927184
vn 0.000003 0.390730 -0.920505
vn 0.000005 0.927184 -0.374607
vn 0.000002 0.920504 0.390733
vn 1.000000 -0.000000 0.000000
vn 1.000000 -0.000001 0.000000
vn 1.000000 0.000000 -0.000000
vn 1.000000 0.000001 0.000000
vn -1.000000 0.000001 -0.000001
vn -1.000000 -0.000002 -0.000005
vn -1.000000 0.000001 0.000002
vn -1.000000 -0.000002 -0.000002
vn 0.000000 -0.374606 -0.927184
vn 0.000003 0.390730 -0.920506
vn -1.000000 -0.000001 -0.000001
vn 0.927184 0.374606 0.000000
vn 0.920505 -0.390731 -0.000001
vn 0.374608 -0.927183 0.000000
vn -0.390732 -0.920504 -0.000000
vn -0.927184 -0.374606 -0.000000
vn -0.920505 0.390730 -0.000003
vn -0.374607 0.927184 -0.000005
vn 0.390733 0.920504 -0.000003
vn -0.000000 0.000000 -1.000000
vn -0.000000 -0.000001 -1.000000
vn -0.000000 0.000001 -1.000000
vn -0.000001 0.000001 1.000000
vn -0.000003 -0.000000 1.000000
vn 0.000002 0.000001 1.000000
vn -0.000000 -0.000001 1.000000
vn 0.000000 -1.000000 -0.000000
vn -0.000000 1.000000 0.000000
vn 0.000000 -0.000001 -1.000000
vn 0.033433 0.999441 0.000886
vn 0.033433 0.999440 0.000886
vn -0.000001 -0.000005 1.000000
vn 0.996908 -0.018541 0.076359
vn 0.993316 -0.018473 -0.113937
vn 0.038325 0.999256 -0.004396
vn 0.000000 0.000004 -1.000000
vn -0.000001 -0.000006 1.000000
vn 0.947730 0.054184 0.314438
vn 0.085449 0.993547 0.074578
vn 0.410662 0.897263 0.162096
vn 0.484658 0.855996 0.179939
vn 0.997079 -0.000000 0.076372
vn 0.993486 -0.000000 -0.113957
vn 0.421350 0.421350 -0.803075
vn -0.421350 0.421349 -0.803075
vn 0.421350 -0.421350 -0.803075
vn -0.421350 -0.421349 -0.803075
vn 0.449164 -0.879597 0.156718
vn 0.389065 0.911154 0.135749
vn 0.181139 0.034743 0.982844
vn 0.654917 0.125616 -0.745187
vn 0.000001 0.374606 0.927184
vn -0.000001 -0.390731 0.920505
vn 0.000000 -0.927183 0.374608
vn -0.000003 0.390730 -0.920505
vn -0.000005 0.927184 -0.374607
vn -0.000002 0.920504 0.390733
vn -1.000000 -0.000000 0.000000
vn -1.000000 0.000000 -0.000000
vn -1.000000 0.000000 0.000000
vn 1.000000 0.000001 -0.000001
vn 1.000000 -0.000002 -0.000005
vn 1.000000 0.000001 0.000002
vn 1.000000 -0.000002 -0.000002
vn -0.000003 0.390730 -0.920506
vn -1.000000 -0.000001 0.000000
vn -1.000000 0.000001 0.000000
vn 1.000000 -0.000001 -0.000001
vn 0.928562 0.198062 0.313917
vn -0.958181 0.282114 -0.047971
vn -0.960415 0.274234 0.048978
vn -0.928566 0.198071 0.313901
vn -0.928565 0.198071 0.313901
vn 0.000000 -0.743715 -0.668497
vn -0.007690 -0.999960 -0.004654
vn -0.044234 -0.849216 0.526190
vn 0.000000 -1.000000 -0.000232
vn 0.000000 -0.867146 -0.498054
vn -0.000001 -0.618262 0.785972
vn -0.000000 0.857296 0.514823
vn 0.000000 1.000000 0.000178
vn 0.067200 0.848305 -0.525226
vn 0.009868 0.999931 0.006434
vn -0.000000 0.747670 0.664071
vn -0.000001 -0.999969 0.007908
vn 0.888272 0.391963 -0.239453
vn -0.000000 -0.849158 0.528139
vn -0.888271 0.391966 -0.239453
vn 0.000000 0.856183 -0.516673
vn 0.572117 0.738705 -0.356366
vn -0.669208 -0.742934 -0.014453
vn -0.615098 -0.781792 0.102249
vn 0.520366 0.840643 0.150132
vn 0.889872 0.449107 0.080199
vn 0.889871 0.449107 0.080199
vn 0.519901 0.840835 0.150665
vn 0.519901 0.840834 0.150665
vn -0.928562 0.198062 0.313916
vn 0.958181 0.282113 -0.047971
vn 0.960415 0.274234 0.048978
vn 0.928565 0.198071 0.313902
vn -0.000000 -0.743715 -0.668497
vn 0.007690 -0.999960 -0.004654
vn 0.044234 -0.849216 0.526190
vn -0.000000 -1.000000 -0.000232
vn -0.000000 -0.867146 -0.498054
vn 0.000001 -0.618261 0.785972
vn 0.000001 -0.618262 0.785972
vn 0.000000 0.857296 0.514823
vn -0.000000 1.000000 0.000178
vn -0.067200 0.848305 -0.525226
vn -0.009868 0.999931 0.006434
vn 0.000000 0.747670 0.664071
vn 0.000000 1.000000 0.000000
vn 0.000001 -0.999969 0.007908
vn -0.888272 0.391963 -0.239453
vn 0.000000 -0.849158 0.528139
vn 0.888271 0.391966 -0.239453
vn -0.000000 0.856183 -0.516673
vn -0.572117 0.738705 -0.356366
vn 0.669208 -0.742934 -0.014453
vn 0.615098 -0.781793 0.102249
vn 0.615098 -0.781792 0.102249
vn -0.520365 0.840643 0.150133
vn -0.520366 0.840643 0.150133
vn -0.889872 0.449106 0.080199
vn -0.519901 0.840835 0.150665
vn -0.519901 0.840834 0.150665
vn -0.160949 0.906017 0.391445
vn -0.379721 0.901491 0.207669
vn 0.379722 0.901490 0.207670
vn 0.160950 0.906017 0.391445
vn -0.421351 0.345974 0.838311
vn -0.884399 0.338282 0.321564
vn 0.884399 0.338281 0.321565
vn 0.421355 0.345972 0.838310
vn -0.421350 -0.493180 0.761077
vn -0.884399 -0.391294 0.254415
vn 0.884399 -0.391293 0.254416
vn 0.421354 -0.493177 0.761076
vn -0.160948 -0.962246 0.219494
vn -0.379721 -0.924252 0.039630
vn 0.379722 -0.924251 0.039630
vn 0.379722 -0.924252 0.039630
vn 0.160949 -0.962246 0.219494
vn 0.000000 0.091651 -0.995791
vn 0.160948 0.906017 0.391445
vn 0.379722 0.901491 0.207667
vn -0.379723 0.901490 0.207668
vn -0.160948 0.906017 0.391445
vn 0.421350 0.345974 0.838312
vn 0.884399 0.338282 0.321563
vn -0.884399 0.338281 0.321564
vn -0.421354 0.345971 0.838311
vn 0.421349 -0.493181 0.761076
vn 0.884399 -0.391295 0.254414
vn -0.884399 -0.391294 0.254416
vn -0.421354 -0.493178 0.761076
vn -0.421354 -0.493177 0.761076
vn 0.160948 -0.962246 0.219493
vn 0.160948 -0.962247 0.219493
vn 0.379721 -0.924252 0.039630
vn -0.379722 -0.924251 0.039630
vn -0.160949 -0.962246 0.219493
vn -0.160949 -0.962247 0.219493
vn -0.477454 0.253174 0.841392
vn 0.477454 0.253174 0.841392
usemtl vehicle_mat
s off
f 1/74/41 2/75/41 3/76/41 4/77/41
f 5/78/42 1/74/42 4/77/42 6/79/42
f 7/80/43 5/81/43 6/82/43 8/83/43
f 9/84/44 7/80/44 8/83/44 10/85/44
f 11/86/57 9/84/57 10/85/57 12/87/57
f 13/88/58 11/86/58 12/87/46 14/89/58
f 15/90/47 13/88/47 14/89/47 16/91/47
f 2/75/48 15/90/48 16/91/48 3/76/48
f 5/92/49 9/93/49 2/94/49 1/95/49
f 5/92/50 7/96/50 9/93/50
f 13/97/51 2/94/51 9/93/51 11/98/51
f 15/99/52 2/94/52 13/97/52
f 12/100/53 8/101/53 16/102/53 14/103/53
f 12/100/54 10/104/54 8/101/54
f 4/105/55 16/102/55 8/101/55 6/106/55
f 3/107/59 16/102/59 4/105/59
