# Split generated for Godot wheel animation
mtllib car_08.mtl
g wheel_front_right
v -0.174707 -0.004934 0.565367
v 0.174706 -0.004935 0.565367
v 0.174706 0.396285 0.403265
v -0.174707 0.396285 0.403265
v -0.174707 -0.403264 0.396286
v 0.174706 -0.403264 0.396286
v -0.174707 -0.565368 -0.004933
v 0.174708 -0.565368 -0.004933
v -0.174707 -0.396286 -0.403263
v 0.174706 -0.396286 -0.403263
v -0.174707 0.004933 -0.565367
v 0.174706 0.004933 -0.565367
v -0.174707 0.403262 -0.396286
v 0.174706 0.403263 -0.396286
v -0.174707 0.565366 0.004935
v 0.174706 0.565368 0.004935
vt 0.045869 0.389930 0.000000
vt 0.859745 0.230416 0.000000
vt 0.813467 0.389928 0.000000
vt 0.806905 0.410939 0.000000
vt 0.574999 0.952496 0.000000
vt 0.575000 0.792984 0.000000
vt 0.761319 0.792983 0.000000
vt 0.761319 0.973508 0.000000
vt 0.592454 0.973507 0.000000
vt 0.975000 0.587641 0.000000
vt 0.974996 0.952571 0.000000
vt 0.788676 0.973578 0.000000
vt 0.536319 0.859746 0.000000
vt 0.536319 0.975001 0.000000
vt 0.350000 0.975000 0.000000
vt 0.203543 0.083948 0.000000
vt 0.975000 0.169782 0.000000
vt 0.866226 0.116044 0.000000
vt 0.045869 0.410939 0.000000
vt 0.045869 0.415621 0.000000
vt 0.806903 0.584486 0.000000
vt 0.788682 0.587638 0.000000
vt 0.858166 0.023369 0.000000
vt 0.876606 0.023369 0.000000
vt 0.876606 0.072940 0.000000
vt 0.350000 0.859745 0.000000
vt 0.900198 0.087265 0.000000
vt 0.923134 0.038050 0.000000
vt 0.975000 0.038050 0.000000
vt 0.878165 0.071908 0.000000
vt 0.800566 0.071908 0.000000
vt 0.800566 0.022338 0.000000
vt 0.816287 0.018435 0.000000
vt 0.848796 0.018435 0.000000
vt 0.848796 0.068006 0.000000
vt 0.878165 0.022338 0.000000
vt 0.852865 0.072222 0.000000
vt 0.820868 0.072222 0.000000
vt 0.820868 0.022651 0.000000
vt 0.187055 0.025000 0.000000
vt 0.045869 0.584486 0.000000
vt 0.957541 0.973579 0.000000
vt 0.045869 0.025000 0.000000
vt 0.575000 0.750000 0.000000
vt 0.575000 0.618268 0.000000
vt 0.761319 0.618268 0.000000
vt 0.761319 0.750000 0.000000
vt 0.855261 0.074448 0.000000
vt 0.828546 0.074448 0.000000
vt 0.828546 0.024878 0.000000
vt 0.845699 0.070344 0.000000
vt 0.813701 0.070344 0.000000
vt 0.813701 0.020773 0.000000
vt 0.816287 0.068006 0.000000
vt 0.802067 0.114677 0.000000
vt 0.836100 0.120507 0.000000
vt 0.841812 0.072940 0.000000
vt 0.823339 0.072940 0.000000
vt 0.823339 0.023369 0.000000
vt 0.841812 0.023369 0.000000
vt 0.845699 0.020773 0.000000
vt 0.852865 0.022652 0.000000
vt 0.855261 0.024878 0.000000
vt 0.858166 0.072940 0.000000
vt 0.805948 0.023369 0.000000
vt 0.805948 0.072940 0.000000
vt 0.770029 0.084888 0.000000
vt 0.346499 0.083946 0.000000
vt 0.736856 0.025000 0.000000
vt 0.362373 0.025000 0.000000
vt 0.790487 0.025493 0.000000
vt 0.885653 0.025493 0.000000
vt 0.877036 0.057490 0.000000
vt 0.799437 0.057491 0.000000
vt 0.888742 0.030011 0.000000
vt 0.876292 0.056726 0.000000
vt 0.805634 0.055435 0.000000
vt 0.787627 0.022927 0.000000
vt 0.841498 0.074770 0.000000
vt 0.823025 0.071606 0.000000
vt 0.857851 0.072348 0.000000
vt 0.384076 0.725067 0.000000
vt 0.347869 0.725067 0.000000
vt 0.347869 0.761274 0.000000
vt 0.384076 0.761274 0.000000
vt 0.347869 0.836274 0.000000
vt 0.447869 0.836274 0.000000
vt 0.447869 0.761274 0.000000
vt 0.370973 0.728586 1.000000
vt 0.380533 0.728586 1.000000
vt 0.380533 0.757267 1.000000
vt 0.370973 0.757267 1.000000
vt 0.351852 0.728586 1.000000
vt 0.361413 0.728586 1.000000
vt 0.361413 0.757267 1.000000
vt 0.351852 0.757267 1.000000
vt 0.404481 0.717954 0.000000
vt 0.390686 0.717954 0.000000
vt 0.390686 0.661384 0.000000
vt 0.433182 0.717954 0.000000
vt 0.446977 0.717954 0.000000
vt 0.404481 0.661384 0.000000
vt 0.433182 0.661384 0.000000
vt 0.446977 0.661384 0.000000
vt 0.433182 0.746093 0.000000
vt 0.404481 0.746093 0.000000
vt 0.404481 0.634899 0.000000
vt 0.433182 0.634899 0.000000
vt 0.446977 0.746093 0.000000
vt 0.446977 0.753928 0.000000
vt 0.390686 0.746093 0.000000
vt 0.418831 0.753928 0.000000
vt 0.390686 0.753928 0.000000
vt 0.390686 0.634899 0.000000
vt 0.390686 0.613572 0.000000
vt 0.446977 0.613572 0.000000
vt 0.418831 0.613572 0.000000
vt 0.446977 0.634899 0.000000
vt 0.950000 0.522913 0.000000
vt 0.911944 0.522912 0.000000
vt 0.911944 0.550000 0.000000
vt 0.950000 0.550000 0.000000
vt 0.976952 0.527046 0.000000
vt 0.974212 0.497371 0.000000
vt 0.950001 0.496465 0.000000
vt 0.871593 0.068002 0.000000
vt 0.871593 0.029946 0.000000
vt 0.842023 0.029946 0.000000
vt 0.842023 0.068002 0.000000
vt 0.885000 0.527095 0.000000
vt 0.911944 0.522913 0.000000
vt 0.911944 0.496465 0.000000
vt 0.887735 0.497415 0.000000
vt 0.974212 0.325307 0.000000
vt 0.950003 0.324402 0.000000
vt 0.911946 0.324402 0.000000
vt 0.887739 0.325351 0.000000
vt 0.480000 0.830001 0.000000
vt 0.503420 0.830000 0.000000
vt 0.503420 0.809811 0.000000
vt 0.480000 0.809810 0.000000
vt 0.532055 0.809810 0.000000
vt 0.511864 0.809810 0.000000
vt 0.503417 0.767343 0.000000
vt 0.532054 0.767343 0.000000
vt 0.503420 0.809812 0.000000
vt 0.503420 0.767343 0.000000
vt 0.480000 0.767343 0.000000
vt 0.511864 0.810867 0.000000
vt 0.532053 0.810867 0.000000
vt 0.532054 0.768398 0.000000
vt 0.503419 0.768398 0.000000
vt 0.503419 0.618426 0.000000
vt 0.532054 0.618426 0.000000
vt 0.480000 0.618426 0.000000
vt 0.805934 0.068002 0.000000
vt 0.805934 0.029946 0.000000
vt 0.057429 0.665895 1.000000
vt 0.094859 0.665895 1.000000
vt 0.094859 0.615895 1.000000
vt 0.057430 0.615895 1.000000
vt 0.020000 0.665894 1.000000
vt 0.020000 0.615894 1.000000
vt 0.282007 0.665896 1.000000
vt 0.319437 0.665897 1.000000
vt 0.319437 0.615897 1.000000
vt 0.282007 0.615896 1.000000
vt 0.244578 0.665896 1.000000
vt 0.244578 0.615896 1.000000
vt 0.207148 0.665896 1.000000
vt 0.207148 0.615896 1.000000
vt 0.169718 0.665896 1.000000
vt 0.169719 0.615896 1.000000
vt 0.132289 0.665895 1.000000
vt 0.132289 0.615895 1.000000
vt 0.010000 0.830000 -0.250000
vt 0.159718 0.680281 -0.250000
vt 0.159718 0.979719 -0.250000
vt 0.053852 0.935867 -0.250000
vt 0.053852 0.724133 -0.250000
vt 0.309437 0.830000 -0.250000
vt 0.265585 0.724133 -0.250000
vt 0.265585 0.935867 -0.250000
vt 0.265585 0.724133 0.250000
vt 0.053852 0.724133 0.250000
vt 0.265585 0.935867 0.250000
vt 0.309437 0.830000 0.250000
vt 0.159718 0.680281 0.250000
vt 0.053852 0.935867 0.250000
vt 0.010000 0.830000 0.250000
vt 0.159718 0.979719 0.250000
vn -1.000000 -0.000000 -0.000000
vn -0.769199 0.639009 0.000002
vn -0.769200 0.639009 0.000002
vn 0.000001 0.278634 0.960397
vn 0.002130 0.280926 0.959727
vn 0.000012 0.298088 0.954538
vn 0.000000 0.000000 -1.000000
vn 0.000004 0.885003 0.465586
vn -1.000000 0.000000 -0.000000
vn -1.000000 0.000001 0.000001
vn -0.769169 0.639046 -0.000000
vn -0.000001 1.000000 0.000000
vn -0.000003 0.000002 -1.000000
vn 0.000000 -0.763013 -0.646383
vn 0.000004 0.885003 0.465585
vn -1.000000 0.000001 -0.000000
vn 0.000000 -1.000000 -0.000010
vn 0.000000 -0.484550 0.874764
vn 0.000000 -0.484550 0.874763
vn -0.000000 -1.000000 -0.000010
vn 0.000000 -0.269369 0.963037
vn -1.000000 -0.000000 -0.000001
vn 0.000001 -0.000000 1.000000
vn 0.000001 0.000000 1.000000
vn 0.000000 -0.422416 -0.906402
vn -0.000000 -0.260030 -0.965601
vn 0.000000 -0.985643 0.168842
vn 0.000000 -0.985643 0.168841
vn 0.000000 -0.260030 -0.965600
vn 0.000001 -0.763014 -0.646383
vn 0.000001 -0.763014 -0.646382
vn 0.000001 -0.732334 0.680946
vn 0.000000 -0.732334 0.680945
vn -1.000000 -0.000000 0.000001
vn 0.000000 -0.989204 -0.146543
vn -1.000000 0.000001 -0.000003
vn -1.000000 0.000000 0.000001
vn -1.000000 0.000001 0.000000
vn -1.000000 0.000002 -0.000001
vn -1.000000 -0.000002 -0.000004
vn 1.000000 0.000002 0.000005
vn 0.000001 0.000003 -1.000000
vn -0.000001 0.000003 1.000000
vn -0.000002 1.000000 -0.000000
vn 0.000001 -1.000000 0.000000
vn 0.000252 -0.275862 -0.961197
vn 0.000906 1.000000 -0.000000
vn 0.000246 -0.275873 0.961194
vn 0.277349 0.000004 -0.960769
vn -1.000000 -0.000013 0.000007
vn 0.277358 0.000004 0.960766
vn 0.277358 0.000004 0.960767
vn 0.103174 0.276904 -0.955343
vn 0.103174 0.276904 -0.955342
vn -0.350173 -0.936685 0.000001
vn 0.103168 0.276911 0.955341
vn 0.277351 -0.000008 -0.960769
vn -1.000000 0.000027 -0.000000
vn 0.277355 -0.000010 0.960767
vn 1.000000 -0.000000 -0.000000
vn 0.769200 0.639008 0.000002
vn -0.000001 0.278634 0.960397
vn -0.002130 0.280926 0.959727
vn -0.000012 0.298087 0.954539
vn -0.000001 0.000000 -1.000000
vn -0.000004 0.885003 0.465586
vn 1.000000 0.000000 0.000000
vn 1.000000 0.000001 0.000001
vn 0.769169 0.639046 -0.000000
vn 0.000001 1.000000 -0.000000
vn 0.000003 0.000002 -1.000000
vn -0.000005 0.885003 0.465585
vn 1.000000 0.000001 -0.000000
vn 0.000001 -1.000000 -0.000010
vn 0.000001 -0.269369 0.963037
vn 1.000000 -0.000000 -0.000001
vn 0.000001 1.000000 0.000000
vn -0.000001 -0.000001 -1.000000
vn 1.000000 0.000000 -0.000000
vn -0.000001 -0.000000 1.000000
vn 0.000001 -0.260030 -0.965601
vn 1.000000 0.000001 -0.000001
vn -0.000000 -0.763014 -0.646382
vn 0.000001 -0.732334 0.680945
vn 1.000000 -0.000000 0.000002
vn 1.000000 0.000001 -0.000002
vn 0.000000 -0.989204 -0.146544
vn 1.000000 0.000002 0.000000
vn 1.000000 -0.000003 -0.000005
vn -1.000000 0.000003 0.000006
vn -0.000001 0.000003 -1.000000
vn 0.000001 0.000003 1.000000
vn 0.000002 1.000000 -0.000000
vn -0.000001 -1.000000 0.000000
vn -0.000252 -0.275862 -0.961197
vn -0.000907 1.000000 -0.000000
vn -0.000246 -0.275873 0.961194
vn -0.277349 0.000004 -0.960769
vn 1.000000 -0.000012 0.000008
vn -0.277358 0.000004 0.960766
vn -0.277358 0.000004 0.960767
vn -0.103174 0.276905 -0.955342
vn 0.350174 -0.936685 0.000001
vn -0.103169 0.276911 0.955341
vn -0.277354 -0.000008 -0.960768
vn 1.000000 0.000028 -0.000000
vn -0.277353 -0.000010 0.960768
vn 0.000000 -1.000000 0.000000
vn 0.000000 -0.997555 0.069886
vn -0.000000 -1.000000 -0.000000
vn 0.000000 -1.000000 -0.000009
vn 0.000000 -1.000000 -0.000005
vn -0.993420 -0.000001 0.114532
vn -0.993419 -0.000001 0.114532
vn 0.000000 -1.000000 -0.000000
vn 0.328819 0.000001 -0.944393
vn 0.000000 1.000000 -0.000000
vn -0.270702 -0.000006 0.962663
vn -0.000000 1.000000 0.000001
vn 0.000000 0.000000 1.000000
vn -1.000000 -0.000055 -0.000001
vn 0.000008 -1.000000 -0.000021
vn -0.195061 0.000038 -0.980791
vn -0.000004 -1.000000 -0.000025
vn 0.000005 0.000037 -1.000000
vn 0.000014 0.000001 -1.000000
vn 0.993420 -0.000001 0.114532
vn 0.993419 -0.000001 0.114532
vn -0.328819 0.000001 -0.944393
vn 0.270702 -0.000006 0.962663
vn 1.000000 -0.000055 -0.000002
vn -0.000008 -1.000000 -0.000021
vn 0.195060 0.000035 -0.980791
vn 0.000000 1.000000 0.000001
vn 0.000005 -1.000000 -0.000025
vn -0.000006 0.000036 -1.000000
vn -0.000014 0.000001 -1.000000
vn -0.000001 0.374605 0.927184
vn 0.000000 -0.390730 0.920505
vn -0.000000 -0.927183 0.374609
vn 0.000000 -0.920504 -0.390733
vn 0.000000 -0.374606 -0.927184
vn 0.000002 0.390730 -0.920505
vn 0.000004 0.927184 -0.374607
vn 0.000001 0.920505 0.390732
vn -1.000000 0.000001 -0.000001
vn -1.000000 0.000000 0.000002
vn -0.000001 0.374605 0.927185
vn 0.000001 -0.390730 0.920505
vn -0.000001 -0.374606 -0.927184
vn 0.000001 0.390730 -0.920505
vn 0.000003 0.927184 -0.374607
vn 0.000001 0.920504 0.390732
vn 0.000001 0.374605 0.927184
vn -0.000001 -0.390730 0.920505
vn -0.000001 -0.390731 0.920505
vn 0.000000 -0.927183 0.374608
vn -0.000000 -0.920504 -0.390732
vn -0.000000 -0.920505 -0.390732
vn -0.000000 -0.374606 -0.927184
vn -0.000002 0.390730 -0.920505
vn -0.000004 0.927184 -0.374607
vn -0.000001 0.920505 0.390732
vn -0.000001 0.920504 0.390732
vn -1.000000 -0.000001 -0.000000
vn 1.000000 -0.000001 -0.000004
vn 1.000000 0.000001 0.000002
vn 0.000002 0.374605 0.927184
vn -0.000000 -0.390731 0.920505
vn -0.000001 -0.920504 -0.390732
vn -0.000000 -0.374605 -0.927184
vn -0.000002 0.390729 -0.920506
usemtl vehicle_mat
s off
f 1/158/154 2/161/154 3/160/154 4/159/154
f 5/162/155 6/163/155 2/161/155 1/158/156
f 7/164/157 8/167/157 6/166/157 5/165/157
f 9/168/158 10/169/158 8/167/159 7/164/158
f 11/170/160 12/171/160 10/169/160 9/168/160
f 13/172/161 14/173/161 12/171/161 11/170/161
f 15/174/162 16/175/162 14/173/162 13/172/162
f 4/159/163 3/160/163 16/175/164 15/174/163
f 5/176/9 1/179/9 4/178/9 9/177/9
f 5/176/165 9/177/165 7/180/165
f 13/181/9 11/182/9 9/177/9 4/178/9
f 15/183/9 13/181/9 4/178/9
f 12/184/82 14/187/82 16/186/82 8/185/82
f 12/184/166 8/185/166 10/188/166
f 2/189/167 6/190/167 8/185/167 16/186/167
f 3/191/79 2/189/79 16/186/79
